<svg xmlns="http://www.w3.org/2000/svg" xmlns:xlink="http://www.w3.org/1999/xlink" viewBox="57.3 118 205.41 91.49"><defs><linearGradient id="a" x1="720.92" x2="721.63" y1="568.78" y2="568.78" gradientTransform="rotate(90 57744 -6669.8) scale(89.52)" gradientUnits="userSpaceOnUse"><stop offset="0" stop-color="#28618f"/><stop offset=".52" stop-color="#0c2b54"/><stop offset="1" stop-color="#02163d"/><stop offset="1" stop-color="#231f20"/></linearGradient><linearGradient id="c" x1="96.25" x2="161.73" y1="157.76" y2="157.76" gradientTransform="matrix(1 0 0 -1 0 322)" xlink:href="#a"/><clipPath id="b"><path fill="none" d="M145.69 120c-30.55 0-62.64 6.92-79.41 27.45-4.86 5.95-6.97 12.01-6.97 17.78 0 15.14 14.45 28.24 31.41 31.95 46.99 10.3 89.25-10.99 89.25-10.99s-21.96 5.4-41.02 5.49c-72.98.35-76.8-50.42 2.43-58 49.97-4.78 111.87 8.28 111.87 8.28s-24.61-7.41-58.29-16.05c-13.54-3.48-31.13-5.91-49.26-5.91Z"/></clipPath></defs><g clip-path="url(#b)"><path fill="url(#a)" d="M59.3 120h193.94v87.49H59.3z"/></g><path fill="url(#c)" d="M133.44 152.17c.03-.14.12-.29.12-.43s-.06-.29-.12-.46c.06 0 .09-.03.14-.03-3.15-2.86-7.28-4.59-11.84-4.59-1.47 0-2.92.17-4.3.55.12.09.29.2.2.43-.17.12-.2.12-.52 0-.03.14-.06.29-.12.43-.2 0-.38-.06-.58.06.06.09.12.14.14.17.35.29.61.64.84.98.14.26.14.38-.06.58-.09.12-.17.17-.26.26-.4-.17-.32-.66-.66-.84a.5.5 0 0 0 .03.38c-.09.06-.17.12-.26.14-.09.06-.17.12-.14.2.03.14.14.14.23.12.32-.06.58.03.84.23-.17.12-.38.26-.55.38-.38.26-.75.52-1.16.75-.29.2-.32.17-.58-.06-.03 0-.06-.03-.09-.06 0 .03-.03.06-.03.06.14.26.09.46-.09.66-.17.17-.32.38-.49.52-.12.12-.23.17-.35.26-.12-.09-.23.03-.35.14s-.26.23-.38.35c-.17.17-.23.38-.23.61 0 .17-.03.35-.17.49-.38.32-.49.81-.61 1.27-.06.2-.09.43-.14.66-.17-.03-.2-.14-.26-.23a.56.56 0 0 0-.52-.29c-.09.03-.14 0-.23 0 .2-.32.2-.35-.03-.64-.12-.2-.29-.38-.43-.58-.09-.09-.17-.17-.23-.26-.2-.29-.2-.38.12-.49.09-.03.17-.06.29-.09-.09-.09-.12-.12-.17-.14-.38-.17-.61-.46-.72-.87-.03-.12-.09-.23-.12-.32-.17-.4-.03-.72.26-.98.14-.14.26-.29.29-.49-1.13.98-2.11 2.11-2.98 3.35-.03.06-.06.09-.09.14-.06.09-.12.17-.17.29-.06.06-.12.12-.12.2-.38.55-.69 1.13-.95 1.73.06.17.2.29.38.38.38-.26.49-.66.72-1.07.09.09.14.14.17.23.2.4.38.78.55 1.18.03.03.03.09.03.12-.03.12-.09.2.03.32.17.2.23.49.52.61.09.03.14.06.2.09.12.09.17.2.06.35.23-.06.61.12.66.32.03.06 0 .14-.03.23-.06.12-.06.23 0 .35.09.17.06.32-.06.46-.14.2-.12.26.12.4.2.12.4.23.58.38.17.12.23.29.17.49-.09.23-.2.29-.4.17a.23.23 0 0 0-.12-.06c-.29.38-.38.38-.64.03.09-.03.17-.09.29-.14-.29-.06-.55-.12-.81-.17.03-.46.35-.84.38-1.27 0 0-.03-.03-.06-.03-.12.09-.26.17-.35.29-.23.23-.46.35-.78.2-.03 0-.06 0-.09.03.12.12.2.23.32.38-.2.03-.32-.03-.38-.14-.2-.29-.46-.23-.72-.14-.06.03-.14.06-.26.12.29.14.52.09.78.14v.46c-.23 0-.26.14-.26.29.26.09.46.17.72.26.12-.12.2-.23.35-.4.14.17.2.35.26.55-.06.03-.09.06-.14.09-.43.23-.9.4-1.24.72-.06.03-.12.03-.17.06-.17-.23-.09-.4.12-.61-.49.09-1.18.61-1.3 1.04.09.06.17.09.32.17-.17.06-.29.09-.4.14-.12.03-.2.12-.32.14-.23.06-.38.2-.46.43-.09.17-.17.35-.26.49-.12.2-.14.4 0 .61-.03.06-.06.09-.12.12.09 1.5.4 2.98.87 4.33.09-.03.14-.06.23-.06.12-.03.23 0 .35.06s.23.14.4.29c-.14.03-.23.03-.32.06-.14.03-.29-.03-.38.14 0 .03-.06.03-.09.03.14.46.35.92.55 1.36.17.03.32.03.49.06.06 0 .17.03.2.09.09.17.23.14.35.09.12-.06.23-.09.32 0 .23.23.43.17.66.03.03 0 .06-.03.09-.03h.03c.09.17-.06.29-.14.46.12.12.26.23.38.35.09.09.17.14.26.2.2.14.26.32.23.55-.06.29.09.66.32.87.06-.06.12-.14.2-.26.14.09.29.14.43.23.12-.23.23-.43.38-.69.09.12.14.17.17.26.06.17.12.35.26.49.09.06.09.14 0 .23-.06.06-.12.12-.17.2-.09.06-.14.14-.2.23.32.12.49-.26.78-.14-.06.14-.12.29-.14.43 0 .03.03.03.06.03l.52-.52c.26.06.49.17.52.49.17-.06.17-.03.35.06.09.03.17.06.26.06h.4c.23-.03.4.06.58.23.17.14.38.26.58.38.38.2.43.75.12 1.04-.2.17-.43.32-.55.58-.06.09-.17.14-.26.2-.03.23-.03.46-.06.69 0 .32-.03.64-.09.95 2.54 1.47 5.49 2.28 8.61 2.28 1.59 0 3.15-.2 4.62-.61-.06-.17-.06-.35-.03-.55.03-.14 0-.29-.09-.4-.06-.06-.09-.12-.09-.17-.06-.29-.23-.52-.43-.72-.09-.09-.12-.2-.09-.32.06-.26.09-.55.17-.81 0-.12.09-.23.17-.29.29-.32.32-.35.12-.69-.06-.14-.14-.29-.09-.46 0-.06-.03-.12-.03-.14-.09-.23-.17-.43-.26-.64-.09-.2-.17-.38-.38-.46-.03-.03-.09-.06-.12-.09-.25-.15-.34-.38-.26-.66.09-.26.14-.52.2-.78.03-.09-.03-.2-.06-.23-.14-.12-.29-.23-.49-.17-.17.06-.32 0-.43-.14a.74.74 0 0 0-.52-.32c-.26-.03-.46 0-.66.17-.26.17-.52.26-.81.2-.23-.06-.43 0-.66.06-.75.17-.61.23-1.27-.23-.14-.09-.29-.2-.43-.32-.26-.2-.49-.46-.64-.78-.09-.26-.26-.46-.52-.61-.2-.12-.2-.17-.14-.43.09-.38.17-.75.26-1.16.09-.26.03-.52-.03-.81-.06-.14-.03-.29.06-.43.09-.12.17-.26.23-.38.23-.43.55-.81.98-1.07.12-.09.2-.2.23-.35.12-.4.29-.78.66-1.07.2-.14.35-.4.55-.64.2.12.49.09.75.09.26-.03.46-.09.69-.23.14-.09.35-.14.52-.17.52-.09 1.01-.14 1.53-.2.26-.03.32 0 .61.2-.2.17-.14.35-.06.55.06.12.09.23.12.35.09.23.17.32.4.29.26 0 .43.09.66.23.2.14.46.23.72.32.17.06.29 0 .4-.14.06-.12.14-.23.23-.35s.2-.14.35-.06c.06.03.12.06.17.12.4.29.9.35 1.39.32.06 0 .12 0 .14-.03.17-.17.32-.09.46 0 .26.2.49.17.69-.06.03-.06.06-.12.06-.2 0-.26.09-.52.2-.75.03-.06.03-.09.06-.12 0-.12.06-.26 0-.35-.09-.12-.2 0-.32.06-.14.09-.26.09-.4-.03-.12-.09-.23-.06-.38-.03-.35.12-.69.2-1.01.29-.2-.17-.29-.35-.14-.58.03-.06.03-.17 0-.23-.12-.2-.06-.4.06-.58.03-.06.06-.12.09-.2-.29.06-.52.09-.55.46-.14-.12-.29-.17-.49-.32 0 .2 0 .32.03.43.06.2-.03.35-.17.46-.2-.12-.35-.23-.4-.46s-.14-.43-.23-.64c-.09-.14-.2-.29-.32-.4-.03-.06-.12-.09-.17-.12-.4-.23-.81-.49-1.04-.92l-.09-.09c-.23.2-.2.2-.09.43.17.32.43.52.72.69.2.12.38.26.55.38.14.09.2.2.12.4-.09-.06-.2-.09-.35-.17.06.14.09.23.14.35-.14.2-.32.38-.58.43 0 .09-.03.14-.06.23-.26 0-.43-.12-.66-.26.26-.12.46-.2.69-.09.03 0 .06-.03.06-.03.1-.27.03-.49-.2-.66-.06-.03-.09-.06-.12-.09-.4-.23-.78-.55-1.04-.98-.03-.06-.12-.14-.17-.23-.2.06-.32.17-.43.29-.17.17-.38.29-.64.09-.03-.03-.09-.03-.12-.06-.17-.03-.32.09-.29.26.03.06.06.12.09.17-.17.14-.35.32-.52.43-.2.14-.32.29-.32.52-.06.35-.35.64-.69.66-.23.03-.43.09-.64.17-.09-.03-.14-.09-.2-.12-.12-.06-.23-.14-.38-.17-.2-.06-.32-.14-.38-.38-.09-.26-.17-.52 0-.81.09-.14.09-.32.03-.49-.12-.29.03-.43.35-.43.38.03.75.06 1.1.06.14 0 .32.06.4-.09.06-.17.12-.38.12-.55a.92.92 0 0 0-.35-.64c-.2-.14-.35-.32-.55-.49.23-.23.43.03.66 0 0-.09-.03-.2-.03-.32.09 0 .17-.03.26-.03.29-.03.52-.09.69-.38.09-.17.26-.32.38-.46.14-.2.26-.38.35-.58.12-.17.17-.4.35-.58 0 .14.03.23.03.35.32-.17.35-.43.38-.72v-.06c-.06-.58.06-.69.55-.98.14.14.14.4.35.52.09-.06.14-.09.12-.2-.09-.29-.17-.58-.26-.87 0-.03-.03-.03-.06-.12-.09.06-.17.12-.23.17-.12.09-.2.2-.32.29-.2.14-.38.12-.55-.09-.12-.14-.23-.32-.35-.49-.06-.09-.09-.17-.03-.32.03-.03 0-.12-.03-.17a.63.63 0 0 1 .03-.52c.26-.66.66-1.21 1.27-1.59.06-.03.09-.09.12-.12s.03-.12.06-.12c.26-.12.23-.38.23-.58.06-.29.17-.49.35-.69.14-.17.26-.35.4-.55.06-.09.09-.17-.06-.26-.14.12-.4.12-.38.4-.17-.09-.2-.17-.12-.29.06-.09.12-.14.17-.2.09-.09.17-.2.23-.32.14-.2.32-.38.58-.49.17-.06.38-.23.49-.4.12-.26.29-.35.55-.29.09.03.17 0 .23-.06.35-.32.75-.38 1.18-.35.12 0 .23.03.35.03.29-.03.61.12.84.38-.09.09-.17.14-.23.23-.03.06-.03.14 0 .2.03.03.12.06.17.03.43-.2.81.09 1.16.26.4.17.75.46 1.01.87.03.09.14.14.23.2.17.14.2.23.14.43-.06.23-.2.4-.43.55-.12.09-.26.14-.43.06-.29-.09-.58-.17-.87-.26-.09-.03-.17-.03-.26-.06.03.32.26.35.46.4 0 .03.03.09 0 .12-.14.14-.06.32-.03.49.03.2.14.29.29.4.09.03.14.14.26.23.06-.09.12-.17.17-.26-.17-.12-.32-.17-.4-.29-.03-.06.03-.2.03-.32.32.12.55.26.69.55.23-.23.26-.29.03-.61.17-.14.35-.29.49-.46.12-.14.23-.35.38-.52.12.2 0 .46.23.58.23-.23.2-.38-.09-.72Zm-14.07 1.42c-.2.17-.38.35-.55.49-.4.35-.84.38-1.3.2-.12-.06-.23-.06-.35-.09.03-.14.09-.23.14-.38-.2-.03-.38-.06-.58-.09.06-.17.26-.14.38-.26-.12-.06-.23-.09-.35-.14.09-.32.23-.58.55-.75.09.14.09.32.29.38.23.06.4.06.61-.03.14-.06.26-.12.38-.2.14-.06.26-.06.38.06.14.14.29.29.43.46.09.12.06.23-.03.35m5.55 9.82c-.03-.09-.03-.17 0-.23 0-.03.06-.09.12-.09.03 0 .09.06.12.09 0 0 .03.03 0 .06-.09.4.14.78.03 1.18-.23.06-.29.03-.35-.17 0-.14-.06-.29-.09-.46.06-.03.14-.09.23-.14-.03-.09-.06-.14-.06-.23Zm-1.59.78.32-.32c.09.06.17.14.26.2-.2.12-.32.26-.52.23-.09 0-.17.12-.29.2-.03-.23.14-.26.23-.32Zm-2.34-4.39-.09.09c-.38.23-.46.23-.75-.14.27-.13.32-.35.14-.64 0-.03-.03-.06-.06-.12.26-.23.58-.32.84-.49.17.12.24.26.2.43-.03.17-.06.32-.06.49-.03.17-.09.29-.23.38Zm2.16-.09c-.12.14-.2.29-.12.49 0 .03-.06.09-.09.12a.5.5 0 0 1-.2.06c-.4.06-.81.12-1.18.17-.09 0-.2-.03-.32-.03.12-.26.38-.29.55-.49-.09-.06-.17-.12-.23-.14.12-.38.17-.72.49-.95-.03-.03-.03-.06-.06-.06-.14-.03-.26-.03-.43-.06.03-.12.06-.2.06-.29-.09-.23-.46-.12-.49-.43.06-.03.09-.09.14-.12l-.35-.26c.09-.12.14-.17.23-.29-.06-.09-.14-.17-.2-.26.03 0 .06-.06.09-.06.2 0 .4-.09.61-.2.12-.06.23-.03.32.09-.03.09-.09.17-.14.26.14.09.29.12.43.17.17.12.2.2.03.32-.09.09-.17.12-.29.2.23.38.49.69.81.95.23.17.29.4.35.66v.14Zm11.04-7.89h-.03l-.09.09c-.06.06-.12.09-.2.14.03.06.06.09.09.12.2.23.38.23.52-.03-.09-.12-.17-.2-.29-.32m4.33 16.58c-.43.09-.84.03-1.27-.03-.12 0-.23-.06-.32-.17-.09-.12-.2-.2-.32-.35-.23.26-.4.14-.61 0-.35-.26-.69-.46-1.01-.69-.12-.09-.2-.17-.38-.09.03.09.03.17.09.23.09.17.2.35.32.52.09.14.2.29.46.26v.32c0 .2.09.26.29.2.32-.03.58-.2.72-.46.17.03.26.12.26.23.03.17.12.23.26.29.17.09.38.2.58.35-.09.23-.17.46-.26.69-.12 0-.23 0-.35.03.03.09.06.17.12.29-.2.14-.4.29-.64.4-.58.32-1.18.64-1.79.92-.23.12-.46.17-.72.2-.26.06-.26.03-.38-.2-.03-.06-.06-.14-.09-.2-.14-.38-.32-.69-.64-.95-.09-.06-.17-.17-.23-.23a.54.54 0 0 1-.14-.46c.03-.23-.06-.43-.2-.66-.32-.43-.61-.9-.75-1.44-.03-.09-.09-.14-.14-.23-.03.12-.06.2-.09.38-.12-.09-.2-.14-.29-.26v.12c.38.66.64 1.36.9 2.02.06.14.09.26.12.38.12.35.29.61.64.72.14.06.29.14.23.38-.03.03 0 .06.03.12.12.23.26.49.38.72.17.29.23.35.58.29.35-.09.72-.14 1.07-.2.29-.03.4-.03.61.06-.17.49-.29 1.01-.58 1.44-.09.14-.23.26-.38.38-.61.52-1.16 1.1-1.7 1.68-.23.26-.35.52-.29.84.03.09.03.17.03.26-.12.29-.03.52.12.75.12.14.14.32.12.52 0 .06-.03.12-.03.17 2.92-2.4 5.08-5.72 6.01-9.5-.09-.06-.2-.03-.32 0Z"/><circle cx="121.74" cy="164.25" r="17.59" fill="none"/><path d="M125.84 167.41c-.72 0-1.31-.58-1.31-1.31s.58-1.31 1.31-1.31 1.31.58 1.31 1.31-.58 1.31-1.31 1.31m0-.35c.52 0 .95-.43.95-.95s-.43-.95-.95-.95-.95.43-.95.95.43.95.95.95m109.69-6.62-1.47 2.21.73-3.19 1.22-.25-.49 1.23Zm-2.94-3.68c-1.36 1.18-3.61 1.87-3.89 1.95-.02-.02-.03 0-.03 0h.03c.04.05.13.37.22 1.97.12 2.3-.64 4.39-2.42 5.84-1.74 1.42-4.69.29-4.69.29l-1.71-.98s-.6-.76.24-.49c6.27 2.04 7.59-5.15 7.59-5.15l-1.22-1.23.24-1.47s1.53-.36 2.94-.98c1.64-.72 3.18-1.72 3.18-1.72l-.49 1.96Zm25.1-.87c-.48-.69-.93-1.04-1.35-1.04q-.975 0-2.37 2.04c1.37 1.18 2.43 1.77 3.17 1.77.32 0 .58-.11.79-.32.21-.22.31-.51.31-.87 0-.54-.18-1.06-.54-1.58m.95 4.31c-.48.45-.92.68-1.34.68-1.04 0-2.54-.76-4.47-2.29-1.04 1.36-2.11 2.05-3.23 2.05h-.19c-.42 0-.62-.29-.62-.88v-.28c0-.59.21-.89.62-.89h.18c.6 0 1.29-.52 2.08-1.56.92-1.21 1.66-2.16 2.2-2.83.78-.97 1.6-1.46 2.48-1.46s1.55.36 2.1 1.09c.88 1.15 1.32 2.31 1.32 3.5s-.37 2.13-1.12 2.86m-13.33-5.56c-.34-.29-.83-.43-1.46-.43-1.79 0-3.88 1.46-6.29 4.38h2.74c2.54 0 4.14-.26 4.81-.77.56-.43.84-1 .84-1.69 0-.62-.2-1.11-.64-1.48m4.22 6h-.57c-1.54 0-2.82-.27-3.84-.8-1.14.53-2.8.8-4.97.8h-2.77c-1.94 0-3.29-.49-4.04-1.47l-.91-2.33.26-2.23h1.31l.27 2.24c.12 1.04.65 1.62 1.58 1.73 2.68-4.26 5.39-6.39 8.14-6.39.87 0 1.6.2 2.2.59 1.05.7 1.58 1.73 1.58 3.09 0 1.14-.33 2.05-.99 2.72h2.75c.18 0 .27.29.27.89v.28c0 .58-.09.88-.27.88m-32.79-13.81c-.11.1-.22.09-.33-.01l-1.32-1.32c-.11-.11-.11-.21 0-.32l1.35-1.35c.09-.08.18-.08.26 0l1.41 1.41q.09.105-.03.24zm1.44 5.04c-.36-.49-.82-.73-1.36-.73-.87 0-1.44.53-1.7 1.58a2.6 2.6 0 0 0-.08.59c0 .46.28.77.84.92.3.08.62.11.98.11.8 0 1.45-.1 1.98-.31-.08-.98-.29-1.7-.65-2.17m1.74 6.37c-.82 1.59-2.71 2.39-5.67 2.39h-2.99c-2.57 0-4.5-.37-5.8-1.1q-2.28-1.29-2.28-4.05c0-1.29.27-2.47.81-3.55l1.15.4q-.36 1.35-.36 2.37c0 .76.15 1.37.47 1.84.92 1.39 2.94 2.07 6.05 2.06 1.12 0 2.09 0 2.92-.01 3.1 0 4.64-.78 4.62-2.35v-.09c-.78.17-1.42.25-1.93.25-.9 0-1.54-.07-1.91-.22-.97-.41-1.45-1.14-1.45-2.21 0-.85.13-1.63.4-2.33.67-1.75 1.65-2.63 2.96-2.63.88 0 1.58.33 2.1.98.98 1.23 1.47 2.95 1.46 5.15 0 1.37-.18 2.41-.55 3.11m-35.11-10.06-.49-1.96-.24-.74.98-.74 1.22 2.7zm-7.35 1.23-1.47-2.21.49-1.23 2.2 1.96-1.22 1.47Zm-26.01-1.2-1.27 1.35c-.11.1-.21.09-.31-.01l-1.25-1.31c-.1-.11-.1-.21 0-.32l1.28-1.35c.09-.08.17-.08.25 0l1.33 1.4q.09.105-.03.24m38.87 11.7c-.26.6-.72.9-1.4.91-.07-7.82-.27-12.89-.6-15.2l1.56-.99c.18-.11.28 0 .3.32.16 2.68.24 5.2.25 7.54 0 4.8-.04 7.28-.11 7.42m-15.73-15.55c.34-.16.69-.32 1.03-.48-.76-.17-1.14-.66-1.14-1.48 0-.12 0-.25.02-.4.21-1.6.92-2.4 2.15-2.4.01 0 .03 0 .03.01.54 0 1.07.27 1.61.82l-.38.92c-.47-.15-.87-.23-1.21-.23-.51 0-.88.17-1.13.5-.11.17-.13.36-.04.58.22.54.66.8 1.33.8.31 0 .66-.05 1.05-.16s.59-.1.59.03v1.21c-.83.23-2.21.83-4.15 1.8l.23-1.53Zm9.02 14.62c-1.3 1.31-3.6 1.97-6.91 1.98h-.03c-.58-.82-.9-1.32-.96-1.51-.06-.17-.05-.26.03-.26 2.32-.16 3.95-.41 4.9-.76-1.07-3.75-2.86-7.42-5.38-11.01l1.63-1.29c2 3.36 3.67 7.25 5.02 11.67 1.19-.7 1.84-1.6 1.94-2.69.11-1.2-.07-4.35-.57-9.46l1.46-.95c.28-.18.42-.11.43.22l.26 8.45q.105 3.63-1.83 5.61m-12.48-3.05c-.45-.69-.88-1.03-1.28-1.03-.62 0-1.36.68-2.24 2.03 1.3 1.18 2.29 1.77 3 1.77.3 0 .55-.11.75-.32.2-.22.29-.5.29-.87 0-.54-.17-1.06-.52-1.57m.91 4.28c-.45.45-.87.68-1.27.68q-1.485 0-4.23-2.28c-.98 1.36-2 2.04-3.05 2.04h-.18c-.39 0-.59-.29-.59-.87v-.28c0-.59.2-.88.59-.88h.17c.57 0 1.22-.52 1.97-1.55.87-1.21 1.57-2.15 2.08-2.82.74-.97 1.52-1.45 2.34-1.45s1.46.36 1.99 1.09c.83 1.14 1.25 2.3 1.25 3.49s-.35 2.13-1.06 2.84m-8.64.43h-.37q-3.42 0-3.6-3.96c-.04-.87-.07-2.44-.09-4.7a76 76 0 0 0-.32-6.39l1.42-.99c.19-.14.3-.03.32.33.14 1.83.19 4.9.16 9.23q-.015 3.15.48 3.84c.29.4.84.6 1.68.6h.31c.17 0 .26.29.26.88v.28c0 .58-.09.87-.26.87m-6.98.5c-.88 2.69-3.04 4.03-6.49 4.03-1.53 0-2.81-.35-3.86-1.04-1.43-.95-2.15-2.51-2.15-4.67 0-1.54.35-3.13 1.05-4.76l1.18.37c-.41 1.41-.61 2.69-.61 3.84 0 2.81 1.49 4.21 4.46 4.21 2.24 0 3.8-.74 4.67-2.21.27-.45.41-1 .41-1.67 0-.85-.93-3.87-1.81-5.62l1.03-1.67c.06-.09.13-.14.19-.14.08 0 .2.15.35.46.93 1.85 1.89 5.25 1.89 6.77 0 .73-.11 1.42-.32 2.07m104.22 21.02c-.43-.03-.9-.05-1.42-.07-.51-.02-.96-.03-1.33-.03s-.8 0-1.23.03c-.43.02-.88.05-1.35.07-.03-.14-.04-.25-.04-.33 0-.21.08-.32.23-.33.62-.04.94-.22.94-.54q0-.21-.21-.42l-4.85-5.2v5.27c0 .28.09.47.26.58s.5.22.97.31c.07.01.12.04.17.08.04.04.06.12.06.23 0 .1-.01.22-.04.35-.44-.03-.87-.05-1.27-.07s-.78-.03-1.12-.03-.77 0-1.22.03c-.45.02-.88.05-1.3.07-.03-.14-.04-.25-.04-.33q0-.285.21-.33c.53-.11.89-.22 1.08-.32s.29-.29.29-.57V170c0-.28-.1-.48-.29-.59-.19-.12-.56-.22-1.08-.3-.14-.01-.21-.13-.21-.35 0-.08.01-.19.04-.33a42 42 0 0 0 2.5.1c.35 0 .76 0 1.21-.03.44-.02.89-.04 1.33-.07.03.14.04.25.04.33 0 .21-.07.33-.21.35q-.795.12-1.08.3c-.19.12-.29.32-.29.59v5.04l4.83-4.79c.08-.08.16-.18.22-.28s.09-.21.09-.32c0-.15-.08-.27-.24-.34q-.24-.12-.63-.18c-.14-.01-.21-.14-.21-.37 0-.08.01-.19.04-.33.4.03.8.05 1.21.07.4.02.77.03 1.1.03.31 0 .63 0 .97-.03.34-.02.65-.04.93-.07.03.14.04.25.04.33 0 .22-.08.35-.23.4-.31.06-.59.14-.85.25s-.52.28-.77.52l-4.68 4.62 5.68 6.12c.24.25.47.43.71.54s.52.19.85.25c.17.01.25.13.25.35 0 .1-.01.22-.04.35m-14.45-13.07c-.47.07-.79.17-.97.29-.17.13-.26.33-.26.6v12.26s-.08.02-.15.03c-.07 0-.13.01-.17.01-.1 0-.19-.02-.27-.07s-.18-.15-.29-.3l-8.45-11.14v9.8c0 .28.1.47.29.58s.57.22 1.12.31q.21.045.21.33c0 .08-.01.19-.04.33-.35-.03-.7-.05-1.05-.07a17 17 0 0 0-.99-.03c-.28 0-.6 0-.98.03-.37.02-.72.05-1.02.07-.03-.14-.04-.25-.04-.33 0-.19.08-.3.23-.33.5-.1.84-.2 1.01-.31s.26-.3.26-.58v-10.7a.6.6 0 0 0-.24-.51c-.16-.12-.49-.21-.99-.28-.15-.03-.23-.15-.23-.35 0-.07 0-.13.02-.19 0-.04 0-.09.02-.15.28.03.54.05.79.06l.71.03h.67c.4 0 .67.01.8.04s.24.1.32.21l7.47 9.97V170c0-.3-.11-.52-.33-.65-.22-.12-.6-.22-1.12-.29-.15-.01-.23-.13-.23-.35 0-.08.01-.19.04-.33.35.03.7.05 1.06.07q.54.03 1.02.03c.48 0 .62 0 .96-.03.33-.02.66-.04.98-.07.03.14.04.25.04.33 0 .22-.07.34-.21.35m-21.14 2.07-2.02 5.1h3.96zm7.5 11.01c-.44-.03-.88-.05-1.31-.07s-.83-.03-1.21-.03-.83 0-1.33.03c-.5.02-.95.05-1.35.07-.03-.14-.04-.25-.04-.33 0-.12.02-.21.07-.26s.09-.07.14-.07q.54-.105.87-.24c.22-.09.33-.22.33-.41 0-.08-.03-.19-.08-.31l-1.31-3.43h-4.64l-1.33 3.35c-.07.17-.1.31-.1.42 0 .29.42.5 1.27.62.1.01.16.05.2.11.03.06.05.14.05.22s-.01.19-.04.33a37 37 0 0 0-2.42-.1c-.28 0-.56 0-.85.02-.29.01-.6.04-.92.08-.03-.11-.04-.22-.04-.33 0-.1.02-.18.05-.25s.11-.11.22-.13c.43-.07.75-.16.97-.26s.37-.27.47-.49l5.02-12.07c.1-.24.23-.35.4-.35.06 0 .14.01.25.04l5.04 12.45c.08.19.27.35.56.46s.58.19.85.23c.08.03.15.07.2.11.05.05.07.14.07.26 0 .08-.01.19-.04.33m-16.67-5.97c-.69-.51-1.63-.77-2.82-.77H212v5.04c0 .15.05.28.15.37.1.1.22.17.36.23.15.06.3.09.47.11q.255.03.48.03.795 0 1.44-.12c.43-.08.8-.23 1.1-.44.31-.21.54-.49.71-.84s.25-.8.25-1.34c0-1-.34-1.75-1.03-2.27m-.18-4.31c0-.85-.27-1.47-.8-1.88s-1.41-.61-2.63-.61h-.31v5.18h.31c1.22 0 2.1-.22 2.63-.65s.8-1.11.8-2.04m3.02 7.91c-.23.49-.56.89-.98 1.23-.42.33-.93.59-1.53.77q-.9.27-1.98.27h-3.29c-.24 0-.5 0-.8.02-.3.01-.58.03-.84.04-.31.01-.62.03-.94.04a.4.4 0 0 1-.02-.13c-.01-.03-.02-.06-.02-.1v-.1c0-.19.08-.3.23-.33.54-.11.92-.22 1.12-.32.21-.1.31-.29.31-.57V170c0-.14-.02-.25-.07-.34a.6.6 0 0 0-.24-.23c-.11-.06-.26-.12-.44-.17s-.41-.1-.69-.16c-.15-.03-.23-.16-.23-.4 0-.07 0-.13.02-.17 0-.04 0-.08.02-.13a46 46 0 0 0 2.56.1h2.56c.78 0 1.44.09 1.99.26s1 .41 1.34.72c.35.31.6.66.76 1.05.16.4.24.81.24 1.24 0 .32-.06.63-.19.94s-.29.59-.51.85-.48.5-.78.71-.65.37-1.02.48v.06c.44.06.89.16 1.33.3.44.15.85.35 1.21.61q.54.39.87.99c.22.4.33.86.33 1.4 0 .61-.11 1.16-.34 1.64m-15.95-10.66c-.47.07-.8.17-.97.29-.17.13-.26.33-.26.6v12.26s-.08.02-.15.03c-.07 0-.12.01-.17.01-.1 0-.19-.02-.27-.07s-.18-.15-.29-.3l-8.45-11.14v9.8c0 .28.1.47.29.58s.57.22 1.12.31q.21.045.21.33c0 .08-.01.19-.04.33-.35-.03-.7-.05-1.05-.07a17 17 0 0 0-.99-.03c-.28 0-.6 0-.98.03-.37.02-.72.05-1.02.07-.03-.14-.04-.25-.04-.33 0-.19.08-.3.23-.33.5-.1.84-.2 1.01-.31s.26-.3.26-.58v-10.7a.6.6 0 0 0-.24-.51c-.16-.12-.49-.21-.99-.28-.15-.03-.23-.15-.23-.35 0-.07 0-.13.02-.19 0-.04 0-.09.02-.15.28.03.54.05.79.06l.71.03h.67c.4 0 .67.01.8.04s.24.1.32.21l7.47 9.97V170c0-.3-.11-.52-.33-.65-.22-.12-.6-.22-1.12-.29-.15-.01-.23-.13-.23-.35 0-.08.01-.19.04-.33.35.03.7.05 1.06.07q.54.03 1.02.03c.48 0 .62 0 .96-.03.33-.02.66-.04.98-.07.03.14.04.25.04.33 0 .22-.07.34-.21.35m-21.15 2.07-2.02 5.1h3.96zm7.5 11.01c-.44-.03-.88-.05-1.31-.07s-.83-.03-1.21-.03-.83 0-1.33.03c-.5.02-.95.05-1.35.07-.03-.14-.04-.25-.04-.33 0-.12.02-.21.07-.26s.09-.07.14-.07q.54-.105.87-.24c.22-.09.33-.22.33-.41 0-.08-.03-.19-.08-.31l-1.31-3.43h-4.64l-1.33 3.35c-.07.17-.1.31-.1.42 0 .29.42.5 1.27.62.1.01.16.05.2.11s.05.14.05.22-.01.19-.04.33a37 37 0 0 0-2.42-.1c-.28 0-.56 0-.85.02-.29.01-.6.04-.92.08-.03-.11-.04-.22-.04-.33 0-.1.02-.18.05-.25s.11-.11.22-.13c.43-.07.75-.16.97-.26s.37-.27.47-.49l5.02-12.07c.1-.24.23-.35.4-.35.06 0 .14.01.25.04l5.04 12.45c.08.19.27.35.56.46s.58.19.85.23c.08.03.15.07.2.11.05.05.07.14.07.26 0 .08-.01.19-.04.33m-14.76 0c-.49-.03-.93-.05-1.32-.07-.4-.02-.76-.03-1.09-.03h-.52c-.21 0-.43.01-.66.02-.23 0-.45.02-.68.03s-.42.03-.58.04c-.03-.14-.04-.25-.04-.33q0-.33.21-.33c.55-.11.93-.22 1.13-.33s.3-.3.3-.56c0-.04-.01-.3-.03-.77s-.05-1.05-.08-1.73-.07-1.42-.1-2.21c-.04-.79-.07-1.54-.1-2.24-.04-.7-.07-1.3-.09-1.81-.03-.51-.04-.82-.04-.93l-4.56 11.01c-.06.13-.11.22-.16.28s-.11.09-.2.09c-.1 0-.16 0-.19-.02l-5.1-11.7c-.01.14-.03.48-.05 1.01s-.05 1.17-.08 1.9c-.03.74-.07 1.51-.11 2.33s-.08 1.57-.11 2.27c-.04.69-.06 1.28-.08 1.75q-.03.705-.03.75c0 .43.47.73 1.42.89.14.01.21.13.21.33 0 .08-.01.19-.04.33-.37-.03-.74-.05-1.1-.07q-.54-.03-.96-.03c-.22 0-.52 0-.9.03-.37.02-.73.05-1.06.07-.03-.14-.04-.25-.04-.33q0-.285.21-.33c.37-.07.68-.17.91-.3s.36-.33.38-.59c0-.13.01-.48.04-1.05.03-.58.06-1.26.09-2.05s.07-1.63.11-2.52.08-1.71.11-2.47.06-1.38.08-1.87l.03-.76c0-.22-.09-.38-.26-.49-.17-.1-.5-.2-.99-.28-.14-.01-.21-.13-.21-.35 0-.08.01-.19.04-.33.18.01.38.03.61.04l.69.03c.23 0 .45.01.66.02h.5c.25 0 .44.01.58.03s.25.04.33.07.14.07.18.13c.03.06.07.11.09.17l4.45 10.39 4.23-10.39c.03-.06.06-.11.09-.17s.09-.1.18-.13c.08-.03.19-.05.33-.07s.33-.03.58-.03h.44c.18 0 .37-.01.58-.02.21 0 .42-.02.64-.03s.41-.03.59-.04c.03.14.04.25.04.33 0 .22-.07.34-.21.35-.5.07-.83.16-1 .28s-.25.27-.25.47c0 .01 0 .2.03.55q.03.525.09 1.77c.04.83.09 1.93.16 3.3.06 1.37.14 3.08.22 5.12.01.26.1.46.27.58s.51.23 1.02.31c.07.01.12.05.16.11s.05.14.05.22-.01.19-.04.33m-24.96-10.98-2.02 5.1h3.96zm7.49 11.01c-.44-.03-.88-.05-1.31-.07s-.83-.03-1.21-.03-.83 0-1.33.03c-.5.02-.95.05-1.35.07-.03-.14-.04-.25-.04-.33 0-.12.02-.21.07-.26s.09-.07.14-.07q.54-.105.87-.24c.22-.09.33-.22.33-.41 0-.08-.03-.19-.08-.31l-1.31-3.43h-4.64l-1.33 3.35c-.07.17-.1.31-.1.42 0 .29.42.5 1.27.62.1.01.16.05.2.11.03.06.05.14.05.22s-.01.19-.04.33a37 37 0 0 0-2.42-.1c-.28 0-.56 0-.85.02-.29.01-.6.04-.92.08-.03-.11-.04-.22-.04-.33 0-.1.02-.18.05-.25s.11-.11.22-.13c.43-.07.75-.16.97-.26.21-.1.37-.27.47-.49l5.02-12.07c.1-.24.23-.35.4-.35.06 0 .14.01.25.04l5.04 12.45c.08.19.27.35.56.46s.58.19.85.23c.08.03.15.07.2.11.05.05.07.14.07.26 0 .08-.01.19-.04.33"/><path fill="none" stroke="#0c1700" stroke-miterlimit="10" stroke-width=".05" d="M260.65 182.14c-.43-.03-.9-.05-1.42-.07-.51-.02-.96-.03-1.33-.03s-.8 0-1.23.03c-.43.02-.88.05-1.35.07-.03-.14-.04-.25-.04-.33 0-.21.08-.32.23-.33.62-.04.94-.22.94-.54q0-.21-.21-.42l-4.85-5.2v5.27c0 .28.09.47.26.58s.5.22.97.31c.07.01.12.04.17.08.04.04.06.12.06.23 0 .1-.01.22-.04.35-.44-.03-.87-.05-1.27-.07s-.78-.03-1.12-.03-.77 0-1.22.03c-.45.02-.88.05-1.3.07-.03-.14-.04-.25-.04-.33q0-.285.21-.33c.53-.11.89-.22 1.08-.32s.29-.29.29-.57V170c0-.28-.1-.48-.29-.59-.19-.12-.56-.22-1.08-.3-.14-.01-.21-.13-.21-.35 0-.08.01-.19.04-.33a42 42 0 0 0 2.5.1c.35 0 .76 0 1.21-.03.44-.02.89-.04 1.33-.07.03.14.04.25.04.33 0 .21-.07.33-.21.35q-.795.12-1.08.3c-.19.12-.29.32-.29.59v5.04l4.83-4.79c.08-.08.16-.18.22-.28s.09-.21.09-.32c0-.15-.08-.27-.24-.34q-.24-.12-.63-.18c-.14-.01-.21-.14-.21-.37 0-.08.01-.19.04-.33.4.03.8.05 1.21.07.4.02.77.03 1.1.03.31 0 .63 0 .97-.03.34-.02.65-.04.93-.07.03.14.04.25.04.33 0 .22-.08.35-.23.4-.31.06-.59.14-.85.25s-.52.28-.77.52l-4.68 4.62 5.68 6.12c.24.25.47.43.71.54s.52.19.85.25c.17.01.25.13.25.35 0 .1-.01.22-.04.35Zm-14.43-13.05c-.47.07-.79.17-.97.29-.17.13-.26.33-.26.6v12.26s-.08.02-.15.03c-.07 0-.13.01-.17.01-.1 0-.19-.02-.27-.07s-.18-.15-.29-.3l-8.45-11.14v9.8c0 .28.1.47.29.58s.57.22 1.12.31q.21.045.21.33c0 .08-.01.19-.04.33-.35-.03-.7-.05-1.05-.07a17 17 0 0 0-.99-.03c-.28 0-.6 0-.98.03-.37.02-.72.05-1.02.07-.03-.14-.04-.25-.04-.33 0-.19.08-.3.23-.33.5-.1.84-.2 1.01-.31s.26-.3.26-.58v-10.7a.6.6 0 0 0-.24-.51c-.16-.12-.49-.21-.99-.28-.15-.03-.23-.15-.23-.35 0-.07 0-.13.02-.19 0-.04 0-.09.02-.15.28.03.54.05.79.06l.71.03h.67c.4 0 .67.01.8.04s.24.1.32.21l7.47 9.97V170c0-.3-.11-.52-.33-.65-.22-.12-.6-.22-1.12-.29-.15-.01-.23-.13-.23-.35 0-.08.01-.19.04-.33.35.03.7.05 1.06.07q.54.03 1.02.03c.48 0 .62 0 .96-.03.33-.02.66-.04.98-.07.03.14.04.25.04.33 0 .22-.07.34-.21.35Zm-21.15 2.04-2.02 5.1h3.96zm7.5 11.01c-.44-.03-.88-.05-1.31-.07s-.83-.03-1.21-.03-.83 0-1.33.03c-.5.02-.95.05-1.35.07-.03-.14-.04-.25-.04-.33 0-.12.02-.21.07-.26s.09-.07.14-.07q.54-.105.87-.24c.22-.09.33-.22.33-.41 0-.08-.03-.19-.08-.31l-1.31-3.43h-4.64l-1.33 3.35c-.07.17-.1.31-.1.42 0 .29.42.5 1.27.62.1.01.16.05.2.11.03.06.05.14.05.22s-.01.19-.04.33a37 37 0 0 0-2.42-.1c-.28 0-.56 0-.85.02-.29.01-.6.04-.92.08-.03-.11-.04-.22-.04-.33 0-.1.02-.18.05-.25s.11-.11.22-.13c.43-.07.75-.16.97-.26s.37-.27.47-.49l5.02-12.07c.1-.24.23-.35.4-.35.06 0 .14.01.25.04l5.04 12.45c.08.19.27.35.56.46s.58.19.85.23c.08.03.15.07.2.11.05.05.07.14.07.26 0 .08-.01.19-.04.33Zm-16.65-5.97c-.69-.51-1.63-.77-2.82-.77H212v5.04c0 .15.05.28.15.37.1.1.22.17.36.23.15.06.3.09.47.11q.255.03.48.03.795 0 1.44-.12c.43-.08.8-.23 1.1-.44.31-.21.54-.49.71-.84s.25-.8.25-1.34c0-1-.34-1.75-1.03-2.27Zm-.17-4.31c0-.85-.27-1.47-.8-1.88s-1.41-.61-2.63-.61h-.31v5.18h.31c1.22 0 2.1-.22 2.63-.65s.8-1.11.8-2.04Zm3.02 7.91c-.23.49-.56.89-.98 1.23-.42.33-.93.59-1.53.77q-.9.27-1.98.27h-3.29c-.24 0-.5 0-.8.02-.3.01-.58.03-.84.04-.31.01-.62.03-.94.04a.4.4 0 0 1-.02-.13c-.01-.03-.02-.06-.02-.1v-.1c0-.19.08-.3.23-.33.54-.11.92-.22 1.12-.32.21-.1.31-.29.31-.57V170c0-.14-.02-.25-.07-.34a.6.6 0 0 0-.24-.23c-.11-.06-.26-.12-.44-.17s-.41-.1-.69-.16c-.15-.03-.23-.16-.23-.4 0-.07 0-.13.02-.17 0-.04 0-.08.02-.13a46 46 0 0 0 2.56.1h2.56c.78 0 1.44.09 1.99.26s1 .41 1.34.72c.35.31.6.66.76 1.05.16.4.24.81.24 1.24 0 .32-.06.63-.19.94s-.29.59-.51.85-.48.5-.78.71-.65.37-1.02.48v.06c.44.06.89.16 1.33.3.44.15.85.35 1.21.61q.54.39.87.99c.22.4.33.86.33 1.4 0 .61-.11 1.16-.34 1.64Zm-15.97-10.68c-.47.07-.8.17-.97.29-.17.13-.26.33-.26.6v12.26s-.08.02-.15.03c-.07 0-.12.01-.17.01-.1 0-.19-.02-.27-.07s-.18-.15-.29-.3l-8.45-11.14v9.8c0 .28.1.47.29.58s.57.22 1.12.31q.21.045.21.33c0 .08-.01.19-.04.33-.35-.03-.7-.05-1.05-.07a17 17 0 0 0-.99-.03c-.28 0-.6 0-.98.03-.37.02-.72.05-1.02.07-.03-.14-.04-.25-.04-.33 0-.19.08-.3.23-.33.5-.1.84-.2 1.01-.31s.26-.3.26-.58v-10.7a.6.6 0 0 0-.24-.51c-.16-.12-.49-.21-.99-.28-.15-.03-.23-.15-.23-.35 0-.07 0-.13.02-.19 0-.04 0-.09.02-.15.28.03.54.05.79.06l.71.03h.67c.4 0 .67.01.8.04s.24.1.32.21l7.47 9.97V170c0-.3-.11-.52-.33-.65-.22-.12-.6-.22-1.12-.29-.15-.01-.23-.13-.23-.35 0-.08.01-.19.04-.33.35.03.7.05 1.06.07q.54.03 1.02.03c.48 0 .62 0 .96-.03.33-.02.66-.04.98-.07.03.14.04.25.04.33 0 .22-.07.34-.21.35Zm-21.16 2.04-2.02 5.1h3.96zm7.5 11.01c-.44-.03-.88-.05-1.31-.07s-.83-.03-1.21-.03-.83 0-1.33.03c-.5.02-.95.05-1.35.07-.03-.14-.04-.25-.04-.33 0-.12.02-.21.07-.26s.09-.07.14-.07q.54-.105.87-.24c.22-.09.33-.22.33-.41 0-.08-.03-.19-.08-.31l-1.31-3.43h-4.64l-1.33 3.35c-.07.17-.1.31-.1.42 0 .29.42.5 1.27.62.1.01.16.05.2.11s.05.14.05.22-.01.19-.04.33a37 37 0 0 0-2.42-.1c-.28 0-.56 0-.85.02-.29.01-.6.04-.92.08-.03-.11-.04-.22-.04-.33 0-.1.02-.18.05-.25s.11-.11.22-.13c.43-.07.75-.16.97-.26s.37-.27.47-.49l5.02-12.07c.1-.24.23-.35.4-.35.06 0 .14.01.25.04l5.04 12.45c.08.19.27.35.56.46s.58.19.85.23c.08.03.15.07.2.11.05.05.07.14.07.26 0 .08-.01.19-.04.33Zm-14.74 0c-.49-.03-.93-.05-1.32-.07-.4-.02-.76-.03-1.09-.03h-.52c-.21 0-.43.01-.66.02-.23 0-.45.02-.68.03s-.42.03-.58.04c-.03-.14-.04-.25-.04-.33q0-.33.21-.33c.55-.11.93-.22 1.13-.33s.3-.3.3-.56c0-.04-.01-.3-.03-.77s-.05-1.05-.08-1.73-.07-1.42-.1-2.21c-.04-.79-.07-1.54-.1-2.24-.04-.7-.07-1.3-.09-1.81-.03-.51-.04-.82-.04-.93l-4.56 11.01c-.06.13-.11.22-.16.28s-.11.09-.2.09c-.1 0-.16 0-.19-.02l-5.1-11.7c-.01.14-.03.48-.05 1.01s-.05 1.17-.08 1.9c-.03.74-.07 1.51-.11 2.33s-.08 1.57-.11 2.27c-.04.69-.06 1.28-.08 1.75q-.03.705-.03.75c0 .43.47.73 1.42.89.14.01.21.13.21.33 0 .08-.01.19-.04.33-.37-.03-.74-.05-1.1-.07q-.54-.03-.96-.03c-.22 0-.52 0-.9.03-.37.02-.73.05-1.06.07-.03-.14-.04-.25-.04-.33q0-.285.21-.33c.37-.07.68-.17.91-.3s.36-.33.38-.59c0-.13.01-.48.04-1.05.03-.58.06-1.26.09-2.05s.07-1.63.11-2.52.08-1.71.11-2.47.06-1.38.08-1.87l.03-.76c0-.22-.09-.38-.26-.49-.17-.1-.5-.2-.99-.28-.14-.01-.21-.13-.21-.35 0-.08.01-.19.04-.33.18.01.38.03.61.04l.69.03c.23 0 .45.01.66.02h.5c.25 0 .44.01.58.03s.25.04.33.07.14.07.18.13c.03.06.07.11.09.17l4.45 10.39 4.23-10.39c.03-.06.06-.11.09-.17s.09-.1.18-.13c.08-.03.19-.05.33-.07s.33-.03.58-.03h.44c.18 0 .37-.01.58-.02.21 0 .42-.02.64-.03s.41-.03.59-.04c.03.14.04.25.04.33 0 .22-.07.34-.21.35-.5.07-.83.16-1 .28s-.25.27-.25.47c0 .01 0 .2.03.55q.03.525.09 1.77c.04.83.09 1.93.16 3.3.06 1.37.14 3.08.22 5.12.01.26.1.46.27.58s.51.23 1.02.31c.07.01.12.05.16.11s.05.14.05.22-.01.19-.04.33Zm-24.96-11.01-2.02 5.1h3.96zm7.49 11.01c-.44-.03-.88-.05-1.31-.07s-.83-.03-1.21-.03-.83 0-1.33.03c-.5.02-.95.05-1.35.07-.03-.14-.04-.25-.04-.33 0-.12.02-.21.07-.26s.09-.07.14-.07q.54-.105.87-.24c.22-.09.33-.22.33-.41 0-.08-.03-.19-.08-.31l-1.31-3.43h-4.64l-1.33 3.35c-.07.17-.1.31-.1.42 0 .29.42.5 1.27.62.1.01.16.05.2.11.03.06.05.14.05.22s-.01.19-.04.33a37 37 0 0 0-2.42-.1c-.28 0-.56 0-.85.02-.29.01-.6.04-.92.08-.03-.11-.04-.22-.04-.33 0-.1.02-.18.05-.25s.11-.11.22-.13c.43-.07.75-.16.97-.26.21-.1.37-.27.47-.49l5.02-12.07c.1-.24.23-.35.4-.35.06 0 .14.01.25.04l5.04 12.45c.08.19.27.35.56.46s.58.19.85.23c.08.03.15.07.2.11.05.05.07.14.07.26 0 .08-.01.19-.04.33Z"/></svg>