<?xml version="1.0" encoding="UTF-8"?>
<svg viewBox="47.43 118.00 225.15 84.00" xmlns="http://www.w3.org/2000/svg">
<path d="m63.59 120.08 50.27-.08c7.31 1.02 13.01 6.32 14.66 13.52-.13 15.89 1.59 33.57.43 49.36-.68 9.2-6.93 15.75-16.09 16.73-15.39-.9-32.16 1.21-47.38.02-8.31-.65-14.73-6.56-16.05-14.78l.04-50.38c1.08-7.39 6.83-13.05 14.13-14.38Zm40.5 40.39c-.49-12.79-4.29-27.57-15.03-35.47l-12.47 12.58c9.87.6 17.71 7.81 23.13 15.49zm-14.25-15.92c-11.31.67-24.94 3.73-33.13 12.11-.51.52-2.42 2.73-2.29 3.25l12.55 12.17c.58-8.99 6.73-16.47 13.61-21.7l9.25-5.83Zm-1.32 30.18c9.21-.33 19.29-2.46 27.14-7.49 1.38-.88 8.21-6.12 7.93-7.55-.21-1.09-10.73-10.28-12.04-12.15-.47 0-.85 3.48-1.07 4.23-2.05 7.08-7.13 12.58-12.71 17.13zm12.92 7.3c-8.82-.83-16.03-6.57-21.33-13.31l-6.16-9.59c.58 10.11 2.91 21.03 9 29.3.86 1.16 4.65 5.65 5.82 5.82.38.06.65.02.93-.27l11.75-11.96Z" fill="#e30e2d"/>
<path d="M257.65 137.25c10.41 1.17 15.16 12.57 6.95 19.89-.42.38-2.3 1.13-1.81 1.66 10.57 3.41 9.97 17.44.67 22.07-.56.28-2.36 1.16-2.82 1.16h-25.01v-44.78h22.03Zm-9.11 25.21c0-1.11 1.99-6.4 2.65-6.8.75-.46 4.02.04 5.86-.76 3.7-1.6 4.32-7.03.81-9.23-.34-.21-2.35-1.11-2.53-1.11H243.9v30.52h12.09c.13 0 2.18-.69 2.49-.83 4.6-2.07 4.91-8.31.51-10.79-.3-.17-2.2-.98-2.33-.98h-8.12Zm-109.66 19.57 18.25-44.26c.17-.37.43-.46.8-.53 2.35-.43 5.81.34 8.3-.02l18.7 44.8h-8.95l-4.6-11.41c-6.09-.35-12.43-.28-18.6-.04-1.9 3.72-3.02 7.87-5.13 11.45h-8.78Zm29.15-18.58-6.29-14.93-5.97 14.93zm46.72-26.2v7.63H200.5v37.15h-8.28v-37.15h-14.25v-7.63zm6.95 0h8.28v44.78h-8.28z" fill="#030303"/>
</svg>
