<?xml version="1.0" encoding="UTF-8"?>
<svg fill="none" viewBox="188 -2 52 52" xmlns="http://www.w3.org/2000/svg">
<g clip-path="url(#a)">
<path d="m216.26 25.424h-3.706v0.778h3.706z" fill="#231f20"/>
<path d="m216.26 25.424h-3.706v0.778h3.706z" fill="#231f20"/>
<path d="M214.408.305c2.5 0 4.911.393 7.178 1.123l.113-.016h5.353c.04 5.48 4.477 9.94 9.927 9.956v5.416l-.016.064a23.9 23.9 0 0 1 1.141 7.308c0 2.552-.402 5.039-1.149 7.333l.024.072v5.384c-5.466.016-9.911 4.492-9.927 9.988h-5.353l-.129-.048a23.55 23.55 0 0 1-14.3.008l-.104.04h-5.145c-.016-5.504-4.477-9.988-9.951-9.988h-.185v-5.367a23.7 23.7 0 0 1-1.181-7.43c0-2.59.418-5.086 1.181-7.429v-5.367h.185c5.466 0 9.919-4.469 9.951-9.956h5.249a23.6 23.6 0 0 1 7.138-1.107" fill="#007f3e"/>
<path d="m214.41 6.322c9.758 0 17.716 8.007 17.716 17.826s-7.958 17.827-17.716 17.827-17.708-8.007-17.708-17.827 7.957-17.826 17.708-17.826" fill="#fff"/>
<path d="m214.5 7.798c8.947 0 16.245 7.34 16.245 16.35s-7.298 16.35-16.245 16.35c-8.946 0-16.245-7.34-16.245-16.35s7.299-16.35 16.245-16.35z" fill="#ffc80f" stroke="#231f20" stroke-miterlimit="2.61" stroke-width=".24"/>
<path d="M208.355 36.319c1.76-.698 3.842-1.083 6.044-1.1v-2.254h-7.355c.057 1.244.531 2.391 1.311 3.354m-1.511-3.594c0-1.372.538-2.648 1.439-3.683q-.677-.262-1.278-.585h-.017c-1.76 1.115-2.853 2.623-2.877 4.292h2.725v-.016zm.297 4.412c1.568.907 3.513 1.517 5.53 1.75-1.728-.354-3.223-1.196-4.268-2.343-.442.176-.868.369-1.262.585z" fill="#fff"/>
<path d="M208.516 36.503c1.037 1.18 2.532 2.046 4.268 2.4.546.055 1.093.096 1.64.104l-.016-3.555c-2.147.009-4.172.386-5.892 1.051m-1.656-3.538h-2.733c.072 1.565 1.093 2.993 2.725 4.076h.008c.434-.257.9-.473 1.382-.674-.827-.97-1.326-2.142-1.39-3.402zm.168-.24v.016h7.355v-2.6c-2.178-.008-4.244-.385-5.988-1.059-.86 1.035-1.367 2.287-1.367 3.643m15.136 0v.016h2.725c-.024-1.677-1.125-3.201-2.91-4.324l-.056.032a13 13 0 0 1-1.222.57c.917 1.042 1.463 2.326 1.463 3.706" fill="#fff"/>
<path d="m214.375 29.917-.016-3.402c-.771 0-1.495.072-2.17.177-1.455.409-2.725 1.179-3.633 2.198 1.704.65 3.705 1.01 5.819 1.027" fill="#fff"/>
<path d="M212.077 26.708a14.7 14.7 0 0 0-4.783 1.636c.362.185.756.345 1.157.498.917-.98 2.179-1.733 3.626-2.142zm4.155 12.194c2.05-.216 4.003-.826 5.635-1.773-.394-.216-.82-.409-1.262-.585-1.069 1.163-2.604 2.013-4.373 2.358" fill="#fff"/>
<path d="m214.625 35.444.016 3.554c.498 0 .996-.04 1.487-.088 1.776-.337 3.311-1.211 4.364-2.415-1.712-.673-3.729-1.042-5.867-1.05m6.132.922c.491.2.957.417 1.391.666h.016c1.632-1.075 2.653-2.503 2.725-4.068h-2.741c-.056 1.26-.563 2.431-1.391 3.402" fill="#fff"/>
<path d="M221.963 32.965h-7.347v2.255c2.203.016 4.276.4 6.029 1.099.779-.963 1.254-2.11 1.31-3.354zm-5.08-6.257a16 16 0 0 0-2.291-.193l.016 3.402c2.122-.016 4.124-.385 5.828-1.043-.892-.995-2.13-1.75-3.545-2.158z" fill="#fff"/>
<path d="M221.634 28.344a14.6 14.6 0 0 0-4.542-1.596c1.367.409 2.556 1.139 3.441 2.07.377-.153.755-.297 1.101-.474m.337 4.381c0-1.364-.514-2.624-1.383-3.659-1.744.682-3.81 1.067-5.988 1.083v2.6h7.371z" fill="#fff"/>
<path d="m216.54 26.467h-4.076v-1.332h4.076z" fill="#231f20"/>
<path d="m213.32 13.173h-3.786v1.06h3.786z" fill="#fff"/>
<path d="m213.32 13.173h-3.786v1.067h3.786z" stroke="#231f20" stroke-miterlimit="2.61" stroke-width=".28"/>
<path d="m213.32 13.173h-3.786v1.06h3.786z" stroke="#231f20" stroke-miterlimit="2.61" stroke-width=".04"/>
<path d="m213.32 14.256h-2.805v1.06h2.805z" fill="#fff"/>
<path d="m213.32 14.256h-2.805v1.067h2.805z" stroke="#231f20" stroke-miterlimit="2.61" stroke-width=".28"/>
<path d="m213.32 14.256h-2.805v1.06h2.805z" stroke="#231f20" stroke-miterlimit="2.61" stroke-width=".04"/>
<path d="m213.32 15.348h-1.777v1.059h1.777z" fill="#fff"/>
<path d="m213.32 15.348h-1.777v1.066h1.777z" stroke="#231f20" stroke-miterlimit="2.61" stroke-width=".28"/>
<path d="m213.32 15.348h-1.777v1.059h1.777z" stroke="#231f20" stroke-miterlimit="2.61" stroke-width=".06"/>
<path d="M216.088 21.517h-3.175v-8.504c.249-5.504 3.175-5.247 3.175.024z" fill="#fff"/>
<path d="M216.088 21.517h-3.175v-8.504c.249-5.504 3.175-5.247 3.175.024z" stroke="#231f20" stroke-miterlimit="2.61" stroke-width=".28"/>
<path d="M212.302 21.878h4.404c.153 0 .282.152.282.337 0 .184-.129.337-.282.337h-4.404c-.161 0-.29-.152-.29-.337s.129-.337.29-.337m0 2.295h4.404c.153 0 .282.152.282.336s-.129.337-.282.337h-4.404c-.161 0-.29-.152-.29-.337 0-.184.129-.337.29-.337m-.29-1.347h4.976c.177 0 .33.24.33.545s-.145.546-.33.546h-4.976c-.176 0-.321-.249-.321-.546s.145-.545.321-.545m2.492 3.441c-5.851 0-10.61 2.929-10.61 6.523s4.759 6.522 10.61 6.522c5.852 0 10.611-2.928 10.611-6.522s-4.759-6.523-10.611-6.523m6.198 2.752c.426-.168.836-.36 1.221-.57l.057-.032c1.784 1.124 2.893 2.648 2.91 4.325h-2.725v-.016c0-1.38-.547-2.664-1.463-3.707m-.097 7.534c.442.176.868.369 1.262.585-1.631.947-3.585 1.557-5.634 1.773 1.768-.345 3.303-1.195 4.372-2.358m-4.469 2.366c-.49.048-.989.08-1.487.089l-.016-3.555c2.13.017 4.156.386 5.868 1.051-1.053 1.204-2.589 2.078-4.365 2.415m-1.503-3.69v-2.255h7.331c-.057 1.244-.531 2.391-1.311 3.354-1.752-.698-3.834-1.083-6.02-1.1m-.008-2.48V30.15c2.162-.016 4.228-.393 5.972-1.083.868 1.035 1.383 2.295 1.383 3.659v.016h-7.355zm5.924-3.914c-.884-.93-2.074-1.661-3.44-2.07a14.6 14.6 0 0 1 4.541 1.596c-.345.177-.723.33-1.101.474m-3.657-2.11c1.422.409 2.652 1.171 3.544 2.158-1.704.658-3.705 1.035-5.827 1.043l-.016-3.402c.82 0 1.583.08 2.291.193zm5.265 10.325a12 12 0 0 0-1.391-.666c.828-.97 1.334-2.142 1.391-3.402h2.741c-.073 1.573-1.094 2.993-2.725 4.076h-.016zm-13.786-.722c-.779-.963-1.254-2.11-1.31-3.354h7.347v2.255c-2.186.008-4.276.393-6.029 1.099zm.04.233c1.045 1.139 2.54 1.99 4.269 2.342-2.018-.232-3.963-.842-5.531-1.749.394-.216.82-.409 1.262-.585zm-1.366-3.811v-.016c0-1.356.506-2.608 1.366-3.643 1.745.674 3.811 1.051 5.981 1.06v2.599zm1.527-3.851c.909-1.019 2.17-1.797 3.633-2.198a15 15 0 0 1 2.171-.177l.016 3.402c-2.114-.008-4.116-.377-5.82-1.027m-.112-.048a13 13 0 0 1-1.158-.498 14.6 14.6 0 0 1 4.783-1.636c-1.447.4-2.709 1.155-3.625 2.142zm-.169.192c-.9 1.043-1.439 2.31-1.439 3.683v.016h-2.725c.024-1.66 1.109-3.177 2.878-4.3h.016c.402.224.828.417 1.278.593zm-4.164 3.931h2.733c.056 1.26.563 2.431 1.391 3.402-.491.2-.957.417-1.383.666h-.008c-1.632-1.075-2.652-2.503-2.725-4.068zm8.657 5.93c-1.736-.354-3.231-1.22-4.268-2.4 1.72-.673 3.746-1.042 5.892-1.05l.016 3.553c-.547 0-1.093-.04-1.64-.104" fill="#231f20"/>
<path d="m216.31 25.36h-3.625v0.762h3.625z" fill="#fff"/>
</g>
<defs>
<clipPath id="a">
<path d="M0 0h238v48H0z" fill="#fff"/>
</clipPath>
</defs>
</svg>
