<?xml version="1.0" encoding="UTF-8"?>
<svg viewBox="60.89 88.01 198.22 143.99" xmlns="http://www.w3.org/2000/svg">
<path d="M239.25 201.48h7.43c-.22-1.39-.28-2.57.46-3.82 1.74-2.94 6.04-2.97 7.8-.03 2.24 3.74-1.59 8.18-5.66 6.5-.34-.14-1.49-.99-1.59-.99h-33.46v1.49c0 .25-.25 1.11-.35 1.39-.46 1.27-1.61 2.53-3.06 2.43.63-.66 1.09-1.48 1.31-2.37.06-.23.21-.84.21-1.04v-8.86h-1.32v-.69h4.59v.63h-1.32v5.35h9.66v-5.28h-.97v-.69h3.13v5.87l.1.1h10.8v-1.71c0-.51.12-.66-.08-1.23-1.06-3.02-5.74-1.6-8.15-1.93-.43.04-1.09.34-1.45.57-.17.11-.26.32-.46.34v-1.36a2.97 2.97 0 0 1 1.7-.73c1.77-.15 4.38-.08 6.19 0 1.51.06 2.83.28 3.74 1.61.32.46.73 1.49.73 2.05v2.4Zm11.66-4.22c-2.09.08-3.31 2.64-2 4.33 1.79 2.31 5.37.55 4.78-2.2-.26-1.19-1.55-2.17-2.77-2.12Zm-125.82-1.9v.69h-.97l.64.86c.11.19.34.72.34.91v3.54l.1.1h9.14c-1.15-3.64 2.03-6.93 5.71-5.82 1.5.45 2.74 1.91 3.02 3.44.16.84.03 1.55-.12 2.38h14.8l.21 1.67h-16.02c-.08 0-1.07.77-1.33.89-1.26.61-2.86.59-4.1-.05-.23-.12-1.16-.85-1.24-.85h-10.11c.03 1.08.35 2.11.69 3.13-1.92-.35-2.93-2.63-3.06-4.41-.16-2.25.87-4.48-1.95-5.14-1.13-.27-4.16-.31-5.28-.07-.79.17-1.44.57-2.05 1.08l-1.07 1.11c.01-1.57 1.31-2.99 2.79-3.36.1-.02.46-.12.51-.12h9.35Zm13.47 1.9c-3.27.08-3.57 5.02-.21 5.38 3.74.41 3.9-5.48.21-5.38" fill="#024"/>
<path d="M100.42 196.13h-1.04v5.35h16.61c-.01-.36-.17-.73-.2-1.09-.15-2.04 1.93-3.55 3.75-2.43 1.31.8 1.28 2.17.96 3.52h1.63c.07.04.09.1.1.17.08.46.1 1.03.14 1.49h-23c.2 2.8-1.32 5.16-4.24 5.42-.09-.08.54-.63.62-.73 2.19-2.69.9-7.25 1.26-10.49-.43-1.96-2.41-1.33-3.21.06-1.24 2.15-.15 4.9 2.51 4.84v.77c-1.55-.04-3.2.46-4.3-.95-1.83-2.35-.82-6.38 2.38-6.63 1.88-.15 3.94.11 5.84 0l.16.11v.58Zm17.7 2.86c-1.18.16-1.26 2.31-.08 2.48 1.81.27 1.58-2.69.08-2.48m90.14-4.88v.69h-1.04v8.34h-21.71c-1.55 0-3.32-1.24-3.82-2.71-1.06-3.13 2.07-5.07 4.83-4.93l-1.24.81c-1.87 1.15-1.88 3.95.15 4.9.24.11.89.34 1.12.34h18.27l.1-.1v-5.56s-.2-.45-.25-.52c-.52-.75-1.88-.58-2.55-.13-1.25.83-1.28 2.73-.11 3.63.64.49 1.45.52 2.21.67v.76h-2.39c-4.03 0-3.63-6.18.14-6.18h6.29ZM88.09 225.18c.07 0 .39-.1.42-.14.76-3.8 1.31-7.66 1.92-11.49l.26-.44c.11-.07.45.29.5.41l4.82 9.15 4.68-9.08.47-.51.3.47c.51 2.97.91 5.96 1.42 8.94.09.52.27 2.23.61 2.52.41.35 1.28-.08 1.8.18v.55h-4.51v-.51l.27-.12c.03-.04.02-.29 0-.37-.16-1.95-.58-4.36-.91-6.31-.03-.18-.1-.82-.23-.88l-4.38 8.2-.35-.28-4.17-7.71-.1.24c-.12 2.09-.85 4.48-.91 6.53 0 .34.13.66.53.66h1.01l-.07.6-4.21.03-.16-.11v-.51c.31-.03.69.04 1 0Zm24.49-11.96v.69h-1.53v4.59h6.88v-4.59h-1.74v-.69h5.42v.69h-1.46v11.19h1.88v.63h-5.63v-.63h1.53v-5.52s-.22-.17-.24-.17h-6.53l-.1.1v5.59h1.88v.69h-5.56v-.69h1.08s.12-.09.17-.1c.05-.03.05-.09.07-.14.09-.27.13-1.18.14-1.52.13-2.97-.07-5.98 0-8.96-.11-.73-1.16-.34-1.67-.49l-.07-.66h5.49Zm55.94-21.33v.62l-.49.12v9.72l.48.12v.69h-7.77c.02 1.11.37 2.16.69 3.2-1.89-.51-2.92-2.57-3.06-4.41-.22-2.96 1.02-5.15-3.02-5.39-.93-.06-2.35-.07-3.27 0-1.54.12-2.81 1.09-3.68 2.3 0-1.8 1.55-3.34 3.34-3.47h8.81l.1.11v.58c-.14.02-.97-.07-.96.1.34.31.64.72.8 1.15.03.08.18.56.18.59v3.58h5.14v-8.9l-.48-.08v-.62h3.19Zm-96 11.26c-1.25-.1-2.49-.69-3.13-1.81-.9-1.59-.35-3.45-.53-5.17-.11-1.03-.68-1.44-1.7-1.37-2.42.19-2.84 3.58-.61 4.43.52.2 1.01.19 1.54.3v.82c-.99-.15-2.08.03-3.06-.16-2.13-.4-2.67-3.05-1.62-4.72.68-1.07 1.72-1.32 2.92-1.38 1.92-.1 3.94.08 5.87 0v.7c-.3.05-.96-.17-1.04.24.05 1.28-.07 2.62 0 3.89.05.91.14 1.98 1.1 2.38.21.09.76.22.96.22h5.28l.1-.1v-5.25h-.49v-.69h3.2v.7h-.49v6.85l-.1.1h-8.2Zm58.39 9.96c4.63-.34 8.35 1.92 7.93 6.96-.28 3.48-3.3 5.75-6.63 5.95-9.79.58-10.03-12.27-1.3-12.91m-.21.76c-5.46.56-4.84 10.87 1.16 11.31 4.05.3 5.1-3.85 4.38-7.09-.58-2.63-2.78-4.5-5.54-4.22m117.65-.65v.69h-1.46v4.86c.93-.74 1.83-1.6 2.64-2.47.19-.21 2.04-2.24 1.87-2.4l-.41-.08v-.62h4.44v.69h-1.63c-.23 0-1.44 1.06-1.7 1.28l-3.61 3.4c.22.18.37.42.55.63 1.42 1.59 3.63 3.82 5.25 5.17.94.79 1.41.81 2.54 1.08.06.01.28.09.28.17-.19.06-.31.13-.52.14-.73.06-2.25 0-2.99-.07-.28-.03-.65-.16-.89-.29-.78-.4-2.82-2.61-3.52-3.36-.78-.83-1.45-1.77-2.29-2.54v5.49h1.67v.69h-5.35v-.63h1.46v-11.19h-1.63c-.19-.17-.08-.47-.1-.69h5.42Zm-91.86.7v-.7c1.43.05 2.85-.12 4.28-.07 1.87.06 4.72.21 5.28 2.43.48 1.91-.86 3.28-2.18 4.41.76.93 1.51 1.86 2.31 2.75.7.77 1.91 2.22 2.87 2.55.43.15.87.08 1.2.33-.34.35-.88.11-1.28.1-.72-.01-1.5.07-2.2-.1-1.53-.36-3.26-3.6-4.37-4.73-.09-.08-.28-.2-.4-.22-.25-.05-1.2-.12-1.41-.05-.51.16-.21 1.19-.2 1.6.01.55-.11 2.42.13 2.77.03.04.15.12.18.12h1.56c-.03.23.09.53-.1.69h-5.45v-.69h1.15s.15-.08.17-.11c.26-.49.06-1.07.21-1.59v-9.49h-1.74Zm3.91.29c-.21.21-.02 4.65-.07 5.29.08.26.68.3.93.33 1.05.12 1.93 0 2.45-1.03.72-1.44.43-3.78-1.18-4.48-.43-.19-1.77-.44-2.12-.11Zm66.55 10.9.14-11.64.14-.39.49.24 9.55 9.28-.1-8.76h-1.88v-.63h4.72v.63h-1.53v11.57s-.14.34-.17.38c-.21.27-.46.09-.69-.07-2.89-2.78-5.89-5.47-8.72-8.3-.21-.21-.37-.6-.69-.66v8.34h1.95v.63h-4.79v-.63h1.6Zm-27.65-11.19v-.7c1.24.04 2.48-.09 3.72-.07 1.5.02 3.72 0 4.56 1.48.67 1.17.27 2.29-.53 3.25-.11.13-.81.72-.73.83 2.07.76 3.76 2.77 2.63 5.03-.52 1.05-2.2 2.06-3.36 2.06h-6.29v-.69h1.67v-11.19zm4.08.08c-.17.05-.24.28-.26.44-.09.81-.07 2.64 0 3.48.01.17.06.55.21.62.13.07 1.08.05 1.28.03 1.96-.26 1.86-3.4.27-4.29-.37-.21-1.09-.4-1.5-.28m-.19 5.34v4.9c0 .4.7.7 1.03.78 1.66.39 3.01-.46 2.94-2.24-.08-2.11-1.77-3.88-3.96-3.44Zm-125.84-6.12c-.03.23.09.53-.1.69H75.9c-.12.3 0 .53 0 .8.04 2.19-.15 4.59 0 6.75.18 2.65 2.01 4.29 4.69 3.5 2.44-.72 2.13-2.73 2.19-4.76.05-1.77.28-4.33.08-6.05-.01-.1 0-.18-.11-.24h-1.53c-.19-.17-.08-.47-.1-.69h4.72v.69h-1.46c-.08 2.14.11 4.36 0 6.5-.18 3.53-1.57 5.59-5.32 5.59-6.98 0-5.17-6-5.37-10.87-.02-.39-.13-.8-.07-1.21h-1.63c-.19-.17-.08-.47-.1-.69h5.49Zm68.65 0c-.03.23.09.53-.1.69h-1.42c.05 1.95-.07 3.92 0 5.88s.1 4.46 2.38 5.19c1.34.43 3.31.02 4.07-1.25s.38-2.56.57-3.88c-.16-1.8.21-3.95 0-5.7-.01-.1 0-.18-.11-.24h-1.53c-.19-.17-.08-.47-.1-.69h4.72v.69h-1.46c-.07 2.08.09 4.22 0 6.29-.14 3.42-1.25 5.62-4.97 5.73-4.05.12-5.62-1.33-5.8-5.39-.1-2.19.07-4.44 0-6.64h-1.74v-.69H146Zm78.24 11.89v.69h-4.79v-.7s.42.08.41-.16c-.42-.93-.73-2.02-1.18-2.92-.12-.23-.15-.41-.45-.46-1.1.08-2.39-.12-3.47 0-.15.02-.27.07-.4.14-.36.85-.85 1.77-1.12 2.65-.06.2-.22.62-.07.76h1.22l-.07.66-4.35.03-.16-.11v-.58h1.35c.36 0 .65-.74.79-1.02 1.58-3.22 2.72-6.81 4.31-10.01.16-.33.32-.69.61-.92.36.16.5.53.66.85 1.65 3.36 2.87 7.04 4.54 10.4.18.3.28.5.64.61.04.01.45.09.47.09h1.08Zm-9.52-4.38h3.4l-1.63-4.24-.18.17zm-35.4 4.38c.23-.04.49-.31.58-.53 1.69-3.4 2.87-7.27 4.58-10.64.14-.28.3-.57.54-.78.19-.04.56.65.64.81 1.7 3.34 2.87 7.14 4.58 10.5.16.25.29.43.58.53.06.02.48.12.51.12h1.08v.63h-4.79v-.62l.42-.07-1.33-3.29c-.1-.14-.28-.16-.44-.18-.8-.08-2.45-.07-3.27 0-.14.01-.33.03-.45.11-.13.09-1.02 2.32-1.12 2.64-.08.27-.18.5-.14.8h1.25c-.03.23.09.53-.1.69h-4.48v-.69c.41-.05.97.07 1.35 0Zm3.58-4.38h3.4l-1.63-4.24-.18.17zm-112.91-7.51v.69h-1.53c.01.89-.02 1.79 0 2.68.04 2.41.19 4.88.08 7.3-.14 2.87-.8 3.95-3.2 5.41-.36.22-1.52 1.11-1.66.46.91-.2 1.83-1.16 2.19-2.02.39-.94.42-2.28.46-3.3.12-3.5-.09-7.03 0-10.53h-1.81v-.69h5.49Zm106.86 0v.69h-1.46v11.08l.1.1h1.84c-.03.23.09.53-.1.69h-5.45v-.69h1.39V213.9h-1.42c-.19-.17-.08-.47-.1-.69h5.21ZM88.54 195.5v.63h-1.11c-.08 2.4.11 4.87 0 7.26-.06 1.41-.25 2.58-1.19 3.68-.81.94-1.89 1.39-3.12 1.43.48-.52.99-.99 1.31-1.64.23-.47.64-1.72.64-2.21v-8.44h-1.11v-.69h4.59Zm85.81-3.61-.01.62-.48.11v9.72l.48.12.01.62h-3.26v-.62l.55-.12v-9.76l-.54-.08-.01-.61zm44.06 16.12h37.04v.42h-37.04zm-36.76 0h25.64v.42h-25.64zm-54.34 0h22.17v.42h-22.17zm-26.33 0h19.94v.42h-19.94zm18.55-15.91c-1.28-.18-2.05-1.45-1.33-2.62.9-1.46 3.22-.72 3.14.98-.05 1.04-1.64 2.11-2.23 2.93-.12.09-.5-.33-.48-.41zm-.09-2.9c-1.76.28-1 3.08.73 2.26 1.22-.58.59-2.47-.73-2.26m73.07 2.39c-1.65-1.65 1.16-4.19 2.62-2.16.8 1.11-.02 1.96-.73 2.75-.17.19-1.08 1.15-1.22 1.22-.17.09-.35-.26-.48-.35l.97-.83c-.38-.24-.82-.28-1.16-.62Zm1.07-2.39c-1.47.16-1.31 2.45.18 2.41 1.61-.04 1.48-2.59-.18-2.41m-38.13 2.9c-1.79-.08-2.25-2.6-.59-3.27 1.19-.48 2.42.44 2.33 1.71-.07 1.03-1.66 2.13-2.26 2.95l-.38-.44c.03-.17 1.04-.81.9-.95m-.08-2.9c-1.85.22-.96 3.19.76 2.22 1.12-.64.5-2.37-.76-2.22m75.18.21c2.26-.18 2.44 3.12.39 3.38-2.25.28-2.65-3.2-.39-3.38m0 .48c-1.89.3-.88 3.19.76 2.22 1.14-.67.47-2.42-.76-2.22m-92.14-.49c2.23-.18 2.42 3.11.39 3.38-2.23.3-2.68-3.2-.39-3.38m-.07.49c-.39.06-.89.54-.95.93-.17 1.07.88 1.87 1.83 1.27 1.11-.7.38-2.4-.87-2.2Zm25.45 18.12h10.56v.42h-10.56zm-88.25-16.88c.28 1.58 2.13 1.52 2.48-.01.54-.1.41.27.59.58.52.89 1.69.74 2.14-.14.09-.18.11-.65.49-.44.21.12-.17.94-.34 1.12-.79.84-1.98.61-2.68-.22-1.06 1.32-3.03.82-3.16-.9h.48Zm128.19-.96c1.56-.12 1.42 2.36-.13 2.04-1.15-.24-1.03-1.95.13-2.04m-138.42 0c1.4-.19 1.55 2 .19 2.07s-1.51-1.89-.19-2.07m3.13 0c1.42-.14 1.51 2 .19 2.07s-1.48-1.95-.19-2.07m6.04 15.5c.96 1.03-.64 2.4-1.53 1.43s.61-2.42 1.53-1.43m80.4-.28c1.45-.3 1.7 1.76.59 1.98-1.61.33-1.73-1.75-.59-1.98m-78.31 0c1.59-.3 1.77 2.21.05 2-1.1-.13-1.05-1.81-.05-2m144.45-15.51c.1-.02.48.34.34.48l-2.03 1.94-2.18-2.11.31-.24 1.73 1.73zm-146.24-.91h6.95v.35h-6.95zm172.74 1.74h6.95v.35h-6.95zm-145.25-.76c.14-.02 1.62 1.61 1.87 1.8l1.77-1.77h.14l.28.28-2.19 2.05-2.12-2.12zm114.26 15.15-2.02 3.51-.38-.18 2.02-3.54zm-126.74-.01-2.06 3.54-.35-.2v-.14l1.88-3.27c.16-.17.33.06.52.07Zm-22.1 0-2.01 3.52-.39-.18 2.02-3.54zm117.07-92.92c-.09.08-2.07-.17-2.4-.18-11.46-.4-23.21.33-34.03 4.28-7.9 2.89-16.25 7.88-16.73 17.23-.76 14.79 11.22 28.71 21.87 37.54 1.08.9 2.54 2.19 3.67 2.94.17.11.31.27.53.24v-26.85c0-.08-.23-.51-.31-.59-.34-.32-1.24-.68-1.72-1.09-2.35-1.97-2.77-5.66-1.17-8.23.62-.99 1.36-1.5 2.31-2.13.42-.27.81-.22.89-.83l-.09-13.8c-3.49.65-6.92 1.54-10.3 2.6-.32.1-1.95.75-2.06.75-.05 0-.2-.16-.04-.22 4.08-3.24 8.56-6 13.46-7.82 11.66-4.3 29.11-4.59 34.9 8.7 8.73 20.04-12.71 40.87-27.33 51.48-1.56 1.13-3.51 2.61-5.16 3.53-.81.45-1.12.54-1.99.12-2.08-1-4.98-3.2-6.9-4.6-12.97-9.43-30.44-26.55-27.42-44.25 2.32-13.56 15.56-18.24 27.65-19.71 4.65-.57 9.43-.51 14.11-.56 4.98-.05 9.97.04 14.95 0l.13-.18-21.97-11.86-.43.02-25.29 13.2c-.09-1.97-.04-3.96-.04-5.93 0-.65-.26-.89.42-1.39l24.51-14.34c.55-.27.7-.33 1.27-.06 1.13.55 2.6 1.64 3.75 2.32 6.77 4.03 13.55 8.06 20.3 12.12l.64.54v7.02Zm-22.45 62.31c1.65-1.14 3.22-2.42 4.75-3.72 9.36-7.91 22.03-21.08 22.6-34 .42-9.54-4.03-16.82-14.09-17.44-3.48-.22-7.47-.07-10.96.27-1.04.1-2.1.24-3.12.45l.81.09.02 14.52c.1.43 1.53 1.16 1.97 1.56 2.7 2.41 2.65 6.98-.04 9.38-.46.41-1.43.85-1.72 1.17-.06.07-.22.35-.22.41v27.3Z" fill="#024"/>
</svg>
