<svg xmlns="http://www.w3.org/2000/svg" viewBox="38.49 88 243.02 144.01"><path fill="#897852" d="m76.48 230-2.22-.79-1.52-.87c4.62.95 7.97-2.06 9.14-6.33l-4.51-11.25c-.26-.55-1-.46-1.52-.47-.4-1.98 2.01-1.07 3.29-1.22l4.18 9.93c.3-1.54 4.04-8.79 3.64-9.74-.12-.3-.66-.47-.73-.83h3.94c.04.29-.02.56-.1.84-.91 3.12-3.39 8.24-4.79 11.4s-2.98 7.57-6.24 8.9l-1.33.44h-1.25Z"/><path fill="#735d46" d="M135.38 90.05 187.2 90c4.8.55 8.6 4.4 9.04 9.22v50.83c-.4 5.74-4.86 9.49-10.49 9.63-15.86-.63-32.38.85-48.16.01-5.91-.31-10.01-3.16-10.89-9.23V99.02c.55-4.63 4.07-8.29 8.68-8.97m25.33 5.18c-14.95.29-24.85 15.31-19.63 29.25.19.5 1.06 2.95 1.68 2.84.8-.15 3.66-3.7 4.67-4.26-4.75-8.42 1.09-19.32 10.23-21.3 10.94-2.37 20.59 6.9 18.55 17.92-1.35 7.34-8.02 10.87-12.54 16.11l.17.59 4.03 3.81c4.74-5.16 10.99-9.2 13.42-16.06 5.04-14.21-5.46-29.18-20.59-28.89Zm6.41 11.39-27.96 27.86c-8.94 11.65 5.52 25.95 17.33 17.11.48-.36 3.18-2.77 3.33-3.1.19-.42-3.42-3.94-3.95-4.53-1.09.6-1.77 1.69-2.71 2.45-6.73 5.47-14.03-2.3-8.71-8.71l26.78-26.76c.2-.29.1-.52 0-.81-.31-.85-3.19-3.74-4.1-3.51Zm.83 12.23c-.27.07-3.89 3.74-3.89 4.02 1.11 1.57 2.74 2.82 4.05 4.25.44-.69 4.3-3.87 4.24-4.22-.05-.27-3.47-3.65-3.81-3.88-.21-.14-.3-.25-.59-.17m12.44 12.23c-.57.65-4.08 3.74-4.08 4.24 0 .39 1.83 1.75 2.28 2.29 5.51 6.52-3.04 13.97-9.02 8.39l-14.58-14.49-.59.17c-.49.82-3.84 3.14-3.84 3.85l.31.53c8.1 6.44 17.44 23.68 29.77 16.26 8.25-4.97 7.4-16.2-.27-21.23Zm-96.02 39.19v12.34c0 .36.56 1.94.79 2.32 1.16 1.97 4.3 2.39 4.61-.25.46-3.9-.36-8.67 0-12.67 0-.23-.04-.45-.19-.64-.28-.34-.84-.11-.85-.49l3.53-.62v14.83c0 .38-1.19 1.71-1.59 1.94-2.32 1.34-4.65.41-6.3-1.42-.11.57-.81 1.23-1.31 1.49-.76.39-3.5.7-4.35.53-1.23-.24-2.14-1.27-3.05-2.02-.3.98-1.4 1.71-2.41 1.85s-3.33.23-4.23-.09c-1.02-.36-1.45-1.17-2.28-1.76-.9 2.28-5.33 2.49-7.13 1.42-1.97-1.17-3.47-7.01-4.87-9.23-.9-1.43-2.36-2.28-2.02.15l3.85 9.53H44.84c-.58 0-1.87-1.19-2.12-1.83-.75-1.96.22-5.18-.31-6.75-.35-1.03-2.34.13-1.84-1.47l4.36-.33v7.99c0 .23.82 1.35 1.14 1.35h7.58c-.71-2.67-2.53-5.24-3.21-7.88-.78-3 .35-3.55 3.31-3.1 3.53.54 4.38 10.03 7.16 10.89 2.33.72 3.34-.31 3.54-2.5.09-1.03.13-6.46-.23-7.03-.21-.32-.7-.37-.81-.74l3.32-.62v7.16c0 1.21 1.27 3.61 2.61 3.83 2.32.37 3.78.14 4.03-2.38.14-1.45.2-5.26.01-6.64-.12-.91-.61-.7-1.05-1.34.52.05 3.53-1.01 3.53-.31v7.88c0 .66 1.36 2.49 2.06 2.71.54.17 2.02.17 2.59.08 1.26-.2 1.48-1.49 1.58-2.57.25-2.95.25-8.47 0-11.42-.03-.3-.03-.59-.15-.88-.16-.39-.8-.32-.69-.88l3.11-.42Zm187.62 0v14c0 .07-.3 1.13-.37 1.29-1.1 2.71-5.91 2.61-7.63.48h-.3c-1.14 2.39-4.25 3.24-6.7 2.43-.9-.3-2.41-1.76-2.57-1.79-.39-.08-.98.64-1.47.76-.64.15-1.54.04-2.23.26l-23.23-.02c-.9 3.72-3.92 5.23-7.6 4.78-.11-.59.16-.33.45-.47 2.44-1.12 3.8-1.69 4.63-4.51.68-2.3.78-7.64.52-10.06-.03-.27-.07-.7-.26-.88-.23-.23-.8-.09-.78-.46 1.04-.07 2.21-.57 3.22-.63.43-.02.27 0 .31.31l-.21 10.69h3.01c.68 0 1.1-1.39 1.15-1.96.07-.7.06-5.68-.11-5.93-.18-.27-.86-.14-.94-.61l3.53-.42v4.56c2.24-2.89 4.83-7.36 9.14-5.3 3.21 1.54 4.35 6.39 4.35 9.65 1.21-.14 2.85.21 4-.04 2.63-.59 1.47-7.29 5.38-8.73 3.31-1.22 6.54.78 7.13 4.2.14.82 0 1.61.14 2.35.49 2.46 4.59 3.77 4.94-.36.33-3.84-.26-8.14 0-12.04-.04-.59-.68-.55-1.04-.83.19-.42 2.93-.68 3.53-.73Zm-26.57 16.17c.06-2.35-.97-9.13-4.06-9.33-2.87-.18-6.78 6.77-7.15 9.33zm12.81-8.04c-.55.16-1.05 1.12-1.28 1.62-.28.6-1.58 4.85-1.56 5.27.06.95 1.82 2.12 2.68 2.31 5.44 1.16 5.06-10.64.16-9.2m-105.16-8.13v12.76c0 .1.48 1.5.58 1.7 1.09 2.21 4.43 2.56 4.8-.06.09-.64.15-5.81-.01-6.07-.09-.14-.96-.19-1-.65l3.53-.42v5.91c0 .14.4 1.13.51 1.36 1.26 2.68 4.15 2.46 4.47-.74.09-.87.11-5.93-.19-6.39-.2-.31-.66-.2-.85-.45.19-.42 2.93-.68 3.53-.73v7.16c0 .12.72 1.63.87 1.83 1.13 1.59 3.66 1.54 3.91-.58.1-.87.11-7.85-.11-8.2-.14-.23-.68-.27-.73-.62l3.32-.62v9.64c0 .06-.51.88-.62 1.04-1.66 2.21-5.78 1.78-6.95-.73-1.46 2.74-5.69 2.88-7.47.42-2.03 2.51-5.58 2.43-7.47-.21-.31.69-1.79 1.86-2.49 1.86h-7.99c-.19-1.43 1.87-.91 1.87-1.04V174.1c0-.31-1.03-.37-1.04-.72l3.53-.62v13.69c1.58 0 3.16.41 3.51-1.57l.02-13.43c-.09-.38-1.06-.09-.84-.76l3.32-.42Zm-36.11 16.17c-.69-2.36-2.06-4.49-2.85-6.79-1.1-3.19-1.1-4.81 2.94-4.19 3.6.56 4.34 10.46 7.5 10.97 6.67 1.08 3.28-8.19 9.38-9.06 7.83-1.12 8.47 12.38-.45 11.33-1.85-.22-3.14-1.93-3.58-2.02-.32-.06-1.21.62-1.68.75-7.4 2.01-7.35-4.63-9.98-9.21-.34-.6-2.03-2.9-2.32-1.2-.27 1.54 4.36 10.28 3.95 10.67-3.21-.18-6.67.24-9.85 0-2.26-.17-4-.66-4.25-3.22-.14-1.38.3-4.55-.04-5.56-.25-.75-1.76-.48-1.83-.55-.06-.05.04-.81 0-1.04l4.36-.21v7.99c0 .23.82 1.35 1.14 1.35h7.58Zm16.95-8.04c-.73.17-1.14.86-1.43 1.47-.25.52-1.64 5.08-1.62 5.42.06 1 1.94 2.2 2.85 2.35 5.22.87 4.9-10.31.2-9.24"/><path fill="#897852" d="M219.27 202.52c-.12-.38-.99-.33-1.04-.72l3.53-.63c.03.14-.04.83 0 .83h5.5c1.4 0 3.35 2.54 3.58 3.89.46 2.7-1.08 3.95-3.18 5.01-.15.08-.7.1-.3.43.05.04.92.09 1.31.25 4.83 2.05 3.72 10.18-1.04 11.73l-8.36.25v-21.05Zm2.7 7.78h3.42c.08 0 1.21-.64 1.33-.74 1.55-1.33 1.47-4.95-.46-5.94-.12-.06-1.02-.37-1.08-.37h-3.22v7.05Zm0 11.4h3.01c.61 0 1.8-.61 2.26-1.06 1.95-1.87 2.2-6.06.03-7.86-.16-.13-1.37-.83-1.46-.83h-3.84zm-49.6-12.03c.12.12-.17 1.05.1 1.24 1.98-2.91 6.56-2.43 8.4.42 1.14-2.89 6.15-3.11 7.78-.61.11.16.53 1.05.53 1.13v10.68h-3.74c.48-.67.94-.86 1.04-1.76.22-1.82.2-6.68 0-8.51-.35-3.04-3.69-2.79-4.89-.32-.2.4-.71 1.84-.71 2.19v8.4h-3.74c.04-.56.53-.56.77-1.2.45-1.21.44-7.54.27-9.07-.32-2.91-3.39-2.8-4.74-.59-.21.33-.86 2.15-.86 2.46v8.4c-.61-.12-2.66.31-2.88-.34l-.03-10.54c-.28-1.5-2.74.19-2.28-1.98.67.13 4.8-.18 4.98 0m97.13-8.5v12.44l6.23-6.53 2.69-.11c.22 1.66-.58 1.26-1.46 1.97-1.72 1.38-3.02 3.58-4.78 4.98l-.16.38 5.82 7.35c.98.23 1.88-.48 1.62.87h-3.63c-.41 0-4.57-5.63-5.29-6.33-.22-.32-.84.36-.84.42v6.33h-4.57c-.52-1.88 1.74-.47 1.88-1.96v-17.86c.06-.8-.74-.84-1.05-1.34l3.53-.62Z"/><path fill="#735d46" d="M219.48 174v10.89c0 .32-.73 1.57-1.05 1.85-.69.61-1.92.83-2.82.92-2.14.2-10.19.29-11.84-.55-2.92-1.48-.7-6.1-1.65-8.29-.26-.6-1.86-.38-1.94-.46-.06-.06.04-.81 0-1.04l4.36-.21v7.36c0 .77.71 1.82 1.57 1.96 1.62.25 7.65.23 9.34.02 1.78-.22 1.59-2.16 1.55-3.53-.43.35-.65.87-1.14 1.24-2.4 1.8-6.06-.08-6.34-3-.25-2.58.66-5.09 3.12-6.23.68-.31 2.96-.93 3.63-.93h3.22Zm-2.49 1.04c-4.41-.95-7.05 6.5-3.73 8.6 1.67 1.06 3.73-1.18 3.73-2.69z"/><path fill="#897852" d="M65.07 202.41v18.77c0 .48 2.03.55 2.4.53 4.08-.28 5.34-5.73 3.94-8.93-1-2.29-3.07-2.35-5.29-2.28-.39-1.17.78-1.32 1.79-1.43 3.74-.4 6.24 1.75 6.52 5.47.57 7.53-5.56 9.77-11.96 7.8l-.08-18.17c0-.23-.04-.45-.19-.64-.28-.34-.84-.11-.85-.49l3.73-.62Zm176.82 18.46c.38 1.34-1.15 1.56-2.18 1.66-7.73.72-8.54-10.79-2.23-13.43 2.66-1.12 5.22-.55 7.93-.04l.02 11.5c.27 1.44 2.61-.15 2.07 2.18h-4.46s-.31-.29-.31-.31V210.4c0-.75-2.92-.52-3.47-.36-3.71 1.09-4.56 8.24-1.5 10.3.14.1.87.53.92.53h3.22Zm-81.35 0c.38 1.34-1.15 1.56-2.18 1.66-7.84.73-8.56-11.3-1.76-13.58 2.6-.87 4.86-.37 7.46.11l.02 11.5c.27 1.4 2.7.04 2.07 2.18h-4.46s-.31-.29-.31-.31v-12.34c-5.2-1.58-7.89 3.61-6.5 8.05.26.84 1.55 2.74 2.45 2.74h3.22Z"/><path fill="#735d46" d="M188.76 170.27v14.42c0 .9-1.44 2.8-2.39 2.8h-8.2c.36-1.1 1.02-1.14 2.08-1.04v-12.13c-.2-.97-1.09-.37-1.04-1.15l3.53-.42v13.69c1.55.05 3.13.31 3.48-1.6.67-3.67-.4-8.97.06-12.82.13-.87-.95-.66-.84-1.34l3.32-.42Z"/><path fill="#897852" d="M98.69 220.87c.35 1.29-.98 1.52-1.99 1.64-7.74.87-8.71-10.69-2.36-13.35 2.71-1.14 5.1-.62 7.87-.1l.02 11.5c.27 1.4 2.7.04 2.07 2.18h-4.57V210.4c-5.07-2.34-7.7 2.82-6.76 7.38.22 1.06 1.52 3.1 2.71 3.1h3.01Zm11.21-11.82v2.9c1.95-1.84 3.47-3.5 6.45-2.81 1.2.28 2.13 1.51 2.27 2.71.22 1.84-.42 8.98.22 9.95.24.36.76.18.6.74l-3.11.42v-10.89c0-1.22-1.69-1.73-2.75-1.51-.64.13-3.68 2.92-3.68 3.17v9.23h-2.49c-.3-3.68-.24-7.4-.22-11.1 0-.92.65-1.81-.82-1.96.04-.31.29-.33.54-.39.9-.22 2.05-.34 2.99-.43Zm142.99 0v2.9c1.94-1.87 3.66-3.58 6.65-2.81 1 .26 1.91 1.51 2.05 2.51.33 2.38.27 5.64.24 8.08 0 .7-.45 1.32-.02 2.03.17.28.78.25.63.76l-3.11.42v-10.89c0-1.22-1.69-1.73-2.75-1.51-.7.14-3.68 2.87-3.68 3.37v9.02h-2.49v-12.34c0-.39-.65-.76-1.04-.73-.05-.06.12-.27.2-.31.65-.31 2.52-.36 3.32-.52Zm-109.37.62v3.11s-.67.22-.83.12c-.29-.18-.69-1.53-1.13-2-1.63-1.73-6-.92-5.21 2.09.67 2.51 7.37 2.69 7.79 6.11.65 5.29-7.02 5.48-10.47 4.07-.17-.12-.19-3.35-.09-3.52.05-.07.71-.29.79-.24.09.06.57 1.4.94 1.87.5.64 1.36 1.39 2.17 1.56 2.34.49 4.61-.09 4.15-2.9s-8.12-2.77-7.65-7.25c.41-3.92 6.75-3.89 9.53-3.03Zm-97.96-8.5v19.39c0 .06.51.93.63 1.03 1.32 1.16 5.46.11 7.11.52.15.04.61.79.56 1.04h-7.78c-.92 0-2.98-1.21-3.18-2.23-.11-.58.17-1.04.18-1.6.08-5.4-.09-10.8 0-16.2.04-.73-.62-.82-1.05-1.24l3.53-.72Zm85.09 1.24v20.95h-2.7v-19.6c0-.31-1.03-.37-1.04-.72l3.73-.62Zm79.45 18.3s.42.68.43.73c.13.83-3.69 1.72-4.44 1.72-10.14 0-8.81-15.85 1.82-14.05 2.22.37 2.99 1.44.85 2.84-1.74-1.17-2.5-2.55-4.71-1.2-4.22 2.59-2.42 11.28 3.08 10.75.76-.07 2.56-1.03 2.97-.79m-60.56-19.33v21.99h-2.28v-20.43c0-.41-.89-.78-1.04-1.14z"/><path fill="#735d46" d="M277.8 170.27v17.22h-2.28v-15.66c0-.62-.9-.52-1.04-.93l3.32-.62Zm-83.23 0v17.22h-2.28v-15.87c0-.31-1.04-.37-1.04-.72l3.32-.62Zm-96.5 0v17.22h-2.28v-15.87c0-.31-1.04-.37-1.04-.72l3.32-.62Z"/><path fill="#897852" d="M58.01 209.05v12.34c0 .16.62.38.82.43.99.26 1.18-.32 1.05 1.13h-4.36V210.4c0-.27-1.28-.59-.63-.83.8-.29 2.23-.31 3.12-.51Zm138.43 0v12.34c0 .49 1.8.45 1.87.52.34.35-.18 1.03-.73 1.03h-3.63v-12.55c0-.41-1.02-.38-1.04-.72z"/><path fill="#735d46" d="M178.18 194.53c-.19-1.18.27-.79 1.25-.83-2.53-1.81.5-5.33 2.48-3.62s-2.3 2.83-.82.51c-1.93-.28-1.27 2.62-.01 3.02 1 .31 1.94-.44 1.67.92z"/><path fill="#897852" d="M194.51 203.08c2.33-.7 2.94 2.4 1.11 2.98-2.16.68-2.72-2.5-1.11-2.98m-138.93.43c1.42-1.43 3.63.69 2.32 2.22s-3.84-.7-2.32-2.22"/><path fill="#735d46" d="M217.13 168.87c1.75 2.17-2.64 3.72-2.44.88.1-1.38 1.68-1.82 2.44-.88M74.35 190.01c2.03-.42 2.29 2.74.35 2.86-1.68.11-2.14-2.49-.35-2.86m36.53 0c1.94-.59 2.66 2.46.69 2.78-1.78.28-2.28-2.29-.69-2.78m-63.3 0c1.9-.57 2.75 2.44.69 2.78-1.84.3-2.17-2.33-.69-2.78m22.83 0c2.11-.43 2.28 2.55.53 2.83s-2.19-2.49-.53-2.83m45.87 2.39c-1.13 1.07-3.44-.48-2.12-2.01s3.45.75 2.12 2.01m-63.3 0c-1.31 1.24-3.46-.88-2.02-2.12s3.3.9 2.02 2.12m11.2-2.59c2.62-.77 2.62 3.38 0 2.61-1.07-.31-1.07-2.29 0-2.61"/></svg>