<svg xmlns="http://www.w3.org/2000/svg" viewBox="96.63 88 126.8 143.97"><defs><linearGradient id="a" x1="116.03" x2="198.05" y1="113.59" y2="195.61" gradientUnits="userSpaceOnUse"><stop offset="0" stop-color="#54565a"/><stop offset="1" stop-color="#54565a" stop-opacity=".5"/></linearGradient><linearGradient id="b" x1="159.16" x2="159.16" y1="93.96" y2="163.76" gradientUnits="userSpaceOnUse"><stop offset="0" stop-color="#fff" stop-opacity=".5"/><stop offset=".21" stop-color="#bed4ed" stop-opacity=".37"/><stop offset=".57" stop-color="#578fd0" stop-opacity=".17"/><stop offset=".85" stop-color="#1865be" stop-opacity=".05"/><stop offset="1" stop-color="#0055b8" stop-opacity="0"/></linearGradient></defs><path fill="#e87200" d="m199.83 166.54 2.46 6.16s-39.24-20.41-91.32 6.51c-.31-.26.57-.7 2.6-2.36 2.26-1.86 4.6-3.58 7.04-5.19 15.55-10.22 35.23-14.92 53.75-13.13 5.63.54 11.24 1.53 16.6 3.39 2.57.89 5.23 2.17 8.87 4.62"/><path fill="#0055b8" d="m149.64 171.49h3.08l4.01 5.9v-5.9h3.11v10.66h-3.11l-3.99-5.85v5.85h-3.1z"/><path fill="#54565a" d="M169.84 180.4h-3.74l-.52 1.76h-3.36l4.01-10.66h3.59l4.01 10.66h-3.45l-.53-1.76Zm-.68-2.31-1.18-3.83-1.16 3.83z"/><path fill="#e87200" d="M176.55 171.49h6.17c1.03 0 1.82.25 2.37.76s.83 1.14.83 1.89c0 .63-.2 1.17-.59 1.62-.26.3-.64.54-1.15.71.77.19 1.33.5 1.69.95s.54 1.01.54 1.69a2.88 2.88 0 0 1-1.44 2.54c-.28.16-.69.28-1.25.35-.74.1-1.23.14-1.48.14h-5.69v-10.66Zm3.32 4.19h1.43c.51 0 .87-.09 1.07-.27s.3-.43.3-.77c0-.31-.1-.55-.3-.73-.2-.17-.55-.26-1.05-.26h-1.45v2.02Zm0 4.18h1.68q.855 0 1.2-.3c.23-.2.35-.47.35-.81a.95.95 0 0 0-.35-.76c-.23-.19-.63-.29-1.21-.29h-1.67z"/><path fill="rgba(84,86,90,.5)" d="M109.2 138.88c-6.77-20.99 10.41-26.37 10.41-26.37 18.91-5.73 40.95 8.33 40.95 8.33l29.84 23.6c13.14 13.68 16.79 24.65 16.85 32.58.04-8.06-3.6-19.29-17.09-33.33l-30.27-23.93s-22.35-14.25-41.53-8.45c0 0-17.42 5.45-10.56 26.75 0 0 9.5 30.44 42.76 49.27 0 0 18.54 10.78 34.76 10.68-15.92-.04-33.97-10.53-33.97-10.53-32.79-18.56-42.16-48.58-42.16-48.58Z"/><path fill="url(#a)" d="M207.24 177c-.05-7.92-3.71-18.89-16.85-32.58l-29.84-23.6s-22.03-14.05-40.95-8.33c0 0-17.18 5.38-10.41 26.37 0 0 9.37 30.02 42.16 48.58 0 0 18.05 10.49 33.97 10.53 6.29-.04 12.24-1.71 16.62-6.28 0 0 5.25-5.1 5.3-14.7Zm-37.23 16.63c-9.66-2.29-18.76-6.96-26.84-12.65-7.68-5.41-14.69-12.88-18.14-21.73-2.94-7.56-5.19-16.28-2.27-24.19 2.8-7.59 9.66-12.46 17.65-13.06 4.37-.33 9.5.22 13.7 1.52 1.23.38 2.48.78 3.66 1.32l33.26 21.64c8.97 6.86 12.14 21.81 12.14 21.82 1.67 7.9.95 15.49-4.38 21.8-6.72 7.95-19.99 5.61-28.79 3.53Z"/><path fill="#0055b8" d="m172.38 90s-13.02 43.99-43.81 72.32c0 0 22.88-10.91 30.44-10.38 0 0 11.44-13.02 13.37-19.36l6.16 17.42s13.02 1.58 15.31 2.82z"/><path fill="url(#b)" d="M172.16 93.96s-15.44 46.19-45 69.8c0 0 27.31-12.47 34.05-12 0 0 9.23-10.33 10.95-15.97l5.54 17.16s11.42.51 13.46 1.61l-19.01-60.6Z"/><path fill="#0055b8" d="M134.58 206.11c0 .48.12 2.24.34 5.44l.23 6.09q.24 3.46.23 3.71v.23c0 .77-.08 1.47-.13 1.94 0 .15 0 .28-.02.39-.01.19-.02.33.02.44.01.17.13.18.16.18.09 0 .15-.06.23-.21.02-.04.05-.08.07-.13.07-.12.15-.27.2-.41.5-1.19.75-2.63.75-4.4v-.09c.05-.08.05-.34-.14-3.33-.28-3.53-.42-8.42-.46-9.01.33.38.59.57.77.57.1 0 .23-.07.23-.26 0-.12-.04-.23-.09-.37-.02-.04-.03-.09-.05-.13-.04-.17-.22-.83-.74-2.09-.4-1.06-.66-1.71-.8-2-.02-.12-.14-.23-.26-.23-.04 0-.16.01-.26.22-.41 1.14-.54 1.59-.54 1.78 0 .02 0 .04.01.05.18.41.26.91.26 1.62Zm22.61 5.62h.27c.07 0 .13-.06.13-.13v-.4c0-.32 0-.52-.18-.53-.38-.13-.64-.26-.79-.33-.12-.04-.16-.07-.17-.07.04-.06.28-.2.51-.33l.16-.09c.59-.33 3.25-1.33 8.07-3.14 6.15-2.32 9.33-3.53 9.36-3.55.02 0 .03-.02.05-.03.08-.08.22-.3.36-.64.08-.15.08-.24.08-.26 0-.07-.06-.13-.13-.13s-.17 0-.31.07c-1.86.66-3.72 1.35-5.51 2.01-1.33.49-2.66.99-3.98 1.47-5.09 1.88-7.77 2.95-8.13 3.16-.28.21-.55.48-.84.85-.25.5-.35.8-.35 1.06 0 .29.18.82 1.4 1Zm.02-8.1c.38-.06.64-.07.65-.07.97 0 1.37.05 1.52.1h-.01c-.05.05-.41.3-1.03.64-.78.35-1.14.54-1.31.75-.13.07-.2.14-.21.14a.14.14 0 0 0-.03.15c.02.05.07.08.12.08.02 0 .1 0 .37-.07.33-.1.61-.18.86-.24.65-.18 1.04-.29 1.27-.46.27-.27.68-.68 1.02-1.16.49-.74.49-.83.49-.88 0-.45-.72-.67-2.21-.67-.41 0-.67 0-.8.14-.28.01-.5.11-.69.3 0 0-.02.02-.02.03l-.4.74c-.08.15-.08.24-.08.26 0 .2.18.2.49.2Zm9.1 8.09c-.17.23-.4.41-.68.63l-.09.07c-.39.26-.8.53-1.2.74-.06.04-.22.12-.39.21-.85.44-1 .56-1 .7 0 .07.06.13.13.13q.33 0 .66-.21c.3-.08.62-.21.8-.34.47-.2.95-.41 1.37-.75.34-.27.62-.55.84-.85.04-.09.09-.17.13-.25.09-.16.18-.33.28-.57.04-.12.06-.24.08-.36.01-.1.03-.2.06-.33.15-.99.36-1.22.4-1.23.02.01.06.1.08.15.04.11.1.25.25.25.04 0 .07-.01.09-.04.07-.07.16-.17.17-.27.06-.2.07-.28.07-.3 0-.27-.32-.67-.6-.67-.23 0-.53.35-.67.71l-.05.25c-.06.3-.11.54-.16.73-.08-.34-.2-.62-.35-.82-.22-.37-.46-.53-.78-.53-.02 0-.04 0-.06.01-.32.16-.4.4-.47.61v.04c0 .12.08.2.33.45.06.04.26.16.4.16.05 0 .1-.02.13-.04.05.07.13.21.22.49l.12.28c.1.23.18.42.2.51-.03.06-.08.12-.13.18-.05.07-.11.15-.17.23Zm-31.9-10.89c-.06.06-.13.1-.21.15s-.17.1-.24.17c-.24.12-.36.18-.46.18-.02 0-.09-.03-.15-.05s-.13-.05-.19-.07c-.1-.05-.18-.14-.2-.14s.04-.06.2-.16c.04-.02.07-.04.1-.06.08-.04.11-.06.17-.06.05 0 .08 0 .14.18 0 .02.02.04.03.05.05.05.09.09.16.09s.12-.04.18-.11c.14-.21.22-.44.22-.61 0-.4-.18-.6-.53-.6-.31 0-.67.28-1.1.84-.25.19-.37.47-.37.83 0 .23.17.43.48.58-.41.35-.41.44-.41.47l-.07.36c0 .13.1.2.2.2.12 0 .21-.09.21-.09l.59-.4c.73-.5 1.22-.84 1.51-1.02.1-.1.17-.26.24-.56v-.13s-.01-.07-.04-.09a.19.19 0 0 0-.15-.07c-.07 0-.13.03-.19.07-.02.01-.05.03-.07.04-.01 0-.02.02-.03.03Zm7.4 7.96v.54c0 .65-.07 1.25-.19 1.76-.27.64-.4 1.1-.49 1.38-.02.07-.04.13-.05.17v.04c0 .09-.02.21-.03.32-.02.12-.03.24-.03.35 0 1.05.4 1.27.74 1.27.61 0 .85-.84 1-1.61v-.07c0-.07-.06-.13-.13-.13-.11 0-.18.08-.2.16-.17.33-.33.51-.47.51-.23 0-.27-.38-.27-.6 0-.32.13-.91.4-1.77.27-.87.41-1.62.41-2.18v-.55c-.07-.78-.14-1.3-.28-1.65-.22-.44-.5-.91-1.03-1.37-.05-.05-.09-.09-.16-.09s-.12.04-.16.09l-.03.03-.26.52c-.1.12-.1.26.02.37q1.23 1.23 1.23 2.52Zm36.62 1.81s-.07.03-.09.06l-.73 1.22-1.56-1.06s-.07-.03-.1-.02c-.04 0-.07.03-.09.06l-1 1.54a.13.13 0 0 0 .04.18l1.81 1.2s.05.02.07.02h.03c.04 0 .07-.03.08-.06l.73-1.16 1.63 1.06s.07.03.1.02c.04 0 .07-.03.08-.06l.94-1.61a.13.13 0 0 0-.04-.18l-1.81-1.2s-.07-.03-.1-.02Zm32.87-4.36c.32 0 .57-.16.71-.46.14-.2.22-.5.22-.74 0-.02.02-.06.03-.09.02-.06.04-.12.04-.18 0-.21-.09-.25-.17-.25-.12 0-.19.13-.22.23-.1.05-.2.09-.29.09-.05 0-.2 0-.2-.27 0-.35.22-.72.58-1.34.08-.14.17-.29.26-.45.15-.15.28-.35.34-.55.06-.07.05-.13.03-.17-.02-.05-.1-.1-.15-.1-.1 0-.21.08-.36.24l-.03.03c-.06.11-.11.17-.24.3 0 0-.02.02-.02.03-.06.11-.14.22-.23.34-.18.26-.38.55-.51.86-.32.52-.49 1.02-.49 1.48 0 .87.42 1 .67 1Zm-33.78 3.53s.05.02.07.02h.03c.03 0 .06-.03.08-.06l.94-1.61a.13.13 0 0 0-.04-.18l-1.81-1.2s-.07-.03-.1-.02c-.03 0-.07.03-.08.06l-1.07 1.61s-.03.07-.02.1c0 .04.03.07.06.08zm34.06-2.31s-.08.13-.14.22c-.24.36-.34.53-.34.64 0 .04.02.08.06.11.02.02.05.02.08.02h.04c.68-.24 2.78-1.02 8.95-3.42l.15-.06s.04-.02.06-.04c.04-.06.41-.55.48-.69 0-.02.01-.04.01-.06v-.07c0-.07-.06-.13-.13-.13h-.12c-1.31.5-7.75 2.94-9.03 3.41a.12.12 0 0 0-.07.07m-12.72-2.84s.05.02.07.02c.04 0 .09-.02.11-.06l.94-1.54a.13.13 0 0 0-.04-.18l-1.81-1.14a.13.13 0 0 0-.18.04l-1 1.54s-.03.07-.02.1c0 .04.03.07.06.08zm-9.07-.18c.38-.06.58-.07.58-.07.76 0 1.1.05 1.25.08-.08.05-.22.12-.35.2-.15.08-.32.17-.5.28l-.39.21c-.41.23-.66.36-.78.48l-.13.13s-.05.1-.03.15.07.08.12.08c.02 0 .1 0 .3-.07l.19-.05c.9-.24 1.39-.37 1.68-.59.2-.2.54-.54.81-.95.27-.33.43-.7.43-.82 0-.38-.54-.53-1.87-.53-.34 0-.53 0-.65.07-.24.01-.46.12-.65.31l-.03.03-.33.65c-.09.1-.09.19-.09.21 0 .2.19.2.42.2Z"/><path fill="#0055b8" d="M191.64 215.48c2.96 0 6.15-.57 9.74-1.75 2.84-.99 4.64-1.81 5.33-2.44.43-.43.72-.83.97-1.31.2-.46.28-1.03.28-1.93 0-1.52-.41-2.81-1.23-3.83-.74-1.01-1.59-1.53-2.52-1.53-.61 0-1.18.39-1.65 1.13-.51.7-.76 1.45-.76 2.29 0 .56.14.99.44 1.37.39.39.83.57 1.37.57h1.4c.57 0 1.03.1 1.41.32.39.22.63.55.66.88-1.19.65-2.98 1.38-5.32 2.16-3.57 1.17-6.57 1.73-9.19 1.73-2.22 0-3.95-.45-5-1.31-.69-.56-1.02-1.19-1.02-1.9 0-.68.09-1.22.26-1.63.13-.39.26-.79.46-1.18 0-.01 0-.02.01-.03.03-.13.05-.23.07-.32.04-.16.06-.27.06-.37s-.07-.2-.2-.2-.22.11-.52.61c-.64 1.21-.95 2.43-.95 3.74s.34 2.33 1.03 3.16c1 1.2 2.59 1.79 4.85 1.79Zm13.7-9.66-.49-.03a7 7 0 0 1-.77-.08c-.47 0-.74-.17-.74-.47 0-.23.38-.27.6-.27.51 0 .96.27 1.4.85m-86.87 2.5h.04l.62-.21c.26-.13.52-.26.8-.33l.24-.12c.34-.17.73-.35 1.12-.63.31-.25.52-.51.75-.8l.08-.1c.16-.24.29-.53.35-.77.07-.2.14-.41.21-.69.05-.34.19-1.23.4-1.23.03 0 .05.05.09.12.04.09.11.22.25.22.02 0 .04 0 .06-.01.06-.03.19-.11.21-.23.06-.19.07-.27.07-.3 0-.27-.32-.67-.6-.67s-.51.25-.66.69c-.12.36-.2.66-.25.91-.09-.29-.22-.54-.31-.73-.2-.33-.49-.53-.78-.53-.02 0-.04 0-.06.01-.28.14-.47.31-.47.65 0 .12.09.21.24.36.05.05.26.19.41.19.06 0 .11-.02.15-.05.07.08.18.27.27.54.06.21.12.39.17.52.05.14.09.26.09.31 0 .08-.13.21-.23.31l-.78.79c-.2.13-.41.25-.62.36-.22.12-.44.24-.65.37-.05.04-.18.1-.32.17-.74.38-1.01.55-1.01.74 0 .04.02.08.06.11.02.02.05.03.08.03Zm62.93 18.13c-.14 0-.18.11-.21.18 0 .02-.02.05-.03.08-.07.08-.13.21-.08.41h-.21c0-.06.02-.1.04-.14.01-.04.03-.08.03-.13 0-.18-.2-.26-.29-.16l-.13.13-.03.03-.2.4c-.03.05-.08.06-.28.06-.13 0-.26-.01-.38-.03-.12-.01-.24-.03-.37-.03-.32 0-.58.08-.88.28-.28.25-.58.57-.85.85-.24.26-.47.5-.63.63-.13.13-.34.27-.55.4-.18.12-.36.23-.46.33a.14.14 0 0 0-.03.15c.02.05.07.08.12.08.53 0 .9-.24 1.23-.51.12-.12.23-.24.35-.37.35-.37.7-.75 1.07-.94.2-.07.4-.06.65-.03.15.02.31.03.52.03.22 0 .54-.12.76-.36.26.15.56.15.78 0 .04-.03.06-.06.06-.11l.03-.06c.03-.05.06-.13.09-.22.08-.16.08-.38.08-.53 0-.16 0-.32-.11-.43a.12.12 0 0 0-.09-.04Zm-33.38-23.74c-.23-.57-.4-1-.53-1.33s-.21-.55-.28-.69a.9.9 0 0 0-.16-.24.12.12 0 0 0-.09-.04c-.13 0-.25.1-.27.31-.45 1.05-.6 1.5-.6 1.77 0 .02 0 .04.01.06.2.41.32 1 .32 1.61 0 .43.15 2.87.4 6.7.27 4.13.53 9.26.53 9.89 0 .46-.07.73-.23.84-1.27 1.2-5.73 5.12-9.81 5.12-1.68 0-2.93-.59-3.7-1.74-.9-1.46-.94-3.24-.13-5.42q.21-.435.21-.66c0-.22-.11-.27-.2-.27-.12 0-.23.1-.52.68-1.14 2.28-1.11 5.52.07 7.55.82 1.51 2.21 2.28 4.13 2.28 3.88 0 7.79-2.61 9.94-5.2.57-.73.91-1.4 1.09-2.12.23-.87.34-2.43.34-4.92 0-.64-.2-5.14-.4-7.91-.17-2.37-.29-3.71-.33-4.05.51.61.69.61.76.61.08 0 .15-.04.19-.1.03-.05.05-.11.05-.19 0-.07 0-.22-.07-.43-.06-.24-.28-.85-.74-2.09Zm35.52 16.18c-.14 0-.18.11-.21.18-.01.03-.02.06-.05.11-.16.57-.3.97-.38 1.2-.07.21-.09.26-.09.3 0 .12.09.28.24.43.05.05.11.11.14.15-.14.14-.43.23-.79.23-.31 0-.68-.12-.91-.3-.37-.37-.43-.56-.43-.61 0 0 .07-.27.2-.87.06-.22.07-.38 0-.48a.23.23 0 0 0-.19-.09c-.19 0-.29.1-.45.26-.17.27-.35.55-.53.83s-.37.57-.53.82c-.58.71-1.21 1.02-2.04 1.02-1.42 0-1.61-.54-1.61-1 0-.16.05-.47.2-.84.05-.21.04-.36-.04-.46-.05-.07-.13-.1-.22-.1-.12 0-.28.09-.42.23-.86.66-1.79 1.19-2.78 1.59-1.24.48-2.35.73-3.3.73-1.7 0-2.62-.4-3.93-1.71-.33-.26-.65-.59-.94-.94-.69-.54-1.15-.76-1.55-.76-.92 0-1.85.61-2.71 1.76-.06-.02-.12-.02-.17-.02a.71.71 0 0 0-.57.32c-.36.46-.67.75-.92.99-.08.07-.14.14-.2.19-.77.63-1.6.98-2.35.98-.96 0-1.74-.58-2.26-1.67-.48-1.02-.8-2.88-.92-5.37-.02-.62-.05-1.25-.07-1.88-.1-2.9-.2-5.91-.54-8.77-.19-1.93-.52-3.41-.95-4.26-.09-.18-.17-.34-.32-.34-.05 0-.1.03-.12.07l-.14.28c-.32.76-.48 1.34-.48 1.72 0 .02 0 .03.01.05.32.78.59 2.03.79 3.71.25 2.96.38 6.07.51 9.08l.02.55c.12 3.04.42 5.45.81 6.46.59 1.69 1.92 2.74 3.47 2.74.98 0 1.94-.43 2.71-1.23.23-.28.46-.62.79-1.14 1.72 1.64 3.04 2.4 4.12 2.4.39 0 .76-.23 1.04-.65.34-.4.47-.98.54-1.49 1.14.96 2.28 1.34 3.98 1.34 1.02 0 2.12-.27 3.27-.82.83-.39 1.59-.85 2.31-1.43.09-.09.13-.13.17-.15.07 1.48.88 2.26 2.34 2.26 1.22 0 2.21-.65 2.94-1.93.46.81 1.05 1.26 1.67 1.26.86 0 1.57-.43 1.99-1.21.37-.67.55-1.43.55-2.34 0-.16-.08-.46-.21-.79-.17-.43-.33-.62-.53-.62Zm-21.94 2.54.13-.08c.24-.12.5-.19.61-.19.31 0 .52.12.71.43.22.22.36.5.43.84v.33c-.17 0-.56-.13-1.13-.52-.48-.3-.78-.54-.96-.7l.21-.13Z"/><path fill="#0055b8" d="M127.23 211.46c-.61 0-1.18.39-1.65 1.13-.51.7-.76 1.45-.76 2.29 0 .56.14.99.44 1.37.39.39.83.57 1.37.57h1.4c.42 0 .94.12 1.41.32.44.25.64.48.67.76a14.4 14.4 0 0 1-2.86 1.68c-.66.28-1.21.51-1.75.72-1.07.43-1.99.79-3.07 1.42-1.19.6-2.15 1.33-2.92 2.24-.6.67-1.15 1.35-1.66 2-.9.83-1.74 1.24-2.58 1.24-.48 0-.81-.15-1.03-.48-.26-.33-.37-.7-.37-1.26 0-.62.24-1.57.73-2.9v-.05c0-.08.03-.17.08-.25.34.05.68.08 1.01.08 1.45 0 2.56-.5 3.04-1.36.33-.53.49-1.32.49-2.41 0-1.31-.15-2.41-.91-3.51a.22.22 0 0 0-.16-.07c-.18 0-.28.22-.37.39l-.02.05c-.28.55-.42 1.11-.42 1.67 0 .06.02.11.04.18 0 .03.03.08.03.09 0 .03 0 .05.02.07.41.64.88 1.41.91 1.71-.29.55-1.24.88-2.56.88-.36 0-.73-.03-1.02-.07.51-.72.77-1.75.77-3.05 0-.68-.09-1.21-.28-1.72-.3-.74-.68-1.09-1.19-1.09s-1.17.51-1.84 1.46c-.73.93-1.1 1.95-1.1 3.03 0 .54.04 1.09.28 1.54-.3.12-.62.18-.95.18-.49 0-.94-.14-1.26-.4-.36-.28-.54-.7-.54-1.19 0-.13 0-.17.05-.28 0-.02.01-.04.01-.06 0-.06.02-.13.04-.18.02-.06.03-.1.03-.15 0-.22-.13-.33-.27-.33-.12 0-.22.1-.97.85-.49.62-.79.91-.86.96-.02 0-.04.01-.05.03-.65.52-1.42.8-2.16.8-1.11 0-2.05-.59-2.58-1.62-.48-1.02-.8-2.88-.92-5.37-.03-.7-.03-1.21-.03-1.74s0-1.07-.03-1.8c-.07-2.24-.13-3.75-.2-4.49-.19-1.93-.52-3.41-.95-4.26q0-.015-.03-.03a.4.4 0 0 1-.1-.15c-.03-.06-.08-.16-.19-.16-.14 0-.18.13-.21.22-.01.04-.02.08-.05.13-.36.87-.55 1.37-.55 1.72 0 .02 0 .04.01.06.39.78.66 2.02.79 3.7.07.52.13 2.23.27 7.01.12 3.04.42 5.45.81 6.46.62 1.73 1.94 2.8 3.43 2.8.88 0 1.78-.37 2.6-1.08.49-.49.84-.89 1.08-1.27.53 1.26 1.35 1.95 2.49 2.11.87.08 1.71-.19 2.63-.85.35.16.74.28 1.21.4-.54 1.31-.82 2.49-.82 3.52 0 .96.28 1.8.84 2.5.58.65 1.22.98 1.91.98.9 0 1.74-.48 2.57-1.45 1.6-1.83 2.65-2.83 3.12-3.26.39-.26 1.13-.67 2.19-1.19.8-.37 1.58-.71 2.34-1.04s1.54-.67 2.35-1.04c1.75-.84 2.68-2.38 2.62-4.34-.07-1.48-.51-2.77-1.3-3.82-.74-1.01-1.59-1.53-2.52-1.53Zm1.13 3.13c-.48-.04-.88-.04-1.15-.04h-.1c-.66-.07-.75-.3-.75-.54s.38-.27.6-.27c.5 0 .99.3 1.4.85m-15.31 4.75c-.24-.13-.48-.31-.71-.48-.24-.24-.36-.47-.42-.64.14-.33.47-.77.89-1.19.56-.66.79-.69.84-.69s.23.05.48.73c.25.5.31.88.32 1.11-.26.43-.7.8-1.4 1.16m107.94-3.91c-.36-.87-.88-1.29-1.59-1.29-.57 0-1.14.28-1.7.84-.47.47-.75.85-.94 1.25-.19.06-.38.31-.49.66-.29.58-.47.97-.58 1.21-.04.09-.07.15-.08.18-.19.31-.38.57-.7.83-.95.74-2.41 1.1-3.69 1.42l-.38.09c.54-.54.9-1.04 1.13-1.55.29-.58.42-1.14.42-1.87 0-.54-.35-1.14-1.11-1.9-.84-.84-1.81-1.24-2.97-1.24-1.25 0-2.54.87-3.85 2.6-.59.79-1.41 2.22-2.61 4.43-.49-.37-.99-.74-1.56-1.12-.66-.43-1.3-.64-1.94-.64-.38 0-.77.07-1.19.22-3.16 1.21-5.2 3.31-7.34 5.73-.69.8-1.55 1.23-2.51 1.23-.48 0-.81-.15-1.03-.49-.25-.32-.37-.69-.37-1.19 0-.77.23-1.79.66-2.96.55-1.41.74-1.99.74-2.19 0-.12-.09-.21-.11-.23a.12.12 0 0 0-.09-.04c-.13 0-.2.11-.3.27l-.08.13c-1.06 2.05-1.62 3.83-1.62 5.15 0 .96.28 1.8.84 2.5.59.66 1.23.98 1.97.98.87 0 1.76-.5 2.58-1.45 1.86-2.17 3.94-4.35 7.09-5.18.69-.2 1.22-.12 2.04.33.08.04.38.25.79.55.2.15.44.32.72.52-.2.53-.31.89-.31 1.16 0 .18.09.28.11.29.03.03.06.04.09.04.3 0 .59-.71.75-1.23.74.29 1.46.42 2.26.42 1.88 0 3.55-.21 5.25-.67.28-.07.6-.14.93-.22 1.57-.35 3.53-.79 4.55-1.76.69-.63 1.23-1.44 1.64-2.5 1.35.98 2.6 1.46 3.82 1.46.34 0 .65-.32.86-.89.23-.61.34-1.23.34-1.85 0-.82-.14-1.52-.41-2.06Zm-3.33 1.4s.05-.08.14-.17c.26-.13.51-.18.86-.18.23 0 .45.1.66.31.27.2.43.44.48.7 0 .1.03.18.05.23 0 .01.01.03.01.04 0 .06 0 .07-.07.07s-.08 0-.11-.03q-.03-.03-.06-.03c-.8-.2-1.48-.52-1.96-.93Zm-13.38 4.87c-.55 0-1.09-.1-1.55-.27 1.76-3.42 3.5-5.15 5.17-5.15.77 0 1.55.33 2.33.98.68.49 1.01.89 1.07 1.12-.02.01-.03.02-.04.04-.38.64-1.24 1.3-2.62 2.02-1.69.85-3.12 1.26-4.35 1.26Zm15.38 2.41c-.23 0-.39.07-.56.24-.13.13-.2.26-.27.38-.05.03-.08.07-.1.1-.01.02-.02.03-.04.05-.01 0-.02.02-.03.03l-.2.4c-.07.15-.26.45-.49.62-1.11.7-2.38 1.31-4 1.93-.27.13-.39.19-.64.26-.07.02-.11.08-.1.15 0 .07.07.12.13.12.27 0 .56 0 .76-.07 1.14-.23 3.5-.7 4.37-1.94.14-.24.26-.52.33-.7 0-.01 0-.02.01-.03.31.21.68.33 1.01.33.18 0 .29-.21.32-.27.08-.16.08-.38.08-.59s0-.43-.08-.6c-.14-.28-.31-.41-.52-.41Zm-.31.82s.03-.02.04-.02c.07 0 .11.03.17.09.02.02.03.03.04.07v.02c-.1-.04-.21-.08-.3-.14.02 0 .03-.01.05-.02m-9.25.45c-.23 0-.52.14-.9.44l-.63.63h-.58c-.36.09-.69.26-.98.49-.27.2-.62.48-.89.82-.31.37-.66.79-.85.92-.32.27-.6.45-.8.58l-.12.08c-.19.13-.32.19-.32.19-.06.03-.08.09-.07.15s.07.1.13.1h.07s.22 0 .51-.07c.13-.04.46-.17.71-.43.21-.17.41-.38.61-.58.19-.19.4-.4.6-.57.49-.49.92-.7 1.44-.7h.3c.14.07.23.07.36.07.48 0 .91-.13 1.36-.43.43-.36.65-.73.65-1.11s-.22-.6-.6-.6Zm-.23.94c-.05.02-.11.05-.16.08-.23.11-.46.18-.68.19.41-.37.7-.47.8-.47.17 0 .25.03.3.06-.06.04-.15.09-.26.14m-80.9-2.61c-.11 0-.2.11-.29.23-.03.03-.05.06-.07.08-.01 0-.02.02-.03.03-.06.12-.12.17-.26.33-.3.49-.52.91-.67 1.28-.36.73-.42 1.23-.42 1.67 0 .93.38 1.07.6 1.07.29 0 .55-.19.73-.56.06-.18.13-.45.14-.73.07-.1.07-.24.07-.31 0-.21-.09-.25-.17-.25-.12 0-.2.15-.22.25-.08.07-.16.07-.21.07-.06 0-.2 0-.2-.33 0-.39.3-1.03.78-1.93.14-.2.28-.42.35-.63v-.11s-.01-.07-.04-.09-.06-.04-.09-.04Z"/><path fill="#0055b8" d="M113.55 207.65s-.07.03-.08.06l-.73 1.16-1.49-.99c-.06-.04-.14-.03-.18.03l-1.07 1.47s-.03.07-.02.1.03.07.06.09l1.81 1.2s.05.02.07.02h.03c.03 0 .07-.03.08-.06l.73-1.1 1.56 1s.07.03.1.02c.04 0 .07-.03.08-.06l.94-1.61a.13.13 0 0 0-.04-.18l-1.74-1.14s-.07-.03-.1-.02Zm-10.67.27h.05c1.55-.61 13.29-5.01 14.44-5.42.03 0 .05-.02.06-.05.04-.06.42-.56.49-.77v-.11c0-.07-.06-.13-.13-.13h-.12c-1.33.51-13.1 4.95-14.37 5.35-.03.01-.06.04-.08.07-.02.04-.07.12-.12.21-.25.41-.36.61-.36.72 0 .04.02.09.06.11.02.02.05.02.08.02m2.35 3.49c-.76.35-1.16.55-1.38.76l-.13.13s-.05.1-.03.15.07.08.12.08c.02 0 .1 0 .37-.07.3-.09.57-.16.8-.23.7-.2 1.09-.3 1.26-.48.27-.27.68-.68 1.01-1.14.34-.41.5-.77.5-.89 0-.46-.68-.67-2.14-.67-.43 0-.66 0-.78.07-.34.02-.65.22-.74.4l-.39.72c-.14.14-.16.24-.16.28 0 .2.22.2.49.2.45-.06.65-.07.65-.07 1.1 0 1.46.07 1.57.11-.06.04-.27.17-.47.29-.17.1-.36.22-.55.34Zm5.48 14.26a.13.13 0 0 0-.18.04l-.79 1.16-1.49-1.06s-.07-.03-.1-.02c-.04 0-.07.03-.09.06l-1.07 1.54s-.03.07-.02.1.03.07.06.09l1.87 1.2s.05.02.07.02h.03c.04 0 .07-.03.08-.06l.66-1.09 1.62 1.06s.07.03.1.02c.04 0 .07-.03.08-.06l.94-1.67c.03-.06.02-.14-.04-.18l-1.74-1.14Zm-6.89 0a.13.13 0 0 0-.18.04l-.79 1.16-1.49-1.06s-.07-.03-.1-.02c-.04 0-.07.03-.09.06l-1 1.54a.13.13 0 0 0 .04.18l1.81 1.2s.05.02.07.02h.03c.03 0 .07-.03.08-.06l.73-1.09 1.63 1.07s.07.03.11.02c.04 0 .07-.03.08-.07l.87-1.67c.03-.06.01-.14-.05-.17l-1.74-1.14Zm22.34-17.5s.04.02.07.02h.03c.03 0 .06-.03.08-.06l.94-1.61a.13.13 0 0 0-.04-.18l-1.81-1.2s-.07-.03-.1-.02c-.04 0-.07.03-.08.06l-1.07 1.67s-.03.07-.02.1c0 .04.03.07.06.08z"/></svg>