<?xml version="1.0" encoding="UTF-8"?>
<svg viewBox="37.77 88.00 244.46 143.99" xmlns="http://www.w3.org/2000/svg">
<path d="M151.39 143.68c-2.61 2.24-5.6 4.03-8.93 4.97-16.4 4.63-31.57-9.97-27.62-26.54 2.33-9.77 11.57-17 21.66-16.83-.39 2.38-.91 4.74-.72 7.18-14.34.38-19.88 19.43-7.77 27.42 12.1 7.99 27.48-4.18 22.39-17.73-.75-2.01-2.21-3.52-2.99-5.44-1.1-2.7-1.35-5.75-.5-8.55.37-.26 3.12 1.85 3.59 2.24 3.54 2.95 7.89 9.64 7.89 14.36v25.39h-7v-6.46Zm16.15 0v6.46h-7v-14.71c2.87-.08 5.64-.84 8.32-1.78 2.36 4.41 6.29 7.79 11.36 8.57 11.86 1.83 21.13-10.26 16.01-21.21-4.54-9.7-17.73-11.53-24.83-3.53-1.28 1.44-1.96 3.14-3.49 4.4-1.9 1.57-4.71 2.68-7.18 2.78 2.02-16.57 21.1-25.04 34.87-15.22 4.91 3.5 8.64 9.77 9.09 15.85 1.51 20.49-21.9 31.84-37.14 18.39Z" fill="#067937"/>
<path d="M200.82 153.54c.68.05 1.75.26 2.42.45 2.5.72 3.13 3 2.87 5.38-.17 1.56-1.31 2.33-2.33 3.32 3.39 1.22 3.27 6.9.09 8.26-.28.12-1.6.53-1.8.53h-24.85v-17.94zm-20 7.36h20.01c.05 0 .8-.44.9-.53.72-.68.64-2.43-.18-3.06-.2-.16-1.08-.53-1.26-.53h-19.2s-.27.25-.27.27v3.86Zm0 7.36h20.01c.05 0 .8-.44.9-.53 1.04-.97.27-3.59-1.08-3.59h-19.56s-.27.25-.27.27v3.86Zm-98.88 18.3v8.25h14.09c1.87 0 4.22 2.77 4.22 4.58v3.32h-47.1c-.5 0-1.7-1.28-1.7-1.7v-5.11c-4.53 1.33-1.33 6.35-3.13 9.7-.43.81-1.99 1.96-2.88 1.96h-4.76c-.09-.54.14-.28.42-.38 1.14-.39 2.44-.54 3.47-1.2 2.69-1.71 1.27-5.6 1.68-8.19.43-2.76 5.31-5.26 7.88-5.48v6.73c0 1.07 2.31 1.09 3.05.99v-5.11c0-.16 2.06-2.13 2.33-2.33.18-.14.23-.35.54-.27v7.71h19.2V189c0-.15 1.89-1.96 2.15-2.15.18-.14.23-.35.54-.27Zm15.43 13.45c.35-.86-.99-2.51-1.7-2.51H81.94v2.51zm177.65-13.27v15.97h-3.86c-.11 0-.83 1.39-1.28 1.77-2.23 1.85-5.4.79-6.46-1.77h-39.99c-.7.14-.39 1.16-.53 1.81-.27 1.28-1.91 3.04-3.24 3.04h-4.93c.93-.76 2.34-.73 3.48-1.28 1.52-.73 2.11-1.83 2.26-3.48.12-1.27-.26-3.79.04-4.8.16-.54 1.96-1.88 2.48-2.28v4.31h19.74v-5.11c0-.19 2.35-2.28 2.69-2.6v2.51h11.57c1.51 0 3.41 1.91 3.87 3.31.12.36.29 1.81.37 1.87.08.07 1.98.06 2.2 0 .31-.1.42-.68.66-.96 1.94-2.26 4.52-2.24 6.46 0 .62.71.3 1.24 1.79.99v-11.21l2.69-2.06Zm-16.5 13.27c.07-.84-1.06-2.51-1.88-2.51h-11.22v2.51zm8.73.06c-1.76.1-1.61 2.96.32 2.64 1.44-.24 1.29-2.73-.32-2.64" fill="#0d4155"/>
<path d="M145.59 94.54c.21-.06.38-.03.51.16l3.29 5.86c-.61.87-1.37 1.56-1.99 2.44-3.35 4.8-3.64 10.71-.89 15.86.51.96 1.33 1.86 1.8 2.86 1.28 2.68 1.8 6.47.65 9.22-12.14-6.56-15.2-22.78-6.36-33.46.39-.47 2.62-2.84 2.99-2.94" fill="#067937"/>
<path d="M172.38 200.01c.11-.1-.87-2.57-1.3-2.75-1.24-.52-6.5.26-7.15-.2-.35-.25-.09-1.77-.17-2.25h8.34c.12 0 1.15.65 1.32.83.85.92 1.17 4.37 2.45 4.37h5.11v-5.29c0-.15 1.89-1.96 2.15-2.15.18-.14.23-.35.54-.27v7.71h4.31V188.8c0-.17 2.26-2 2.69-2.06v15.97h-47.1c-.39 0-1.44-1.23-1.52-1.71-.54-3.41.39-8.11-.02-11.66.11-.8 1.73-1.98 2.34-2.59v11.75c0 .5.56 1.53 1.17 1.53h26.83Zm.72-28.52h-21.62c-3.82 0-6.31-3.76-6.56-7.26-.43-6.12 1.39-10.27 7.99-10.69s13.16.33 19.58 0c.18-.04.62.13.62.28v2.69c0 .15-.44.32-.62.28-6.32.39-13.34-.55-19.58-.02-2.09.18-3.05 1.31-3.55 3.27-.46 1.79-.62 6.34.96 7.58.15.12 1.25.64 1.34.64h21.17s.27.25.27.27zm-34.81-4.13v-13.81h3.41v17.94h-3.68c-1.01 0-14.46-10.31-16.65-11.34l-3.9-2.47v13.81h-3.59v-17.94h3.86l19.91 13.64.63.17Z" fill="#0d4155"/>
<path d="M160.18 126.45c4.78-.04 8.66-2.47 11.56-6.12.48-.6.8-1.38 1.27-1.96 1.83-2.26 5.63-4.14 8.53-4.03-1.15 10.64-10.67 19.2-21.36 19.29z" fill="#067937"/>
<path d="M241.74 215.8c2.07.25 3.47 1.53 3.51 3.68.04 1.78-.91 2.14-1.81 3.41 2.58 1.26 2.42 5.54-.31 6.51-.27.1-1.38.4-1.57.4h-8.43s-.27-.25-.27-.27V215.8c2.81.24 6.14-.32 8.88 0m-5.83 5.74h4.76c1.72 0 1.72-3.23 0-3.23h-4.76zm0 5.74h4.58c2.09 0 1.77-3.23.54-3.23h-5.11v3.23ZM115.86 202.7h-5.92c.08 1.67-.52 3.49-2.06 4.31-.22.12-1.29.53-1.44.53h-4.76c-.09-.53.12-.29.42-.38 2.49-.76 5.22-1.11 5.14-4.46h-5.2v-3.68c0-.11.56-1.26.68-1.47 1.44-2.48 4.49-3.41 7.21-3.46v5.92h3.23v-11.03c0-.18 2.28-2.09 2.69-2.24v15.97Zm-8.62-5.56c-1.51-.12-2.99 1.37-2.87 2.87h2.87zm111.26-6.82v12.38h-16.78c-.38 0-1.33-1.15-1.48-1.57-.3-.81-.35-3.2-.22-4.07s1.84-2.14 2.5-2.79v4.22c0 .5.56 1.53 1.17 1.53h12.11v-1.08h-5.2v-3.68c0-.29.93-1.9 1.18-2.23 1.51-1.94 4.34-2.74 6.71-2.71Zm-2.69 3.05c-1.5-.12-2.99 1.36-2.87 2.87h2.87zM43.45 215.8l5.56 9.69-.09-9.69h3.05v14h-3.32l-6.01-10.23.18 10.23h-3.05v-14zm127.32 6.1v7.63s-.25.27-.27.27h-2.6v-7.89h-3.05v7.63c0 .41-2.87.41-2.87 0v-9.96h11.93c1.07 0 2.29 1.28 2.56 2.29.35 1.32.4 5.91.23 7.32-.13 1.05-2.01.63-2.8.45-.4-.58.23-5.75-.16-7.02-.36-1.17-2.06-.8-2.97-.71ZM160 229.8c-.55-.11-2.48.28-2.67-.29-.3-1.43.42-6.29-.3-7.24-.55-.72-2.96-.7-2.96-.27v7.8h-2.69v-7.89h-3.23v7.89c-.44-.06-2.69.19-2.69-.27v-9.96h11.93c.23 0 1.57.67 1.79.9.21.21.81 1.32.81 1.53v7.8Zm-52.04-6.28c.12-.69-.68-1.79-1.35-1.79h-5.65v-2.15h7.09c.95 0 2.27 1.41 2.52 2.32.04.15.26 1.28.26 1.36v6.28s-.25.27-.27.27h-7.72c-.05 0-.79-.27-.93-.33-2.09-.94-2.24-4.45-.25-5.52.16-.09 1.08-.44 1.18-.44h5.11Zm0 1.97h-3.5c-.65 0-1.51.7-1.27 1.44.05.16.46.71.56.71h4.22v-2.15Zm24.76-9.69v2.51h-5.83c-.14 0-.99.5-1.15.65-1.41 1.29-1.73 6.86 0 7.87.13.08 1.26.46 1.33.46h5.65v2.51h-5.83c-.47 0-2.32-.54-2.79-.8-3.84-2.08-3.79-10.16-.12-12.34.39-.23 2.18-.86 2.55-.86zM64 229.8h-7.81c-.1 0-1.01-.35-1.18-.44-1.89-1.02-1.99-4.27-.12-5.34.2-.11 1.16-.5 1.29-.5h4.93c.2-.7-.44-1.79-1.17-1.79h-5.65v-2.15h7.09c.9 0 2.6 1.71 2.6 2.6v7.63Zm-2.7-4.31h-3.68c-.05 0-.91.36-.94.4-.42.41-.23 1.75.41 1.75h4.22v-2.15Z" fill="#0d4155"/>
<path d="M256.72 229.8h-7.81c-.05 0-.79-.26-.93-.33-2.14-.94-2.26-4.44-.25-5.52.16-.09 1.08-.44 1.18-.44h4.93c.27-.73-.44-1.79-1.17-1.79h-5.65v-2.15h7.09c.21 0 1.3.6 1.53.8.25.21 1.07 1.42 1.07 1.62v7.8Zm-2.69-4.31h-3.68c-1.31 0-1.5 2.15-.54 2.15h4.22zm-32.66 4.31h-7.81c-.61 0-1.72-.83-2.07-1.34-.93-1.36-.62-3.69.89-4.5.16-.09 1.08-.44 1.18-.44h5.11c.12-.69-.68-1.79-1.35-1.79h-5.65v-2.15h7.09c.79 0 2.6 1.59 2.6 2.42v7.8Zm-2.69-4.31H215c-1.38 0-1.28 2.15-.54 2.15h4.22zm54.01-9.69v8.43c.66-.43 3.9-4.66 4.22-4.66h3.32l-4.48 4.93c0 .29 3.46 3.7 3.94 4.31.21.27.54.62.54.98h-3.5c-.32 0-3.35-4.4-4.04-4.84v4.84H270V215.8zm-137.27-23.5v10.41h-2.69v-6.82c-.74.15-2.21 1.07-2.43 1.78-.38 1.23.05 3.99-.08 5.48-.1 1.12-.58 2.64-1.44 3.4-.28.25-1.78 1-2.05 1h-4.93c.05-.3.35-.32.58-.41 1.33-.51 2.99-.51 4.09-1.66 2.05-2.13-.2-6.59 1.8-9.33 1.46-2 4.77-3.56 7.18-3.86Zm-52.79 26.96c7.93-.36 7.75 11.31-.24 10.71-6.61-.49-6.41-10.41.24-10.71m-.01 2.32c-2.9.42-2.8 5.52-.36 6.02 4.47.92 4.33-6.59.36-6.02m55.81-2.32c7.94-.46 7.93 11.39-.23 10.71-6.46-.54-6.39-10.33.23-10.71m-.01 2.32c-3.07.53-2.95 6.68 1.02 6.05 3.05-.48 2.67-6.68-1.02-6.05" fill="#0d4155"/>
<path d="M180.28 103.67c-1.2.12-2.45.3-3.63.59-.86.21-2.23.91-2.97 1-.25.03-.3.04-.49-.15-.34-.33-1.18-2.07-1.63-2.68-.26-.35-1.81-1.97-1.84-2.1l3.38-6.16c.15-.11 1.24.81 1.43.98 2.48 2.16 4.63 5.44 5.74 8.52Z" fill="#067937"/>
<path d="M98.99 229.8h-2.6c-.2 0-.26-.44-.28-.62-.16-1.36.32-6.2-.16-6.97-.06-.09-.39-.3-.46-.3h-3.14v7.89h-2.69v-10.23h6.73c.26 0 1.53.65 1.78.91.26.28.83 1.55.83 1.87v7.45Zm88.11-10.23v2.15h-4.76c-.67 0-1.46 1.1-1.35 1.79h6.1v2.15h-6.1c-.02.67.18 1.49.89 1.71.13.04 1.29.26 1.36.26h3.86c-.14.86.46 2.03-.62 2.16-1.62.2-5.04.07-6.47-.72-2.71-1.49-2.78-6.68-.45-8.53.28-.22 1.64-.98 1.89-.98h5.65Zm80.93 10.23h-2.69v-6.55c0-.35-.37-1.35-.81-1.35h-3.14v7.89h-2.69v-10.23h6.73c.23 0 1.57.67 1.79.9.21.21.81 1.32.81 1.53v7.8Zm-198.47-14v3.77h2.87v1.97h-2.87v4.93c0 1.07 2.06 1.27 2.87 1.17v2.15h-3.14c-.88 0-2.21-1.25-2.38-2.1-.22-1.08.2-5.52-.12-5.98-.26-.38-1.78-.05-1.9-.17-.07-.07-.07-1.91 0-1.98.1-.1 1.97.21 1.97-.27v-3.5h2.69Zm135.84 3.77v2.15c-2.58.13-6.12-.7-6.12 2.96 0 1.24.92 2.78 2.26 2.78h3.86v2.33H201c-.76 0-2.34-.67-2.97-1.16-2.33-1.85-2.23-6.67.3-8.32.28-.18 1.52-.75 1.76-.75h5.29Z" fill="#0d4155"/>
<path d="M153.31 90.08c4.78-.82 6.46 5.38 2.45 7.11-5.28 2.29-7.43-6.26-2.45-7.11m10.23 0c4.8-.83 6.41 5.4 2.45 7.11-5.28 2.28-7.43-6.25-2.45-7.11" fill="#067937"/>
<path d="M194.18 219.57c1.75.31 1.54 2.97 1.53 4.31-.55-.1-2.15.18-2.52-.08-.56-.39.68-2.96-2.14-2.25v8.25h-2.69v-10.23c1.74.22 4.18-.29 5.83 0Zm86.05-32.83v15.97h-2.69v-13.9c0-.17 2.26-2 2.69-2.06Zm-85.06 0v15.96h-2.69v-13.9zm-74.83 0v15.97h-2.69v-13.99c.98-.38 1.68-1.61 2.69-1.97Zm-7.71 29.06h2.87v13.99h-2.87zm110.71 0h2.87v13.99h-2.87zm-83.08-20.09v7.8c0 .78-.61 2.19-1.16 2.78-.41.44-1.78 1.25-2.34 1.25H132c-.09-.53.12-.29.42-.38 2.24-.68 4.75-.98 5.13-3.85.19-1.44-.3-4.16.05-5.33.1-.33.64-.65.86-.94l1.8-1.34Zm-66.75 23.86h2.87v10.23h-2.87zm133.33 0h2.69v10.05h-2.69zm-24.1-32.26c3.02-.89 3.4 3.89.18 3.15-1.44-.33-1.3-2.82-.18-3.15m-59.4 21.35c3.11-.92 3.23 4.05.18 3.15-1.22-.36-1.42-2.79-.18-3.15" fill="#0d4155"/>
<path d="M127.65 208.66c2.62-.6 2.78 2.73 1.36 3.15-2.58.76-3.08-2.76-1.36-3.15m-85.42 0c3.09-.73 2.96 4.01.04 3.11-1.38-.43-1.33-2.8-.04-3.11m171.12-21.87c.34-.27 1.05-.28 1.48-.24 1.91.2 1.89 3.14-.2 3.22-1.6.06-2.29-2.17-1.28-2.99Z" fill="#0d4155"/>
<path d="M48.33 211.44c-1.05 1.25-3.78-.08-2.71-2.09s4.25.27 2.71 2.09m130.28-24.13c3.16-.94 3.1 4.02.18 3.15-1.22-.36-1.42-2.79-.18-3.15m-119.15-.34c.48.39.6 1.89.25 2.38-.76 1.06-2.99.58-3.05-1.1-.06-1.5 1.92-2 2.81-1.28Zm14.05 28.83h2.87v2.69h-2.87zm133.33 2.69v-2.69h2.6c.41 0 .41 2.69 0 2.69zm-35.66-14.12c1.87-1.87 4.08 2.03 1.62 2.6-1.86.43-2.67-1.55-1.62-2.6" fill="#0d4155"/>
</svg>
