<?xml version="1.0" encoding="UTF-8"?>
<svg viewBox="69.73 108.00 180.55 103.99" xmlns="http://www.w3.org/2000/svg">
<path d="M163.44 110s2.13 8.68 3.16 24.78c21.38-3.18 31.59-13.52 36.82-21.08-25.78-.22-39.98-3.7-39.98-3.7" fill="#2a5285"/>
<path d="M208.5 113.71c-.86.02-1.74.02-2.63.02-.83 0-1.63 0-2.43-.02-5.23 7.56-15.44 17.9-36.83 21.08.34 5.13.55 11.02.55 17.62s-.2 12.04-.51 17.03c6.88-.91 13.14-2.33 18.86-4.16 11.4-10.35 20.66-26.5 22.99-51.58m-41.84 55.84v-.09z" fill="#00a0be"/>
<path d="M248.27 110s-3.94.96-11.41 1.91c-7.92 27.25-27.74 51.89-70.2 57.52-.36 5.82-.87 10.7-1.39 14.57 33.57-3.2 59.42-12.83 79.36-25.46-.04-1.97-.08-4-.08-6.12 0-27.32 3.73-42.41 3.73-42.41" fill="#0f7fb8"/>
<path d="M208.49 113.7c-2.34 25.1-11.6 41.23-22.98 51.59 29.7-9.52 44.71-30.52 51.35-53.37-6.7.85-16.25 1.68-28.37 1.79" fill="#90d4dc"/>
<path d="M166.66 169.43c-.18 2.91-.41 5.59-.63 8.03 6.6-2.72 13.34-6.62 19.48-12.17-5.74 1.83-11.99 3.24-18.85 4.15" fill="#2a5285"/>
<path d="M165.28 184s.03-.06.03-.09c-.96 7.16-1.87 10.92-1.87 10.92s15.1-3.72 42.41-3.72 42.43 3.72 42.43 3.72-3.16-12.86-3.65-36.3c-19.93 12.63-45.79 22.27-79.35 25.46" fill="#50aec7"/>
<path d="M124.52 129.32h3.76v-4.65c0-1.15.25-1.97.74-2.48.53-.5 1.27-.76 2.21-.76h3.02c.97 0 1.7.26 2.2.76.52.51.78 1.33.78 2.48v4.35c0 .57-.06 1.07-.19 1.47-.13.42-.33.75-.59 1.01-.24.26-.55.46-.91.59-.37.12-.79.18-1.28.18h-9.73v-2.94Zm9.73 0v-4.98h-3.02v4.98zm-13.98 0v-3h-8.98v3zm4.25 0v2.94h-16.23v-10.23c0-.17.06-.32.19-.44.12-.13.29-.19.47-.19h1.7c.17 0 .31.06.43.19q.21.195.21.45v1.36h8.98c.96 0 1.69.25 2.18.75.5.51.76 1.33.76 2.49v2.68h1.3Zm-28.15 0h12.68v2.94H96.37zm-7.01 5.95c.35 0 .67-.08.98-.17.31-.08.6-.21.86-.38.26-.18.48-.41.66-.7s.39-.65.39-1.09v-10.91c0-.17.05-.32.17-.44a.59.59 0 0 1 .46-.19h1.71c.18 0 .32.07.44.19s.19.28.18.44l-.04 7.29h1.21v2.95h-1.21c-.09.85-.28 1.61-.57 2.29-.28.69-.63 1.27-1.07 1.76-.44.5-.95.91-1.54 1.21-.58.31-1.23.52-1.94.64-.14.03-.26.04-.38.06-.12 0-.24.02-.37.02h-.13c-.05 0-.11-.02-.18-.03a.97.97 0 0 1-.5-.2.56.56 0 0 1-.2-.43v-1.67c0-.18.06-.33.18-.46s.28-.19.45-.19h.46Zm-5.52-17.37c0 .21-.03.39-.12.57-.07.18-.18.33-.32.47-.13.13-.29.23-.47.32-.18.07-.38.12-.57.12s-.39-.05-.56-.12c-.18-.09-.34-.18-.46-.32-.14-.14-.24-.29-.32-.47-.09-.18-.12-.36-.12-.57 0-.19.04-.38.12-.56.07-.18.18-.34.32-.48.12-.12.28-.24.46-.31.18-.09.36-.12.56-.12s.39.03.57.12c.18.07.34.18.47.31.14.14.24.3.32.48.09.18.12.37.12.56m-3.01 11.42h3.01v-4.98h-3.01zm-5.88 0h2.93v-4.65c0-1.15.25-1.97.76-2.48.51-.5 1.24-.76 2.19-.76h3.02c.96 0 1.69.26 2.2.76.51.51.76 1.33.76 2.48v4.35c0 .57-.07 1.07-.19 1.47-.13.42-.32.75-.57 1.01s-.56.45-.93.59c-.37.12-.79.18-1.25.18h-8.94c-.47 0-.9-.06-1.27-.18-.36-.13-.67-.32-.93-.59-.25-.25-.45-.6-.57-1.01-.13-.4-.2-.9-.2-1.48v-.99c0-.18.06-.31.18-.44.12-.12.27-.19.44-.19h1.7c.18 0 .34.06.47.19.12.13.18.27.18.44v1.31Zm73.89-12.52c0-.2.06-.36.19-.49.15-.14.3-.21.5-.21h1.86c.19 0 .36.07.49.21.12.12.2.3.2.49v46.93c0 .18-.08.35-.2.48-.12.12-.3.19-.49.19h-1.86a.7.7 0 0 1-.5-.19.66.66 0 0 1-.19-.48zm-6.44 44.31v-44.32c0-.2.06-.36.21-.49a.65.65 0 0 1 .49-.21h1.85c.18 0 .36.08.48.21.12.12.18.3.18.49v43.96c0 .63-.06 1.17-.21 1.62s-.34.82-.63 1.11c-.25.28-.61.5-1 .64-.4.13-.89.2-1.37.2h-1.43v-3.21zm-5.33-12.51c0 .21-.03.43-.14.62-.08.19-.2.37-.34.51-.16.14-.33.26-.53.34-.19.08-.41.13-.61.13a1.7 1.7 0 0 1-.64-.13c-.2-.08-.37-.2-.51-.34q-.225-.225-.36-.51c-.07-.19-.13-.41-.13-.62s.06-.43.13-.63c.1-.19.23-.37.36-.51s.32-.26.51-.34c.2-.08.4-.13.64-.13.21 0 .43.05.61.13.19.08.37.2.53.34.14.15.26.32.34.51.1.2.14.41.14.63m-.02 12.5h4.13v3.22H116.8v-3.22h17v-7.95c0-.18.07-.35.19-.48s.3-.21.49-.21h1.84a.686.686 0 0 1 .71.69v7.95Zm-30.42 9.75c-.2 0-.39-.09-.54-.21a.56.56 0 0 1-.24-.47v-1.83c0-.19.07-.36.22-.49.13-.14.31-.21.5-.21h.32c.12 0 .24.03.36.03h.91c.43 0 .86-.04 1.3-.11.43-.07.83-.23 1.19-.46.37-.23.68-.58.97-1.01.26-.44.48-1.02.61-1.76h-3.46c-.51 0-.98-.07-1.39-.2-.39-.13-.74-.36-1.01-.64q-.42-.435-.63-1.11a5.8 5.8 0 0 1-.21-1.61v-4.76c0-1.26.27-2.16.84-2.71.56-.55 1.37-.83 2.4-.83h3.31c1.04 0 1.85.28 2.4.83s.82 1.46.82 2.71v5.09h1.51v3.22h-1.51c-.14 1.07-.39 2.01-.79 2.83-.39.82-.92 1.51-1.54 2.07-.63.55-1.38.98-2.22 1.26-.83.28-1.77.43-2.78.43h-.62c-.22 0-.46-.05-.71-.05Zm2.14-9.75h3.28v-5.44h-3.28zm-12.58 6.52c.37 0 .73-.09 1.08-.18.34-.09.66-.23.93-.42.28-.18.53-.45.72-.76s.42-.71.42-1.19v-12.04c0-.18.06-.33.18-.44s.27-.16.46-.16h2.11c.17 0 .29.05.38.16s.14.26.14.44l-.04 10.81c0 .98-.13 1.88-.41 2.67-.26.79-.63 1.48-1.12 2.06s-1.08 1.07-1.77 1.44-1.46.65-2.31.78h-.04c-.13.02-.27.05-.41.06-.14.02-.27.02-.4.02h-.17c-.06 0-.12-.02-.19-.03-.19-.02-.38-.09-.54-.21a.64.64 0 0 1-.24-.48v-1.84c0-.19.08-.36.21-.49.14-.14.31-.21.5-.21h.5Zm-6.86-21.26a.697.697 0 0 1 .7-.69h1.86c.18 0 .34.07.48.2.14.14.21.3.21.49v17.37c0 .18-.07.35-.21.48-.14.12-.31.19-.48.19h-1.86c-.18 0-.37-.06-.49-.19a.68.68 0 0 1-.21-.48zM80 150.65c0 .23-.05.44-.14.63s-.2.37-.35.51c-.14.15-.32.26-.5.34-.2.09-.41.13-.63.13s-.42-.04-.62-.13c-.2-.08-.37-.2-.51-.34-.15-.14-.26-.32-.35-.51-.08-.19-.13-.4-.13-.63s.05-.43.13-.63c.09-.19.2-.37.35-.52.14-.14.32-.26.51-.34s.4-.13.62-.13.43.05.63.13c.19.09.37.2.5.34.15.15.26.33.35.52.09.2.14.41.14.63m6.19 13.1v-.02c0 .66-.11 1.3-.29 1.91-.19.61-.45 1.19-.78 1.73a7.8 7.8 0 0 1-2.69 2.59c-.54.31-1.15.56-1.77.73-.63.17-1.28.27-1.96.26-1.26-.03-2.34-.31-3.22-.79a6.35 6.35 0 0 1-2.18-1.89c-.55-.79-.97-1.68-1.22-2.69s-.35-2.08-.35-3.21v-2.7c0-.19.07-.36.2-.49s.29-.2.49-.2h1.88c.19 0 .36.07.48.21s.2.31.2.49v2.66c0 .38 0 .79.03 1.21.03.41.1.82.2 1.22.09.39.24.78.41 1.14.18.35.43.67.73.93q.465.405 1.14.63c.44.15.98.23 1.6.23.83 0 1.51-.15 2.01-.42s.91-.62 1.18-1.03c.28-.43.47-.89.56-1.4s.14-1.01.14-1.49v-10.2q0-.27.21-.48c.15-.14.3-.21.48-.21h1.86a.68.68 0 0 1 .69.69l-.02 10.59Zm-7.91 27.07v-7.81c0-.12-.09-.21-.22-.21h-.99c-.13 0-.22.09-.22.21v6.01c0 .07-.03.11-.06.11q-.06 0-.09-.09l-2.69-5.87c-.14-.3-.26-.36-.5-.36h-1.25c-.25 0-.46.2-.46.46v7.8c0 .13.1.23.23.23h.98c.13 0 .22-.1.22-.23v-5.75c0-.07.02-.09.06-.09.03 0 .07.02.1.09l2.56 5.56c.18.41.43.41.7.41h1.17c.25 0 .46-.2.46-.45m9.08-2.7v-5.13c0-.12-.1-.21-.23-.21h-1.14c-.13 0-.23.09-.23.21v5.13c0 1.3-.32 1.92-1.57 1.92s-1.57-.61-1.57-1.92v-5.13c0-.12-.1-.21-.23-.21h-1.13c-.13 0-.24.09-.24.21v5.13c0 2.43 1.32 3.23 3.17 3.23s3.17-.8 3.17-3.23m7.1-2.76c0 1-.55 1.32-1.74 1.32-.2 0-.84-.03-1.03-.03v-2.58c.21-.02.79-.05 1.03-.05 1.16 0 1.74.37 1.74 1.23zm1.86 5.76s0-.06-.03-.09l-1.81-3.34c.95-.36 1.56-1.12 1.56-2.33v-.11c0-1.96-1.55-2.58-3.33-2.58-.84 0-1.65.05-2.26.15-.23.03-.37.11-.37.34v7.87c0 .13.11.23.24.23h1.15c.13 0 .21-.1.21-.23v-3.1c.28.01.72.05 1.03.05h.16l1.66 3.05c.05.12.11.23.23.23h1.41c.1 0 .14-.05.14-.14Zm6.24-3.53h-2.02l.82-3.4c.04-.14.07-.18.18-.18s.15.04.19.18l.82 3.4Zm2.5 3.47v-.06l-1.89-7.17c-.28-1.06-1.1-1.17-1.61-1.17s-1.32.11-1.6 1.17l-1.89 7.17v.06c0 .12.09.19.21.19h1.22c.11 0 .2-.09.22-.19l.54-2.17h2.64l.54 2.17c.02.1.12.19.22.19h1.23c.1 0 .2-.08.2-.19Zm8.62-.26v-7.81c0-.12-.1-.21-.22-.21h-.99c-.12 0-.23.09-.23.21v6.01c0 .07-.03.11-.05.11-.03 0-.07-.03-.09-.09l-2.68-5.87c-.15-.3-.28-.36-.52-.36h-1.25c-.25 0-.47.2-.47.46v7.8c0 .13.11.23.23.23h.98c.13 0 .23-.1.23-.23v-5.75c0-.07.01-.09.06-.09.02 0 .07.02.1.09l2.56 5.56c.18.41.43.41.69.41h1.17c.26 0 .46-.2.46-.45m10.18-1.96c0 .8-.46 1.18-1.94 1.18-.25 0-.67-.02-.93-.02v-2.52h1.46c1.08 0 1.41.58 1.41 1.21zm-.05-3.62c0 .58-.3 1.09-1.36 1.09h-1.46v-2.32c.24-.01.56-.03.83-.03 1.49 0 1.99.3 1.99 1.1v.15Zm1.63 3.64v-.2c0-.86-.42-1.44-1.12-1.74.7-.3 1.06-.97 1.06-1.73V185c0-1.73-1.46-2.32-3.56-2.32-.89 0-1.62.07-1.92.11-.36.06-.53.21-.53.62v7.21c0 .42.18.55.56.62.36.07 1.07.12 2 .12 2.15 0 3.52-.65 3.52-2.47Zm6.39-1.29h-2.05l.84-3.4c.04-.14.06-.18.19-.18.12 0 .15.04.18.18zm2.48 3.47s-.01-.03-.01-.06l-1.9-7.17c-.26-1.06-1.11-1.17-1.6-1.17s-1.34.11-1.59 1.17l-1.89 7.17s-.02.04-.02.06c0 .12.1.19.21.19h1.22c.11 0 .19-.09.22-.19l.52-2.17h2.67l.53 2.17c.02.1.11.19.2.19h1.22c.12 0 .22-.08.22-.19m8.63-.26v-7.81c0-.12-.1-.21-.22-.21h-.98c-.13 0-.24.09-.24.21v6.01c0 .07-.03.11-.06.11-.02 0-.06-.03-.08-.09l-2.69-5.87c-.15-.3-.26-.36-.5-.36h-1.24c-.26 0-.47.2-.47.46v7.8c0 .13.12.23.24.23h.98c.12 0 .21-.1.21-.23v-5.75c0-.07.03-.09.06-.09s.08.02.09.09l2.56 5.56c.19.41.43.41.72.41h1.16c.24 0 .47-.2.47-.45m9.01.34s-.02-.08-.06-.14l-2.98-4.14 2.96-3.79c.03-.06.08-.13.08-.18 0-.08-.06-.13-.23-.13h-1.3c-.13 0-.23 0-.28.09l-2.82 3.76v-3.64c0-.12-.12-.21-.24-.21h-1.14c-.13 0-.22.09-.22.21v8.04c0 .13.09.23.22.23h1.14c.12 0 .24-.1.24-.23v-3.8l2.62 3.9c.06.09.14.12.28.12h1.53c.12 0 .18-.03.18-.1" fill="#295086"/>
<path d="M125.17 206.63c0 .4-.29.74-.72.74s-.73-.31-.73-.74c0-.39.31-.73.73-.73.4 0 .72.31.72.73m7.14-2.63-.08-.64c-.18-.05-.36-.07-.58-.07-.92 0-1.38.56-1.38 1.72 0 .92.32 1.38.93 1.38.79 0 1.19-.5 1.19-1.47 0-.26-.04-.56-.09-.92Zm1.15-1.22-.11 1.14v1.52c0 1.28-.81 1.93-2.45 1.93h-2.66c-.52 0-.8.27-.8.82v1.43l-1.07-.73v-.99c0-.93.63-1.51 1.61-1.51h1.53c-.2-.37-.32-.77-.32-1.18q0-1.215.72-1.95c.49-.49 1.15-.73 1.97-.73.53 0 1.07.09 1.57.25Zm2.49 3.85c0 .4-.29.74-.72.74-.38 0-.72-.31-.72-.74 0-.39.33-.73.72-.73.42 0 .72.31.72.73m10.34-7.34c0 .35-.3.66-.67.66s-.67-.3-.67-.66.3-.68.67-.68.67.3.67.68m.87 1.69c0 .36-.28.65-.69.65-.34 0-.67-.27-.67-.66 0-.36.33-.66.67-.66.36 0 .69.28.69.67m-1.74 0c0 .36-.29.65-.68.65-.35 0-.68-.27-.68-.66 0-.36.33-.66.68-.66s.68.28.68.67m3.66 4.8c0 .96-.6 1.59-1.58 1.59-.57 0-1.08-.21-1.46-.63-.31.41-.75.63-1.34.63a1.9 1.9 0 0 1-1.24-.44c-.05.88-.35 1.58-.89 2.13-.56.63-1.39.93-2.43.93s-1.82-.34-2.36-1.03c-.5-.63-.74-1.5-.74-2.62v-2.12h1.08v2.09c0 1.84.8 2.96 2.16 2.96.58 0 1.07-.26 1.47-.75.41-.53.63-1.23.63-2.1v-3.22l1.09-.27v3.1c.26.24.56.36.95.36.52 0 .76-.29.76-.87v-2.12l1.09-.24v2.82c.26.28.6.41.93.41.53 0 .78-.29.78-.87v-1.07l-.19-1.42 1.28-.3v3.05Zm-26.41-5.46v6.23c0 .97-.28 1.76-.89 2.34-.58.59-1.4.89-2.43.89s-1.83-.33-2.37-.98c-.48-.6-.72-1.45-.72-2.51v-2.03h1.08v1.98c0 1.75.79 2.83 2.18 2.83.55 0 1.04-.25 1.46-.75.41-.49.62-1.16.62-1.98v-4.26l-.23-1.47 1.31-.31Z" fill="#909295" fill-rule="evenodd"/>
<path d="M198.54 170.2h4.2l4.8 11.24V170.2h3.14v15.41h-4.2l-4.84-11.26v11.26h-3.1zm15.19 0h3.66v9.86c0 1.21.17 2.04.49 2.5.33.47.87.7 1.65.7s1.36-.23 1.68-.7c.32-.46.48-1.3.48-2.5v-9.86h3.48v9.46c0 2.11-.45 3.67-1.4 4.68-.93 1.01-2.38 1.52-4.32 1.52s-3.4-.5-4.33-1.51-1.4-2.57-1.4-4.69v-9.46Zm14.53 0h4.89c1.77 0 3.09.32 3.95.95.85.64 1.28 1.62 1.28 2.95 0 .95-.24 1.72-.74 2.32s-1.22.99-2.15 1.17c1.09.19 1.9.6 2.44 1.23s.8 1.49.8 2.59c0 1.43-.47 2.49-1.4 3.17-.92.68-2.38 1.02-4.34 1.02h-4.73v-15.41Zm3.49 2.57v3.76h.82c.81 0 1.4-.15 1.77-.44.36-.29.55-.76.55-1.41s-.18-1.16-.56-1.46c-.36-.3-.97-.46-1.81-.46h-.76Zm0 6.13v4.11h.89c.9 0 1.53-.16 1.95-.47.4-.32.61-.84.61-1.55s-.2-1.27-.61-1.6c-.4-.32-1.05-.49-1.95-.49z" fill="#fff"/>
</svg>
