<svg xmlns="http://www.w3.org/2000/svg" viewBox="69.48 87.99 181.04 144.03"><path fill="#002c4b" fill-rule="evenodd" d="M133.65 161.95h52.99c4.83 0 8.77-3.95 8.77-8.77v-52.99c0-4.83-3.95-8.77-8.77-8.77h-52.99c-4.83 0-8.77 3.95-8.77 8.77v52.99c0 4.83 3.95 8.77 8.77 8.77m-1.06 1.41h55.11c5.02 0 9.13-4.11 9.13-9.13V99.12c0-5.02-4.11-9.13-9.13-9.13h-55.11c-5.02 0-9.13 4.11-9.13 9.13v55.11c0 5.02 4.11 9.13 9.13 9.13"/><path fill="#002c4b" d="M236.76 193.55c0-3.55 2.06-5.34 4.87-5.34 2.51 0 5.08 1.82 5.08 6 0 4.72-2.99 5.55-4.36 5.55-3.1 0-5.58-2.09-5.58-6.21m-1.78.45c0 1.79.09 4.15-1.67 5.25-.54.33-1.13.51-1.73.54v.66c1.91-.15 3.61-1.16 4.24-3.16 1.04 1.91 3.1 3.16 5.79 3.16 3.79 0 6.84-2.75 6.84-6.69-.12-3.61-2.54-6.18-6.72-6.18s-6.75 3.19-6.75 6.42m-12.92-5.73c2.93 0 4.42 3.22 4.42 6 0 3.13-1.85 5.52-4.87 5.52h-10.48v-6.84c0-2.15 1.28-4.69 3.61-4.69h7.31Zm.33-.63c-.54-.03-.66-.03-.78-.03h-6.87c-1.43 0-2.66 1.07-3.61 2.06 0-1.43.09-1.82 1.04-1.82.09 0 .15-.03.15-.09 0-.09-.12-.18-.27-.18h-3.64c-.15 0-.27.12-.27.18s.03.09.12.09c.75 0 1.22.09 1.28.99.03.51.03 3.31.03 6.09v4.87h-3.43v.66h15.61c2.39 0 4.42-1.4 5.52-3.31.6 2.12 2.33 3.16 4.3 3.31v-.66c-3.58-.15-3.4-3.88-3.4-6.03 0-3.52-2.57-5.76-5.79-6.12Zm-19.62 4.69v-3.52c0-.54.09-.78.6-.9.39-.09.57 0 .57-.21 0-.06 0-.12-.27-.12-1.22 0-2.51.03-3.79.03-.06.03-.09.03-.09.09 0 .18.18.21.3.21s.24-.03.33-.03c.72 0 .81.57.81.96v8.27c0 5.19-.66 5.13-2.45 6.87 2.24-.84 3.97-2.42 3.97-4.81 0-.15 0-.27-.03-.39.84 1.05 2.09 1.55 3.43 1.67v-.66c-2.69-.15-3.28-2.42-3.37-4.33v-3.13Zm-10.69-9.19c-.75 0-1.28.6-1.28 1.28s.54 1.28 1.28 1.28c.69 0 1.28-.57 1.28-1.28s-.6-1.28-1.28-1.28m-4.98 10.41c0-3.52 1.97-5.37 4.9-5.37s5.08 2.48 5.08 6.03c0 3.88-2.18 5.55-4.63 5.55-2.69 0-5.34-1.97-5.34-6.21Zm5.25 6.9v-.03c4.06-.18 6.42-3.31 6.42-6.69 0-3.94-3.02-6.15-6.69-6.15-5.7 0-6.78 4.57-6.78 6.42 0 2.09 1.02 4.54 3.52 5.79h-8.36c-3.4 0-4.78-2.81-4.78-5.58 0-.93.18-1.85.48-2.66h-1.79c-.27.69-.39 1.43-.39 2.18 0 4.06 3.1 6.72 6.48 6.72h11.88ZM166 198.9c-.03.87-.15 1.25-1.02 1.28-.12 0-.15.03-.15.09s.12.18.27.18h3.64c.15 0 .24-.12.24-.18s-.03-.09-.12-.09c-.99-.03-1.28-.09-1.28-1.7-.03-13.7-.06-15.23.03-16.69.03-.9.54-.93 1.25-.96.09 0 .12-.03.12-.06 0-.09-.09-.18-.24-.18h-3.64c-.15 0-.27.09-.27.18 0 .03.03.06.15.06.69.03.99.21 1.02.96zm-8.93 1.55c5.61-.45 4.96-5.25 4.96-9.4v-8.96c0-.93.15-1.25 1.04-1.25.06 0 .12-.06.12-.12 0-.12-.06-.15-.24-.15h-3.67c-.15 0-.27 0-.27.15s.69.15.84.18c.66.15.6.63.6 1.61.06.15.06 7.4.06 7.64v4.54c0 2.15-.36 4.9-3.43 5.11v.66Zm-9.52-12.18c2.93 0 4.42 3.22 4.42 6 0 3.13-1.85 5.52-4.87 5.52h-10.48v-6.84c0-2.15 1.28-4.69 3.61-4.69h7.31Zm.33-.63c-.54-.03-.66-.03-.78-.03h-6.87c-1.43 0-2.66 1.07-3.61 2.06 0-1.43.09-1.82 1.04-1.82.09 0 .15-.03.15-.09 0-.09-.12-.18-.27-.18h-3.64c-.15 0-.27.12-.27.18s.03.09.12.09c.75 0 1.22.09 1.28.99.03.51.03 3.31.03 6.09v4.87h-3.43v.66h15.61c2.39 0 4.42-1.4 5.52-3.31.6 2.12 2.33 3.16 4.3 3.31v-.66c-3.58-.15-3.4-3.88-3.4-6.03 0-3.52-2.57-5.76-5.79-6.12Zm-19.64 7.77c-.03-2.87-2.51-5.28-5.37-5.28-3.08 0-6.18.12-9.43-.12-1.82-.12-3.76-.57-4.75-2.27.48.78 1.31 3.11 3.67 3.7 3.13.51 6.51.27 9.67.27.84 0 1.64 0 2.48.03 1.58.12 2.36 1.73 2.36 3.22 0 2.18-1.13 4.84-3.37 4.84h-15.26v.66h15.64c1.64 0 2.99-1.25 3.73-2.6.75 1.64 2.3 2.45 4.03 2.6v-.66c-2.66-.12-3.37-2.39-3.4-4.39m-20.01 4.38c-3.1-.21-3.4-2.99-3.4-5.14 0-2.66.03-9.37.03-12.87 0-.69.27-.96 1.28-.96.06 0 .12-.06.12-.12 0-.15-.12-.15-.27-.15h-3.61c-.18 0-.27.03-.27.15 0 .15.78.18.9.3.3.27.27.72.27 1.49v10.39c0 3.61.12 7.16 4.96 7.55v-.66Zm-8.77-7.46v-3.19c0-.78.18-1.28.99-1.28.09 0 .18-.03.18-.15 0-.06-.03-.12-.27-.12-1.25 0-2.57.03-3.82.03q-.06.03-.06.09c0 .24.63.15.72.21.63 0 .75.78.75 1.25 0 .72-.03 3.31-.03 7.91s-.6 5.43-2.42 6.9c1.88-.63 3.25-2 3.7-3.76.18-.69.27-2.36.27-4.27v-3.61Zm-23.44 7.76c.93.33 1.7.39 2.72.39h11.97c.84 0 1.64 0 2.48-.24 1.4-.39 2.27-1.43 2.27-2.63 0-.69-.3-1.43-.96-2.12-1.52-1.58-3.91-1.55-6.06-1.55-1.31 0-2.6.03-3.91.03-1.13-.15-3.58-.9-3.58-2.57 0-1.1 1.46-2.18 2.81-2.24.69 0 1.43.03 2.18.03 1.37 0 2.78-.12 3.88-.93 1.46-1.1 2.39-3.05 2.39-3.11-1.04 1.91-3.34 2.3-5.52 2.39-1.55.06-3.34.12-4.69 1.02-1.02.66-1.7 1.7-1.7 2.84 0 .45.09.87.33 1.31.84 1.64 2.21 2.48 3.82 2.51h6.75c1.79 0 3.52 1.22 3.52 2.36 0 .54-.36 1.13-1.22 1.67-.84.51-1.79.6-2.75.6-4.24 0-8.15-.03-12.45-.03-3.34 0-5.08-2.66-5.08-5.55 0-.9.18-1.82.51-2.69h-1.79c-.27.69-.39 1.46-.39 2.24 0 3.16 2 5.43 4.48 6.27Z"/><path fill="#a77b18" d="M233.68 223.43c0 2.09 0 3.79-.14 4.69-.07.65-.14 1.05-.58 1.16-.18.07-.47.11-.69.11-.11 0-.18.11-.18.18 0 .14.14.18.36.18.69 0 2.06-.07 2.24-.07.14 0 1.52.07 2.64.07.25 0 .36-.07.36-.18 0-.07-.07-.18-.18-.18-.22 0-.58-.04-.9-.11-.69-.11-.76-.51-.87-1.16-.11-.9-.11-2.6-.11-4.69v-2.13h.11c1.08 1.26 5.81 6.28 6.82 7.08.97.72 1.59 1.23 2.74 1.34.51.04.94.04 1.55.04h1.16c.4 0 .51-.07.51-.18s-.14-.18-.29-.18-.79-.07-1.41-.29c-1.05-.43-1.3-.72-3.18-2.42-.94-.83-5.63-5.52-6.21-6.17.47-.54 4.33-4.19 4.87-4.73 1.01-.94 1.44-1.44 2.35-1.84.47-.18.94-.29 1.26-.29.18 0 .22-.07.22-.18s-.07-.18-.33-.18c-.54 0-2.02.07-2.17.07-.54 0-1.23-.07-1.66-.07-.18 0-.29.07-.29.18 0 .07.07.18.22.18.18.04.29.18.29.43 0 .36-.61.94-1.23 1.55-.87.9-4.87 4.84-5.23 5.27h-.11v-1.3c0-3.39 0-4.01.07-4.69.04-.76.22-1.08.79-1.19.29-.07.4-.07.54-.07.11 0 .18-.07.18-.18s-.11-.18-.32-.18c-.69 0-2.06.07-2.24.07-.11 0-1.52-.07-2.53-.07-.25 0-.36.07-.36.18s.11.18.18.18c.22 0 .58.04.76.07.76.11.87.43.94 1.19.04.69.04 1.3.04 4.69v3.83Zm-20.72-6.9c.69.76 3.25 3.43 5.85 6.14 2.35 2.49 5.6 5.7 5.85 5.92 1.26 1.12 1.48 1.3 1.7 1.3.14 0 .18-.11.18-1.55l.07-12.71c0-1.3.04-1.73.79-1.91.22-.04.4-.04.51-.04.18 0 .29-.14.29-.22 0-.14-.22-.14-.43-.14-.94 0-1.66.04-1.91.04s-1.34-.04-2.35-.04c-.25 0-.43 0-.43.14 0 .07 0 .22.18.22s.69.04 1.08.11c.69.11.83.61.87 2.02l.22 10.87c-.69-.72-3.07-3.32-5.31-5.6-3.5-3.57-6.75-7.04-7.11-7.4-.25-.25-.61-.65-.87-.65-.18 0-.29.22-.29 1.08v12.42c0 1.99-.11 2.56-.65 2.74-.33.11-.76.11-.94.11-.11 0-.18.07-.18.18 0 .14.14.18.36.18 1.01 0 1.99-.07 2.2-.07.18 0 1.08.07 2.35.07.25 0 .43-.04.43-.18 0-.11-.11-.18-.22-.18-.18 0-.69 0-1.12-.11-.61-.18-.79-.69-.87-2.49zm-15.42 6.25c-.07 0-.11-.04-.07-.14l2.09-5.96c.14-.33.25-.33.36 0l2.24 5.96c.04.11.04.14-.07.14zm-3.25 4.58c-.43 1.08-.87 1.84-1.88 1.95-.18.04-.51.07-.69.07-.11 0-.18.07-.18.18s.14.18.43.18c.9 0 2.06-.07 2.27-.07.25 0 1.48.07 2.02.07.18 0 .32-.04.32-.18 0-.11-.07-.18-.25-.18h-.18c-.4 0-.76-.14-.76-.58 0-.4.11-.94.32-1.48l1.26-3.47c.04-.11.14-.18.25-.18h5.16c.14 0 .18.04.22.14l2.02 4.98c.14.36-.07.54-.22.58-.11.04-.14.04-.14.14 0 .14.36.14.79.18 1.55.04 3.21.04 3.54.04.25 0 .51-.04.51-.18s-.14-.18-.29-.18c-.22 0-.54 0-.87-.11-.51-.18-1.12-.47-1.91-2.38-1.37-3.32-4.98-12.27-5.41-13.18-.22-.51-.29-.79-.54-.79-.14 0-.22.11-.51.83l-5.31 13.61Zm-12.78-6.1c0-.11.04-.14.11-.14.36 0 1.48 0 1.77.04.54.11 1.26.11 2.02.58 1.77 1.12 2.17 3 2.17 3.97 0 2.78-1.8 3.32-3.29 3.32-.43 0-1.37-.04-1.99-.29-.69-.33-.69-.61-.79-1.62v-5.85Zm0-6.93c0-.11.07-.18.29-.22.32-.07.9-.11 1.12-.11 2.27 0 3.21 1.84 3.21 3.5 0 1.05-.4 1.77-.87 2.35-.47.51-.97.54-2.24.54-.83 0-1.23-.07-1.37-.11-.11-.04-.14-.07-.14-.22v-5.74Zm-1.94 9.1c0 2.09 0 3.79-.14 4.69-.07.65-.11 1.16-.58 1.23-.18.04-.47.11-.69.11-.11 0-.18.04-.18.11 0 .14.14.18.36.18.36 0 .9 0 1.37-.04.43 0 .87-.04.9-.04.11 0 .76.04 1.48.04.69.07 1.52.07 1.91.07 3.86 0 5.67-2.38 5.67-4.8s-2.24-4.01-3.97-4.51c1.16-1.05 2.27-2.09 2.27-3.83 0-1.16-.97-3.32-4.73-3.32-1.05 0-2.09.04-2.64.04-.11 0-1.59-.04-2.6-.04-.25 0-.36.04-.36.18 0 .07.11.11.18.11.22 0 .58.04.76.07.76.11.87.51.94 1.23.04.72.04 1.34.04 4.69v3.83Zm-20.76-.65c-.07 0-.11-.04-.07-.14l2.09-5.96c.14-.33.25-.33.36 0l2.24 5.96c.04.11.04.14-.07.14zm-3.25 4.58c-.43 1.08-.87 1.84-1.88 1.95-.18.04-.51.07-.69.07-.11 0-.18.07-.18.18s.14.18.43.18c.9 0 2.06-.07 2.27-.07.25 0 1.48.07 2.02.07.18 0 .33-.04.33-.18 0-.11-.07-.18-.25-.18h-.18c-.4 0-.76-.14-.76-.58 0-.4.11-.94.32-1.48l1.26-3.47c.04-.11.14-.18.25-.18h5.16c.14 0 .18.04.22.14l2.02 4.98c.14.36-.07.54-.22.58-.11.04-.14.04-.14.14 0 .14.36.14.79.18 1.55.04 3.21.04 3.54.04.25 0 .51-.04.51-.18s-.14-.18-.29-.18c-.22 0-.54 0-.87-.11-.51-.18-1.12-.47-1.91-2.38-1.37-3.32-4.98-12.27-5.42-13.18-.22-.51-.29-.79-.54-.79-.14 0-.22.11-.51.83l-5.31 13.61Zm-13.28-12.88c0-.14.07-.22.18-.25.22-.07.94-.14 1.59-.14 2.42 0 3.9 1.55 3.9 4.3 0 1.66-.58 2.78-1.34 3.28-.54.36-1.16.4-1.7.4-1.01 0-2.17-.14-2.49-.33-.11-.07-.14-.14-.14-.29zm-1.95 8.95c0 2.09 0 3.83-.14 4.69-.07.65-.11 1.05-.58 1.16-.18.07-.47.11-.69.11-.11 0-.18.11-.18.18 0 .14.14.18.36.18.69 0 2.2-.07 2.24-.07.11 0 1.52.07 2.74.07.25 0 .36-.07.36-.18 0-.07-.04-.18-.18-.18-.22 0-.69-.04-1.01-.11-.69-.11-.79-.51-.87-1.16-.11-.87-.11-2.56-.11-4.66v-.5c0-.14.04-.18.14-.18l2.85.04c.18 0 .22.04.32.14.47.58 1.48 1.99 2.42 3.14 1.3 1.66 2.09 2.71 3.07 3.21.58.29 1.12.43 2.38.43h1.41c.43 0 .58-.04.58-.18 0-.07-.11-.18-.22-.18-.14 0-.36 0-.79-.07-.58-.07-1.3-.29-2.53-1.52-1.3-1.34-2.85-3.32-4.69-5.6 2.09-1.81 2.78-3.36 2.78-4.98 0-1.52-1.01-2.53-1.59-2.96-1.16-.83-2.74-.94-4.15-.94-.72 0-2.6.04-2.82.04-.14 0-1.66-.04-2.67-.04-.25 0-.36.04-.36.18 0 .07.11.18.18.18.22 0 .58.04.76.04.76.11.87.47.94 1.19.04.72.04 1.34.04 4.69v3.83Zm-14.73-.65c-.07 0-.11-.04-.07-.14l2.09-5.96c.14-.33.25-.33.36 0l2.24 5.96c.04.11.04.14-.07.14zm-3.25 4.58c-.43 1.08-.87 1.84-1.88 1.95-.18.04-.51.07-.69.07-.11 0-.18.07-.18.18s.14.18.43.18c.9 0 2.06-.07 2.27-.07.25 0 1.48.07 2.02.07.18 0 .33-.04.33-.18 0-.11-.07-.18-.25-.18h-.18c-.4 0-.76-.14-.76-.58 0-.4.11-.94.33-1.48l1.26-3.47c.04-.11.14-.18.25-.18h5.16c.14 0 .18.04.22.14l2.02 4.98c.14.36-.07.54-.22.58-.11.04-.14.04-.14.14 0 .14.36.14.79.18 1.55.04 3.21.04 3.54.04.25 0 .51-.04.51-.18s-.14-.18-.29-.18c-.22 0-.54 0-.87-.11-.51-.18-1.12-.47-1.91-2.38-1.37-3.32-4.98-12.27-5.42-13.18-.22-.51-.29-.79-.54-.79-.14 0-.22.11-.51.83l-5.31 13.61Zm-6.39-7.76c0-3.39 0-3.97.04-4.69.07-.76.18-1.08.79-1.19.29-.04.4-.04.58-.04.07 0 .18-.11.18-.18 0-.14-.11-.18-.36-.18-.69 0-2.09.04-2.24.04-.11 0-1.55-.04-2.56-.04-.25 0-.36.04-.36.18 0 .07.07.18.18.18.22 0 .61.04.79.04.72.11.83.47.87 1.19s.04 1.37.04 4.73v.47c0 .11-.04.11-.11.11h-9.39c-.07 0-.11 0-.11-.11v-5.2c.07-.76.18-1.08.79-1.19.29-.04.43-.04.58-.04.07 0 .18-.11.18-.18 0-.14-.11-.18-.36-.18-.69 0-2.13.04-2.2.04-.14 0-1.59-.04-2.6-.04-.25 0-.36.04-.36.18 0 .07.11.18.18.18.22 0 .58.04.76.04.76.11.87.47.94 1.19.04.72.04 1.3.04 4.69v3.83c0 2.09 0 3.79-.14 4.69-.07.65-.11 1.05-.58 1.16-.18.07-.47.11-.69.11-.11 0-.18.11-.18.18 0 .14.14.18.36.18.69 0 2.13-.07 2.27-.07.07 0 1.52.07 2.78.07.25 0 .36-.07.36-.18 0-.07-.07-.18-.18-.18-.22 0-.69-.04-1.05-.11-.65-.11-.72-.51-.79-1.16-.11-.9-.11-2.56-.11-4.66v-2.17c0-.11.04-.11.11-.11h9.39c.07 0 .11 0 .11.11v2.17c0 2.09 0 3.75-.07 4.66-.07.61-.14 1.05-.61 1.16-.22.07-.47.11-.69.11-.11 0-.18.11-.18.18 0 .14.11.18.36.18.69 0 2.13-.07 2.24-.07.14 0 1.55.07 2.78.07.25 0 .4-.07.4-.18 0-.07-.07-.18-.22-.18-.18 0-.69-.04-1.01-.11-.69-.11-.72-.51-.79-1.16-.11-.9-.14-2.6-.14-4.69v-3.83Zm-28.45 3.18c-.07 0-.11-.04-.07-.14l2.09-5.96c.14-.33.25-.33.36 0l2.24 5.96c.04.11.04.14-.07.14zm-3.24 4.58c-.43 1.08-.87 1.84-1.88 1.95-.18.04-.51.07-.69.07-.11 0-.18.07-.18.18s.14.18.43.18c.9 0 2.06-.07 2.27-.07.25 0 1.48.07 2.02.07.18 0 .32-.04.32-.18 0-.11-.07-.18-.25-.18h-.18c-.4 0-.76-.14-.76-.58 0-.4.11-.94.33-1.48l1.26-3.47c.04-.11.14-.18.25-.18h5.16c.14 0 .18.04.22.14l2.02 4.98c.14.36-.07.54-.22.58-.11.04-.14.04-.14.14 0 .14.36.14.79.18 1.55.04 3.21.04 3.54.04.25 0 .51-.04.51-.18s-.14-.18-.29-.18c-.22 0-.54 0-.87-.11-.51-.18-1.12-.47-1.91-2.38-1.37-3.32-4.98-12.27-5.41-13.18-.22-.51-.29-.79-.54-.79-.14 0-.22.11-.51.83l-5.31 13.61ZM75.06 230c1.23 0 2.64-.11 3.57-.76 1.59-1.05 2.09-2.42 2.09-3.68 0-1.88-.94-3.39-3.68-5.23l-.61-.43c-2.24-1.52-2.92-2.31-2.92-3.68 0-1.52 1.34-2.35 3-2.35 2.02 0 2.74.83 2.92 1.05.11.25.29.83.29 1.08.04.18.07.29.22.29.18 0 .18-.14.18-.47 0-1.48.11-2.2.11-2.31 0-.14-.07-.18-.22-.18-.18 0-.36 0-.79-.07-.54-.14-1.44-.25-2.35-.25-2.96 0-4.95 1.52-4.95 4.08 0 1.52.76 2.82 3.21 4.66l1.01.76c1.99 1.48 2.82 2.2 2.82 3.75 0 1.66-1.12 2.89-3.36 2.89-1.52 0-3.18-.54-3.54-2.13-.07-.32-.07-.61-.07-.79s-.07-.25-.22-.25c-.11 0-.18.11-.18.36-.04.32-.11 1.23-.11 2.31 0 .58 0 .65.32.79.9.47 2.2.58 3.25.58Z"/><path fill="#002c4b" fill-rule="evenodd" d="m164.71 131.56-1.68 1.68c-5.55-5.53-14.88-5.18-20.86.8s-6.33 15.31-.8 20.86l-1.68 1.68c-10.08-26.75-2.09-35.44 25.01-25.01"/><path fill="#002c4b" fill-rule="evenodd" d="m165.02 122.12 1.68 1.68c-5.53 5.55-5.18 14.88.8 20.86s15.31 6.34 20.86.8l1.68 1.68c-26.75 10.08-35.44 2.09-25.01-25.01"/><path fill="#002c4b" fill-rule="evenodd" d="m155.26 122.12-1.68 1.68c5.53 5.55 5.18 14.88-.8 20.86s-15.31 6.34-20.86.8l-1.68 1.68c26.75 10.08 35.44 2.09 25.01-25.01"/><path fill="#002c4b" fill-rule="evenodd" d="m155.58 131.56 1.68 1.68c5.55-5.53 14.88-5.18 20.86.8s6.33 15.31.8 20.86l1.68 1.68c10.08-26.75 2.09-35.44-25.01-25.01"/><path fill="#a77b18" fill-rule="evenodd" d="m190.04 106.23-1.68 1.68c-5.55-5.53-14.88-5.18-20.86.8s-6.33 15.31-.8 20.86l-1.68 1.68c-10.08-26.75-2.09-35.44 25.01-25.01"/><path fill="#002c4b" fill-rule="evenodd" d="m139.69 96.79 1.68 1.67c-5.53 5.55-5.18 14.88.8 20.86s15.31 6.33 20.86.8l1.68 1.68c-26.75 10.08-35.44 2.09-25.01-25.01"/><path fill="#a77b18" fill-rule="evenodd" d="m180.6 96.79-1.68 1.67c5.53 5.55 5.18 14.88-.8 20.86s-15.31 6.33-20.86.8l-1.68 1.68c26.75 10.08 35.44 2.09 25.01-25.01"/><path fill="#002c4b" fill-rule="evenodd" d="m130.25 106.23 1.68 1.68c5.55-5.53 14.88-5.18 20.86.8s6.33 15.31.8 20.86l1.68 1.68c10.08-26.75 2.09-35.44-25.01-25.01"/></svg>