<svg xmlns="http://www.w3.org/2000/svg" viewBox="89.3 97.99 141.41 124"><path fill="#034694" d="M170.39 176.91c-2.05-.2-4.65-1.6-6.02-3.13-2-2.21-2.64-5.36-4.2-7.73-.08-.12-.12-.3-.31-.27-.98 1.94-1.81 4.02-2.89 5.91-1.69 2.96-4.33 4.83-7.76 5.21h-10.35l-37.87-76.64.04-.27h13.21c5.74.39 9.94 3.38 12.6 8.35 1.96 3.65 3.76 7.57 5.62 11.29 5.84 11.73 11.59 23.5 17.39 35.25l10.19-20.04 20.73 42.04H170.4Z"/><path fill="#27aae2" d="m219.21 100.12-35.79 71.92-10.06-20.23-.82-1.94c5.6-11.12 11-22.34 16.58-33.47 3.68-7.35 6.43-15.46 16.03-16.29h14.07Z"/><path fill="#1a75bc" d="m167.06 100.27.29.34c3.51 7.54 7.57 14.84 11.11 22.36.19.41.78 1.5.86 1.82.05.2.03.34-.06.52l-9.24 18.67-.26.15-9.96-20.04-9.9 20.04-9.47-18.92-.04-.31 12.23-24.61 14.45-.02Z"/><path fill="#15589f" d="M227.76 186.83c-2.57-3.88-8.54-3.25-10.23 1.08-.67 1.72-.51 3.34.29 4.98h-2.66v-3.07c0-2.4-2.34-5.15-4.72-5.47-2.22-.3-4.97.14-7.24 0-.35.1-2 2.07-2.51 2.47-.12.09-.15.22-.35.17v-2.66h-2.9v8.57h-4.17v-8.57h-2.9c-.28 4.04-.01 8.13-.14 12.19-.29 1.17-1.4 2.1-2.64 2.05v3.01c3.07-.09 5.65-2.56 5.67-5.68h15.92c1.04-.79 1.92-1.91 2.96-2.78v2.78h10.71c.32-.04.38-.38.58-.58.73-.76 1.52-1.62 2.38-2.2v2.78h2.9v-6.78c0-.42-.68-1.89-.95-2.3Zm-15.62 6.06h-11.81v-5.68h9.32c.98 0 2.49 1.39 2.49 2.37v3.3Zm13.67 0h-3.65c-.26 0-1.36-.83-1.56-1.1-1.94-2.67 1.35-5.94 4.05-4.05.43.3 1.17 1.33 1.17 1.85v3.3Zm-97.35 3.01.24-.11 2.66-2.67.06 2.78h.7c.77.02 1.55-.02 2.32 0-.14-2.05.19-4.35 0-6.37-.23-2.46-2.66-5.33-5.27-5.33h-10.95v3.01h10.6c.94 0 2.61 1.31 2.61 2.26v3.42h-15.98v-3.3s-.13-.6-.17-.76c-.46-2.15-2.81-4.63-5.1-4.63h-2.95v3.01h2.72c.96 0 2.49 1.42 2.49 2.37v3.3h-8.11v3.01h5.27l2.84-2.78v2.78h16.04Zm16.16-2.77v3.3c0 1.03-1.82 2.48-2.9 2.26v2.84c0 .32 1.37.04 1.6-.02 2.49-.64 4.29-3.05 4.31-5.59l1.85-.06 2.78-2.72v2.61s.16.17.17.17h2.84V180.4h-2.84s-.17.16-.17.17v12.33h-4.63v-3.65c0-.8-1.01-2.58-1.56-3.19-3.94-4.31-11.13-.58-9.97 5.22.54 2.7 3.03 4.64 5.77 4.63zm-5.15-1.4c-2.16-3.09 2.44-6.32 4.63-3.35.1.13.52.93.52.99v3.53h-3.42c-.41 0-1.48-.8-1.73-1.17m-30.87 12.92v10.19c0 .16-.4.8-.53.97-1.3 1.73-4.03 1.48-4.88-.54-.05-.11-.26-.74-.26-.78v-10.02h-2.84c-.27 0-.06.58-.05.75.06 2.67.18 5.96 0 8.58-.13 1.86-1.23 3.4-3.28 3.15-1.17-.14-2.52-1.36-2.52-2.58v-9.9h-2.9v10.71c0 .22.46 1.34.6 1.6 1.86 3.64 6.81 4.19 9.54 1.23 2.68 3.07 8.01 2.29 9.64-1.48.09-.21.49-1.45.49-1.59v-10.48h-2.84s-.17.16-.17.17Zm75.98-11.52v2.61s.16.17.17.17h2.84v-6.83s-.2.05-.23-.08c-.26-1.04-.15-1.27-.83-2.28-3.31-4.87-10.88-2.08-10.52 3.81.05.81.3 1.66.7 2.37h-9.21c-.88 0-2.26-1.63-2.26-2.49v-6.08h-2.9v6.54c0 2.4 3.12 5.1 5.5 5.04h13.99zm-5.68-3.07c0-1.14.83-2.41 1.94-2.69 1.25-.32 2.69.05 3.37 1.2.07.12.37.73.37.79v3.53c-1.04-.12-2.43.16-3.42 0-1.19-.2-2.26-1.66-2.26-2.84Zm4.93 14.88c-.22-.1-1.23-.46-1.39-.46h-9.56v15.4h2.9v-2.66c.2-.05.23.08.35.17.7.53 1.75 2.02 2.37 2.38.14.08.19.09.35.12 1.44.19 4.26.12 5.5-.65 2.45-1.54 2.78-4.87.95-7.04 2.05-2.21 1.32-6.03-1.46-7.26Zm-1.63 12.04h-6.43v-3.36h6.2c.72 0 1.51.86 1.56 1.58.05.69-.61 1.78-1.33 1.78m1.34-7.82c-.01.46-.68 1.57-1.11 1.57h-6.66v-3.36c1.8.1 3.72-.13 5.51 0 1.1.08 2.3.44 2.26 1.8Zm-34.81-4.68h-9.79v15.4h3.01v-2.66l2.85 2.75c1.99-.32 3.86.33 5.74-.59 3.58-1.74 3.62-5.77 3.33-9.29-.22-2.72-2.35-5.34-5.15-5.62Zm2.15 9.9c-.07.86-.51 1.64-1.24 2.12-.18.12-.98.48-1.14.48h-6.66v-9.32s.16-.17.17-.17h6.72c.79 0 1.93 1.32 2.09 2.08.19.9.14 3.82.06 4.82Zm74.93-3.82c0 1.13-1.49 2.61-2.61 2.61h-6.43v-8.69h-3.01v15.4h3.01v-6.49l2.89 2.73c1.18.07 3.36-.2 4.41.22 1.37.55 1.88 2.16 1.74 3.53h2.72s.09.15.17.12v-2.03c0-.21-.51-1.51-.65-1.78-.29-.56-.72-1.07-1.2-1.46.01-.18.89-1.07 1.07-1.37.17-.29.79-1.75.79-1.99v-6.89h-2.9v6.08Zm-112.4-2.49c-.08.19-.41 1.11-.41 1.21v10.6h2.9v-6.49c.2-.05.23.08.35.17.52.4 2.22 2.44 2.55 2.54.85.26 2.01-.1 2.89.07v3.71h2.9V209.4c0-.64-.79-2.2-1.21-2.72-2.76-3.43-8.31-2.69-9.96 1.39Zm8.28 5.09h-5.79v-3.3s.24-.88.27-.95.78-.81.9-.9c1.46-1.07 3.57-.57 4.32 1.1.06.14.3.78.3.86zm66.8-5.64c-.17.33-.67 1.68-.67 1.99v10.37h2.9v-6.49c.2-.05.23.08.35.17.41.31 2.31 2.49 2.49 2.49h2.95v3.82h2.9v-10.6c0-.39-.6-1.68-.83-2.06-2.27-3.76-8.03-3.59-10.07.3Zm8.02 5.64h-5.79v-3.19c0-.11.33-.93.42-1.09 1-1.85 3.72-1.9 4.89-.17.11.17.48.89.48 1.02v3.42Zm-35.26-8.69c-2.63-.07-5.97 2.26-5.97 5.04v10.37h2.9v-10.25c0-.16.57-1.09.71-1.26 1.68-1.88 5.08-.65 5.08 1.84v2.95h-5.68c-.05.2.08.23.17.35.21.27 2.37 2.55 2.55 2.55h2.95v3.82h2.9v-10.25c0-2.65-3.08-5.09-5.61-5.16m-26.59 8.69h-5.79v-8.69h-2.9v15.4h2.9v-6.6c.47.22 2.64 2.78 2.84 2.78h2.78s.17.16.17.17v3.65h2.9v-15.4h-2.9zm72.22-8.69c-2.64-.1-6.09 2.22-6.09 5.04v10.31s.16.17.17.17h2.66s.17-.16.17-.17v-10.08c0-.1.34-.81.44-.95 1.08-1.7 3.64-1.77 4.76-.07.12.18.48.98.48 1.14v10.02h3.01v-10.13c0-2.7-3.04-5.18-5.61-5.27Zm-109.93-8.56c.11-.01 1.43-1.2 1.63-1.39.13-.13 1.26-1.6 1.45-1.39v2.78h2.9v-6.89c0-.15-.59-1.61-.72-1.83-1.96-3.55-7.02-3.97-9.59-.83-3.07 3.75-.45 9.4 4.33 9.56Zm1.31-8.49c.83.31 1.77 1.51 1.77 2.4v3.07H96.5c-.43 0-1.53-.84-1.78-1.23-1.52-2.41.85-5.25 3.54-4.23Zm58.29-7.03h2.84v15.52h-2.84zm-62.31 0h5.79v3.01h-5.79zm89.06 2.83v-2.66s-.16-.17-.17-.17h-2.84v3.01h2.84s.17-.16.17-.17Z"/></svg>