<svg xmlns="http://www.w3.org/2000/svg" viewBox="28.01 113.89 263.99 92.21"><path fill="#c6872f" d="M227.32 130.93v31.61h5.84l-5.98 10.53.09 31.03 42.63-73.04h-18.25l-15.92 27.53-6.21.09 15.96-27.75z"/><path fill="#c6872f" d="M227.32 130.93h18.17l-15.97 27.75 6.21-.09 15.92-27.53h18.25v.01l-42.63 73.03-.09-31.03 5.98-10.53h-5.84z"/><path fill="#c6872f" fill-rule="evenodd" d="m222.78 126.3v67.27h3.1v-1.52h-1.57v-64.22h51.92l1.02-1.53z"/><path fill="#200b09" d="m242.66 188.8 42.63.27-.13-31.62-5.94.05 6.03-10.52V115.9zm40.36-27.47-13.63 23.72h-6.17l13.78-23.7z"/><path fill="#884b39" d="m242.66 188.8 42.63.27-.13-31.62-5.94.04 6.03-10.52v-31.08l-42.59 72.9Zm20.56-3.76L277 161.35l6.02-.02-13.63 23.72h-6.17z"/><path fill="#884b39" fill-rule="evenodd" d="M290 126.3h-3.05v1.53h1.52v64.22h-51.98l-.85 1.52H290z"/><path fill="#884b39" d="M42.87 155.37c.23-.31.38-.68.47-1.11s.13-1 .13-1.72v-13.72h3.56v13.39h2.43v2.74h-2.55q-.135.885-.48 1.62c-.23.49-.58.94-1.04 1.35-.54.48-1.14.8-1.8.97s-1.45.25-2.38.25h-5.37c-.93 0-1.72-.09-2.38-.25-.66-.17-1.26-.49-1.8-.97-.34-.29-.61-.62-.83-.96-.21-.35-.38-.72-.5-1.11s-.21-.81-.25-1.25a13 13 0 0 1-.07-1.41v-10.15h3.56v9.51c0 .71.04 1.29.13 1.72.08.43.24.8.47 1.1.32.44.72.72 1.2.85.47.13 1.03.19 1.69.19h2.95c.65 0 1.22-.07 1.69-.19.48-.13.88-.41 1.2-.85Zm-6.18-18.87v-2.83h3.56v2.83z"/><path fill="#884b39" d="M49.21 154.92v-2.7h.35c.66 0 1.2-.08 1.59-.22s.72-.4.98-.74c.27-.37.45-.79.53-1.26.09-.46.13-.95.14-1.47v-9.67h3.56v9.26l.08 2.19c.12.43.3.77.56 1.02s.55.45.88.58c.32.13.67.22 1.04.26.36.04.71.06 1.04.06h.38v2.7h-1.45c-.34 0-.7-.01-1.06-.03s-.72-.07-1.09-.15c-.36-.08-.72-.2-1.07-.36q-.525-.24-.99-.66c-.31.27-.65.49-.99.65s-.7.28-1.06.36c-.36.09-.74.14-1.13.16s-.79.03-1.2.03h-1.07Zm1.43 5.32v-2.83h3.56v2.83zm4.77 0v-2.83h3.56v2.83z"/><path fill="#884b39" d="M60.02 152.22h2.6c-.29-.43-.51-.88-.67-1.35q-.24-.72-.36-1.41c-.09-.46-.14-.91-.16-1.34s-.03-.82-.03-1.16c0-.45.02-.96.06-1.54s.13-1.18.27-1.78.35-1.19.62-1.77c.27-.57.64-1.07 1.12-1.49.45-.42.94-.74 1.49-.97a7.8 7.8 0 0 1 1.69-.5c.58-.11 1.15-.18 1.73-.2.57-.03 1.1-.04 1.59-.04s1.01.01 1.58.04 1.14.09 1.72.2 1.14.27 1.7.5c.55.23 1.05.55 1.5.97.48.43.85.92 1.12 1.49.27.58.48 1.16.62 1.76s.22 1.18.26 1.74c.04.57.06 1.05.06 1.47 0 1.29-.12 2.36-.35 3.23s-.53 1.59-.9 2.16h2.61v2.74H60v-2.74Zm5.06-5.3c0 .33 0 .67.02 1.02a6 6 0 0 0 .42 2.01c.14.32.33.64.59.93.24.28.5.5.79.68.29.17.58.3.89.4.3.09.62.16.94.2s.63.06.94.06h.29c.33 0 .67-.02 1.02-.05.34-.03.67-.09 1-.18s.64-.22.95-.4c.3-.18.59-.42.86-.71s.48-.6.62-.92c.15-.32.25-.64.32-.97q.105-.495.12-1.02c.02-.34.02-.7.02-1.05v-.96c0-.27-.02-.55-.05-.84s-.08-.58-.16-.88c-.08-.29-.19-.57-.32-.84s-.3-.51-.51-.73a3.2 3.2 0 0 0-.87-.68c-.31-.17-.64-.29-.97-.38a5 5 0 0 0-1.01-.17c-.34-.03-.68-.04-1-.04-.29 0-.61.01-.96.04s-.7.08-1.05.17-.69.22-1.01.38c-.33.17-.61.4-.86.68-.26.29-.45.62-.59 1-.13.38-.23.77-.29 1.17s-.1.77-.11 1.14-.02.68-.02.94Zm.73-10.48v-2.83h3.56v2.83zm4.77 0v-2.83h3.56v2.83z"/><path fill="#884b39" d="M79.62 154.92v-2.7h.35c.66 0 1.2-.08 1.59-.22s.72-.4.98-.74c.27-.37.45-.79.53-1.26.09-.46.13-.95.14-1.47v-9.67h3.56v9.26l.08 2.19c.12.43.3.77.56 1.02s.55.45.88.58c.32.13.67.22 1.04.26.36.04.71.06 1.04.06h.38v2.7H89.3c-.34 0-.7-.01-1.06-.03s-.72-.07-1.09-.15c-.36-.08-.72-.2-1.07-.36q-.525-.24-.99-.66c-.31.27-.65.49-.99.65s-.7.28-1.06.36c-.36.09-.74.14-1.13.16s-.79.03-1.2.03h-1.07Zm1.43 5.32v-2.83h3.56v2.83zm4.77 0v-2.83h3.56v2.83z"/><path fill="#884b39" d="M90.43 154.95v-2.74h1.73c.66 0 1.2-.08 1.59-.22s.72-.4.98-.74c.29-.38.47-.83.55-1.32.08-.5.12-1.01.12-1.55v-14.71h3.56v15.78c0 .55-.04 1.05-.13 1.48s-.2.82-.34 1.15c-.14.34-.31.63-.5.89q-.3.375-.6.66c-.33.3-.67.53-1.02.7s-.71.3-1.09.4c-.37.09-.77.15-1.16.17-.4.03-.81.04-1.23.04h-2.45Zm11.14-21.27h3.56v21.27h-3.56zm15.48 13.46c0 .68.03 1.34.09 1.96s.24 1.18.55 1.68c.15.27.33.49.54.67s.46.33.74.45c.29.11.62.2 1 .24.38.05.81.08 1.3.08h2.09c-.58-1.29-.88-3.15-.88-5.56 0-1.27.11-2.4.31-3.4.22-1.01.69-1.89 1.39-2.66.37-.42.77-.74 1.18-.98s.83-.42 1.26-.53.85-.18 1.28-.21.84-.04 1.25-.04h5.19c.48 0 .93.03 1.37.09s.85.24 1.24.55c.42.36.67.74.77 1.16.12.44.18.83.18 1.18v7.64c0 .55-.04 1.05-.13 1.48-.08.44-.2.82-.34 1.16-.15.33-.31.63-.51.88a4.64 4.64 0 0 1-1.62 1.36c-.35.17-.71.3-1.09.4-.38.09-.77.15-1.16.17-.4.03-.81.04-1.23.04h-11.96c-.37 0-.79-.02-1.23-.05s-.89-.12-1.34-.26c-.46-.15-.91-.36-1.36-.65s-.87-.7-1.25-1.23c-.3-.4-.54-.82-.71-1.27s-.31-.92-.4-1.4c-.09-.49-.15-.98-.17-1.49-.03-.51-.04-1.02-.04-1.54v-4.73h3.69zh-.01Zm11.45 4.97c.28.04.55.07.82.09s.54.03.79.03h1.01c.66-.01 1.2-.09 1.59-.24.4-.15.72-.4.98-.74.23-.3.39-.65.48-1.03.1-.38.15-.78.17-1.2v-6.16c0-.23-.03-.42-.08-.58s-.18-.31-.38-.46c-.16-.1-.31-.16-.47-.19-.15-.03-.31-.05-.47-.05h-3.04c-.59 0-1.13.09-1.62.26-.49.18-.87.42-1.14.73-.24.29-.44.64-.57 1.06-.14.42-.23.84-.29 1.26-.06.43-.09.83-.1 1.2s-.02.65-.02.84q0 1.065.09 1.83c.06.5.13.93.22 1.27s.18.61.29.81q.15.3.3.45c.41.47.88.74 1.42.83Zm.31-15.61v-2.83h3.56v2.83zm10.53 21.13c.48.01.9 0 1.26-.01.35-.01.67-.05.94-.1s.51-.13.72-.22.43-.22.63-.36c.21-.15.39-.31.54-.49s.28-.38.38-.63c.11-.24.18-.53.24-.85s.08-.7.08-1.13v-14.98h3.56v13.37h2.64v2.74h-2.64c-.03.64-.13 1.2-.28 1.67-.16.47-.34.87-.55 1.21-.21.33-.43.61-.65.83-.23.22-.42.4-.58.52-.66.47-1.49.79-2.5.99-1.01.19-2.27.26-3.8.2v-2.74Z"/><path fill="#884b39" d="M149.95 154.95v-2.74h2.78v-13.37h3.56l-.02 2.13q.39-.54.93-.9t1.14-.6c.4-.16.81-.28 1.22-.36.42-.08.8-.14 1.15-.18s.67-.07.96-.07h7.57c.44 0 .89.03 1.37.09s.94.18 1.4.35.91.43 1.34.77c.44.33.82.77 1.17 1.31.28.46.49.92.65 1.4.15.48.26.96.33 1.45.07.48.11.97.12 1.45.01.49.02.95.02 1.41 0 .5-.01.97-.03 1.42s-.07.89-.13 1.31q-.105.63-.3 1.23c-.13.4-.3.8-.52 1.18h2.41v2.74h-27.12Zm11.28-13.37c-1.41.05-2.55.49-3.39 1.31-.85.82-1.37 1.99-1.57 3.52l-.02 5.82h11.48c.49 0 .92-.03 1.29-.08.38-.05.71-.13 1-.24s.55-.26.76-.45.4-.41.54-.67c.31-.51.49-1.07.55-1.7s.09-1.29.09-1.97c0-1.03-.05-1.88-.16-2.58-.1-.69-.31-1.25-.61-1.68-.22-.3-.47-.53-.76-.7s-.58-.29-.89-.38c-.3-.09-.61-.14-.92-.16-.3-.02-.58-.03-.83-.03h-6.56Z"/><path fill="#884b39" d="M176.69 154.95v-2.74h.59c.24 0 .51-.01.82-.03q.45-.03.93-.18c.31-.11.61-.27.9-.49s.53-.54.72-.94c.09-.19.19-.48.3-.86s.18-.96.22-1.72v-1.04c0-.45.02-.96.06-1.54s.13-1.18.27-1.78.35-1.19.62-1.77c.27-.57.64-1.07 1.12-1.49.45-.42.94-.74 1.49-.97a7.8 7.8 0 0 1 1.69-.5c.58-.11 1.15-.18 1.73-.2.57-.03 1.1-.04 1.59-.04s1.01.01 1.58.04 1.14.09 1.72.2 1.14.28 1.7.5c.55.23 1.05.55 1.5.97.48.43.85.93 1.12 1.5s.48 1.16.62 1.76.22 1.18.26 1.74c.04.57.06 1.05.06 1.47 0 .86-.05 1.64-.16 2.32-.1.69-.25 1.3-.43 1.83s-.4 1-.65 1.4c-.25.41-.53.74-.83 1.02-.43.41-.92.72-1.47.95-.56.23-1.14.4-1.73.51s-1.18.18-1.75.21-1.09.05-1.55.05c-.49 0-1.01-.02-1.59-.05-.57-.03-1.15-.1-1.73-.22-.58-.11-1.14-.28-1.7-.51-.55-.23-1.04-.55-1.49-.95-.03-.02-.08-.06-.14-.12-.33.35-.7.64-1.1.86s-.82.38-1.24.5-.84.2-1.27.24-.83.06-1.22.06h-1.59Zm9.18-12.28c-.31.37-.53.79-.66 1.23-.14.45-.22.91-.27 1.38-.05.48-.06.95-.05 1.41.01.47 0 .91-.02 1.32.03.54.11 1.06.25 1.59.14.52.4 1.01.77 1.45.26.3.55.54.87.71.31.18.63.31.96.4s.67.15 1.01.18.68.05 1.01.05.67-.02 1.01-.05.67-.09 1-.18c.32-.09.64-.22.95-.4.3-.18.59-.42.86-.71.26-.29.47-.61.61-.94s.25-.67.32-1.03q.105-.525.12-1.08c.01-.36.02-.72.02-1.08v-.96c0-.27-.02-.55-.05-.84s-.08-.58-.16-.88c-.08-.29-.18-.57-.32-.84-.13-.27-.3-.51-.51-.73a2.9 2.9 0 0 0-.87-.68 4.3 4.3 0 0 0-.97-.38 5 5 0 0 0-1.01-.17c-.34-.03-.67-.04-1-.04-.29 0-.61.01-.96.04s-.7.08-1.05.17-.69.22-1.02.38c-.32.17-.61.4-.86.68Z"/><path fill="#c6872f" d="m35.95 179.03-5.73-10.26h4.08l3.41 7.13 3.2-7.13h3.88l-5.43 10.19v6.24h-3.41zm9.63 6.17 5.8-16.43h3.98l5.81 16.43h-3.64l-1.1-3.36H50.2l-1.09 3.36zm7.74-12.77-2.17 6.6h4.36zm23.42 13.95-1.96-1.81c-1.17.72-2.59 1.08-4.24 1.08-2.42 0-4.35-.77-5.76-2.31-1.42-1.53-2.13-3.61-2.13-6.25s.71-4.82 2.13-6.4c1.42-1.57 3.34-2.36 5.76-2.36s4.35.79 5.76 2.36c1.42 1.57 2.13 3.71 2.13 6.39 0 2.38-.58 4.3-1.73 5.77l1.79 1.68zm-6.05-5.57 1.73-1.84 1.81 1.63c.53-.91.79-2.09.79-3.54 0-1.82-.4-3.25-1.2-4.27-.79-1.03-1.89-1.54-3.29-1.54s-2.5.51-3.3 1.54c-.79 1.03-1.18 2.46-1.18 4.27s.39 3.16 1.18 4.17c.78 1 1.88 1.5 3.29 1.5.68 0 1.29-.11 1.84-.37l-1.68-1.55Zm10.5 4.39v-16.43h12.07v2.92h-8.65v3.5h8.02V178h-8.02v4.28h9.03v2.92zm15.24 0v-16.43h12.07v2.92h-8.65v3.5h8.02V178h-8.02v4.28h9.04v2.92zm18.27 0h-3.2v-16.43h3.59l6.58 11.53v-11.53h3.2v16.43h-3.4l-6.77-11.83zm19.05-.02v-16.4h7.95c1.58 0 2.82.37 3.71 1.1q1.35 1.11 1.35 3.06c0 1.37-.5 2.41-1.51 3.11-.09.06-.18.12-.26.18-.09.06-.19.11-.29.15.39.14.73.32 1.02.53 1.05.72 1.57 1.77 1.57 3.15 0 1.68-.52 2.96-1.55 3.82-1.03.87-2.55 1.3-4.56 1.3zm3.29-7.21v4.36h4.16c1.78 0 2.68-.78 2.68-2.33 0-1.35-.91-2.03-2.74-2.03zm0-6.38v3.63h3.92c1.7 0 2.55-.64 2.55-1.94 0-1.13-.9-1.69-2.69-1.69zM149 185.2l5.8-16.43h3.98l5.81 16.43h-3.64l-1.1-3.36h-6.23l-1.09 3.36zm7.74-12.77-2.17 6.6h4.36zm13.1 12.77h-3.2v-16.43h3.59l6.58 11.53v-11.53h3.2v16.43h-3.4l-6.77-11.83zm13.74 0v-16.43h3.41v6.81l6.29-6.81h4.38l-6.56 6.72 6.99 9.71h-4.49l-4.94-7.22-1.67 1.7v5.52z"/></svg>